<?xml version="1.0" encoding="UTF-8"?>
<svg xmlns="http://www.w3.org/2000/svg" viewBox="2889.5 637 606 488.5" preserveAspectRatio="xMidYMid meet">
  <defs>
    <style>
      .territory {
        fill: #f4d03f;
        stroke: #333;
        stroke-width: 3;
        stroke-linejoin: round;
        stroke-linecap: round;
      }
    </style>
  </defs>
  <path id="afghanistan" class="territory" d="M2970,920 L2967.5,915 L2962.5,910 L2957.5,910 L2955,907.5 L2950,905 L2947.5,902.5 L2945,895 L2945,892.5 L2942.5,887.5 L2940,880 L2940,875 L2940,867.5 L2940,862.5 L2942.5,855 L2947.5,850 L2950,842.5 L2952.5,837.5 L2955,832.5 L2957.5,827.5 L2960,817.5 L2960,817.5 L2962.5,815 L2967.5,812.5 L2970,810 L2977.5,807.5 L2980,805 L2985,802.5 L2987.5,800 L2990,795 L2992.5,790 L2995,790 L2995,785 L2995,782.5 L2992.5,780 L2990,775 L2985,772.5 L2982.5,767.5 L2985,762.5 L2987.5,760 L2995,755 L3002.5,752.5 L3012.5,750 L3020,750 L3032.5,747.5 L3037.5,745 L3047.5,740 L3055,735 L3060,730 L3067.5,722.5 L3075,717.5 L3077.5,710 L3080,702.5 L3082.5,695 L3090,690 L3095,687.5 L3105,687.5 L3115,687.5 L3122.5,687.5 L3135,692.5 L3145,695 L3157.5,700 L3162.5,702.5 L3175,705 L3187.5,705 L3195,705 L3205,705 L3215,705 L3220,707.5 L3227.5,707.5 L3237.5,707.5 L3245,707.5 L3250,705 L3252.5,707.5 L3255,707.5 L3260,712.5 L3262.5,720 L3267.5,725 L3272.5,727.5 L3280,732.5 L3287.5,737.5 L3295,742.5 L3305,747.5 L3315,752.5 L3322.5,755 L3340,757.5 L3350,760 L3355,760 L3365,770 L3367.5,772.5 L3375,777.5 L3387.5,782.5 L3392.5,785 L3397.5,792.5 L3405,797.5 L3410,800 L3415,802.5 L3422.5,810 L3427.5,812.5 L3432.5,815 L3435,817.5 L3442.5,827.5 L3445,832.5 L3442.5,840 L3437.5,845 L3435,850 L3430,855 L3425,860 L3422.5,865 L3420,870 L3417.5,880 L3417.5,887.5 L3427.5,897.5 L3432.5,897.5 L3437.5,902.5 L3440,910 L3440,920 L3437.5,927.5 L3430,940 L3425,945 L3417.5,955 L3415,960 L3407.5,965 L3405,967.5 L3395,972.5 L3392.5,975 L3390,977.5 L3382.5,982.5 L3380,980 L3372.5,980 L3365,985 L3362.5,992.5 L3367.5,1002.5 L3370,1012.5 L3372.5,1017.5 L3377.5,1025 L3377.5,1032.5 L3365,1037.5 L3357.5,1042.5 L3350,1042.5 L3345,1045 L3340,1045 L3340,1040 L3337.5,1032.5 L3335,1027.5 L3332.5,1027.5 L3325,1025 L3317.5,1022.5 L3307.5,1025 L3297.5,1027.5 L3290,1035 L3287.5,1040 L3282.5,1040 L3272.5,1037.5 L3270,1035 L3265,1032.5 L3260,1032.5 L3252.5,1032.5 L3247.5,1040 L3242.5,1042.5 L3237.5,1052.5 L3232.5,1057.5 L3227.5,1067.5 L3217.5,1072.5 L3212.5,1075 L3210,1070 L3210,1065 L3202.5,1060 L3197.5,1057.5 L3192.5,1055 L3185,1052.5 L3182.5,1050 L3175,1047.5 L3170,1047.5 L3165,1047.5 L3160,1045 L3155,1040 L3152.5,1037.5 L3145,1032.5 L3140,1032.5 L3135,1030 L3127.5,1027.5 L3122.5,1025 L3115,1022.5 L3112.5,1025 L3107.5,1025 L3102.5,1027.5 L3090,1032.5 L3085,1035 L3080,1037.5 L3075,1040 L3067.5,1037.5 L3060,1040 L3057.5,1032.5 L3057.5,1027.5 L3057.5,1025 L3057.5,1020 L3057.5,1012.5 L3057.5,1007.5 L3052.5,1007.5 L3050,1007.5 L3050,1002.5 L3050,1000 L3045,997.5 L3045,992.5 L3045,982.5 L3047.5,982.5 L3050,982.5 L3057.5,982.5 L3062.5,982.5 L3067.5,982.5 L3067.5,980 L3067.5,977.5 L3062.5,972.5 L3060,967.5 L3060,965 L3055,962.5 L3052.5,962.5 L3050,962.5 L3045,967.5 L3045,972.5 L3042.5,977.5 L3042.5,970 L3042.5,967.5 L3040,965 L3042.5,960 L3042.5,957.5 L3040,955 L3037.5,952.5 L3032.5,952.5 L3027.5,947.5 L3022.5,942.5 L3022.5,937.5 L3020,932.5 L3017.5,930 L3012.5,927.5 L3012.5,925 L3017.5,922.5 L3025,922.5 L3025,920 L3022.5,917.5 L3022.5,917.5 L3022.5,915 L3025,912.5 L3025,912.5 L3035,912.5 L3037.5,910 L3042.5,907.5 L3045,905 L3050,900 L3050,897.5 L3050,892.5 L3047.5,890 L3042.5,887.5 L3037.5,890 L3032.5,890 L3027.5,887.5 L3025,887.5 L3020,887.5 L3015,890 L3012.5,890 L3005,892.5 L3000,897.5 L2990,902.5 L2982.5,907.5 L2980,907.5 L2975,910 L2975,912.5 L2975,915Z"/>
</svg>