<?xml version="1.0" encoding="UTF-8"?>
<svg xmlns="http://www.w3.org/2000/svg" viewBox="137.75 455.25 597 367" preserveAspectRatio="xMidYMid meet">
  <defs>
    <style>
      .territory {
        fill: #f4d03f;
        stroke: #333;
        stroke-width: 3;
        stroke-linejoin: round;
        stroke-linecap: round;
      }
    </style>
  </defs>
  <path id="alaska" class="territory" d="M212.5,547.5 L217.5,547.5 L225,547.5 L230,547.5 L237.5,545 L242.5,542.5 L245,542.5 L247.5,535 L252.5,532.5 L255,530 L257.5,527.5 L265,522.5 L267.5,525 L277.5,522.5 L282.5,522.5 L285,520 L292.5,517.5 L295,515 L300,517.5 L302.5,517.5 L305,515 L312.5,515 L315,515 L320,515 L325,512.5 L332.5,510 L337.5,505 L340,507.5 L345,510 L347.5,512.5 L345,515 L347.5,515 L350,515 L352.5,512.5 L355,512.5 L357.5,512.5 L360,512.5 L360,515 L360,515 L367.5,515 L367.5,515 L372.5,515 L377.5,515 L385,515 L387.5,515 L390,515 L392.5,517.5 L392.5,517.5 L397.5,520 L397.5,520 L397.5,522.5 L407.5,522.5 L407.5,522.5 L412.5,520 L417.5,520 L422.5,522.5 L425,520 L427.5,520 L437.5,522.5 L442.5,525 L447.5,525 L452.5,525 L455,527.5 L462.5,525 L467.5,525 L472.5,525 L477.5,530 L487.5,530 L490,530 L495,527.5 L497.5,527.5 L502.5,527.5 L505,527.5 L507.5,527.5 L515,527.5 L520,530 L525,535 L532.5,535 L537.5,535 L545,535 L555,535 L557.5,537.5 L560,535 L562.5,535 L562.5,537.5 L570,540 L572.5,540 L585,542.5 L590,542.5 L592.5,545 L602.5,545 L605,545 L605,545 L605,542.5 L605,542.5 L607.5,540 L612.5,537.5 L612.5,535 L622.5,535 L622.5,535 L625,535 L630,535 L630,537.5 L627.5,540 L627.5,542.5 L632.5,540 L637.5,537.5 L640,537.5 L640,535 L642.5,535 L645,535 L650,532.5 L652.5,532.5 L657.5,532.5 L660,530 L662.5,530 L665,530 L665,527.5 L667.5,527.5 L667.5,527.5 L672.5,527.5 L677.5,527.5 L682.5,527.5 L682.5,525 L685,527.5 L685,527.5 L677.5,530 L675,532.5 L672.5,535 L667.5,535 L662.5,535 L657.5,537.5 L652.5,537.5 L650,540 L647.5,540 L645,542.5 L640,545 L635,547.5 L640,550 L635,555 L632.5,562.5 L625,570 L620,580 L615,587.5 L610,597.5 L607.5,602.5 L605,607.5 L597.5,620 L587.5,632.5 L585,640 L577.5,650 L572.5,657.5 L570,662.5 L570,667.5 L570,672.5 L572.5,672.5 L577.5,672.5 L582.5,672.5 L587.5,672.5 L592.5,675 L600,677.5 L607.5,677.5 L612.5,685 L620,690 L622.5,697.5 L630,702.5 L632.5,710 L637.5,717.5 L640,722.5 L645,732.5 L647.5,737.5 L645,740 L645,747.5 L647.5,750 L652.5,755 L655,760 L655,765 L652.5,765 L647.5,765 L645,762.5 L640,760 L637.5,757.5 L637.5,752.5 L635,750 L635,747.5 L632.5,745 L630,742.5 L627.5,745 L625,745 L622.5,745 L622.5,737.5 L622.5,735 L620,730 L620,727.5 L620,722.5 L615,717.5 L615,715 L615,712.5 L612.5,712.5 L610,712.5 L607.5,710 L605,710 L602.5,710 L597.5,710 L590,712.5 L585,710 L577.5,705 L575,702.5 L570,700 L562.5,697.5 L560,695 L552.5,695 L552.5,692.5 L552.5,690 L555,687.5 L552.5,687.5 L547.5,690 L542.5,690 L535,687.5 L530,687.5 L527.5,685 L520,685 L515,685 L505,685 L500,687.5 L495,685 L490,682.5 L487.5,682.5 L485,677.5 L480,677.5 L477.5,680 L475,677.5 L472.5,677.5 L470,675 L465,675 L465,675 L462.5,672.5 L462.5,670 L457.5,670 L455,672.5 L450,670 L445,670 L445,670 L442.5,670 L440,672.5 L440,672.5 L442.5,672.5 L442.5,675 L445,675 L445,677.5 L442.5,682.5 L442.5,685 L440,687.5 L435,685 L432.5,685 L425,685 L422.5,687.5 L417.5,692.5 L412.5,695 L405,697.5 L402.5,697.5 L400,697.5 L400,697.5 L395,695 L397.5,692.5 L405,690 L400,690 L397.5,690 L395,685 L400,682.5 L400,682.5 L400,677.5 L402.5,675 L407.5,670 L415,670 L422.5,667.5 L427.5,670 L422.5,667.5 L420,667.5 L415,665 L410,665 L402.5,667.5 L395,672.5 L392.5,677.5 L387.5,680 L385,682.5 L385,685 L382.5,687.5 L382.5,687.5 L377.5,690 L375,690 L372.5,692.5 L370,695 L367.5,697.5 L367.5,697.5 L375,697.5 L375,700 L377.5,702.5 L367.5,712.5 L345,722.5 L342.5,722.5 L337.5,727.5 L335,732.5 L327.5,735 L320,737.5 L317.5,737.5 L312.5,740 L315,742.5 L307.5,747.5 L302.5,747.5 L295,750 L290,752.5 L282.5,752.5 L270,757.5 L262.5,762.5 L257.5,762.5 L250,765 L250,767.5 L250,767.5 L242.5,767.5 L235,770 L232.5,772.5 L230,772.5 L227.5,767.5 L232.5,765 L235,762.5 L240,762.5 L242.5,762.5 L247.5,760 L252.5,757.5 L257.5,755 L257.5,752.5 L262.5,752.5 L265,750 L267.5,747.5 L270,747.5 L275,745 L277.5,747.5 L280,750 L285,747.5 L285,745 L287.5,740 L292.5,737.5 L297.5,737.5 L300,732.5 L305,732.5 L307.5,730 L307.5,727.5 L315,725 L320,720 L320,720 L320,720 L320,717.5 L322.5,712.5 L325,710 L327.5,702.5 L327.5,702.5 L320,705 L315,705 L312.5,705 L310,705 L310,702.5 L312.5,700 L307.5,702.5 L307.5,707.5 L307.5,710 L305,710 L297.5,707.5 L295,705 L290,705 L290,705 L287.5,702.5 L285,702.5 L280,702.5 L277.5,705 L275,705 L270,705 L267.5,705 L265,705 L265,702.5 L265,702.5 L265,697.5 L265,692.5 L265,692.5 L262.5,687.5 L260,685 L252.5,687.5 L242.5,687.5 L240,687.5 L237.5,687.5 L232.5,685 L230,682.5 L225,680 L225,677.5 L222.5,677.5 L225,672.5 L225,670 L225,667.5 L222.5,667.5 L217.5,667.5 L215,665 L212.5,662.5 L210,657.5 L212.5,655 L217.5,652.5 L220,650 L222.5,647.5 L225,645 L227.5,642.5 L227.5,640 L230,635 L235,632.5 L237.5,632.5 L240,632.5 L247.5,635 L257.5,632.5 L260,630 L262.5,630 L267.5,630 L280,630 L277.5,630 L277.5,627.5 L277.5,622.5 L277.5,620 L277.5,620 L272.5,617.5 L272.5,615 L277.5,612.5 L277.5,612.5 L275,610 L267.5,612.5 L267.5,612.5 L262.5,615 L257.5,617.5 L257.5,617.5 L255,617.5 L252.5,615 L250,615 L245,615 L240,615 L235,615 L230,615 L222.5,615 L220,617.5 L212.5,612.5 L202.5,612.5 L202.5,607.5 L202.5,602.5 L205,602.5 L197.5,602.5 L195,602.5 L187.5,600 L187.5,597.5 L187.5,595 L192.5,595 L197.5,590 L210,590 L212.5,590 L215,587.5 L217.5,585 L222.5,582.5 L225,582.5 L232.5,582.5 L237.5,580 L242.5,582.5 L242.5,585 L240,585 L247.5,587.5 L255,587.5 L257.5,590 L260,590 L265,590 L267.5,585 L267.5,587.5 L265,587.5 L265,585 L267.5,582.5 L272.5,582.5 L277.5,585 L280,585 L285,585 L287.5,582.5 L282.5,582.5 L277.5,582.5 L272.5,582.5 L267.5,580 L267.5,577.5 L265,577.5 L257.5,577.5 L252.5,577.5 L245,577.5 L242.5,575 L242.5,572.5 L237.5,570 L235,567.5 L230,565 L225,562.5 L220,560 L217.5,560 L210,557.5 L207.5,557.5 L205,555 L207.5,555 L207.5,552.5 L210,550Z"/>
</svg>