<?xml version="1.0" encoding="UTF-8"?>
<svg xmlns="http://www.w3.org/2000/svg" viewBox="558 625.5 594 311.5" preserveAspectRatio="xMidYMid meet">
  <defs>
    <style>
      .territory {
        fill: #f4d03f;
        stroke: #333;
        stroke-width: 3;
        stroke-linejoin: round;
        stroke-linecap: round;
      }
    </style>
  </defs>
  <path id="alberta" class="territory" d="M607.5,677.5 L622.5,677.5 L630,677.5 L652.5,675 L667.5,675 L682.5,675 L697.5,675 L715,677.5 L732.5,677.5 L747.5,677.5 L775,675 L795,675 L810,675 L830,675 L850,675 L872.5,677.5 L885,675 L905,675 L927.5,675 L950,675 L962.5,675 L990,675 L1002.5,675 L1020,675 L1030,675 L1052.5,675 L1070,675 L1090,675 L1095,677.5 L1102.5,677.5 L1095,682.5 L1095,687.5 L1092.5,692.5 L1090,697.5 L1087.5,705 L1085,710 L1082.5,712.5 L1080,720 L1077.5,730 L1072.5,740 L1072.5,745 L1070,752.5 L1065,760 L1062.5,767.5 L1057.5,772.5 L1057.5,780 L1052.5,785 L1050,790 L1047.5,800 L1045,802.5 L1042.5,810 L1037.5,817.5 L1035,825 L1035,832.5 L1030,837.5 L1027.5,842.5 L1027.5,847.5 L1025,850 L1022.5,855 L1022.5,860 L1020,865 L1017.5,872.5 L1015,877.5 L1012.5,880 L1010,885 L1005,887.5 L1000,885 L995,887.5 L987.5,887.5 L982.5,887.5 L972.5,887.5 L970,887.5 L960,887.5 L952.5,887.5 L945,887.5 L940,887.5 L927.5,885 L925,885 L915,885 L910,885 L905,887.5 L895,887.5 L890,887.5 L877.5,885 L872.5,885 L867.5,885 L857.5,885 L850,887.5 L845,887.5 L835,887.5 L832.5,885 L827.5,885 L822.5,885 L817.5,887.5 L812.5,887.5 L807.5,887.5 L802.5,885 L795,885 L790,887.5 L782.5,887.5 L780,887.5 L775,887.5 L772.5,887.5 L770,887.5 L765,887.5 L760,885 L757.5,887.5 L755,882.5 L752.5,877.5 L750,875 L750,872.5 L747.5,870 L747.5,867.5 L747.5,862.5 L745,862.5 L737.5,857.5 L742.5,857.5 L730,855 L730,852.5 L717.5,847.5 L717.5,847.5 L715,842.5 L712.5,840 L707.5,837.5 L705,835 L700,832.5 L700,830 L702.5,827.5 L705,827.5 L712.5,830 L717.5,830 L722.5,832.5 L725,832.5 L727.5,830 L725,827.5 L722.5,827.5 L717.5,825 L712.5,825 L712.5,822.5 L707.5,822.5 L707.5,820 L707.5,817.5 L705,815 L705,812.5 L705,810 L705,805 L702.5,802.5 L702.5,802.5 L697.5,802.5 L695,802.5 L692.5,800 L692.5,797.5 L692.5,797.5 L690,800 L690,800 L690,797.5 L692.5,790 L692.5,787.5 L692.5,785 L690,785 L685,787.5 L680,790 L677.5,790 L675,787.5 L672.5,785 L672.5,785 L675,782.5 L677.5,780 L677.5,775 L675,775 L672.5,772.5 L675,767.5 L675,767.5 L677.5,765 L677.5,765 L677.5,765 L680,762.5 L677.5,760 L675,762.5 L672.5,762.5 L672.5,765 L670,765 L667.5,765 L665,762.5 L665,760 L662.5,760 L660,762.5 L657.5,762.5 L655,760 L655,760 L652.5,755 L647.5,750 L645,747.5 L645,740 L647.5,737.5 L645,732.5 L640,722.5 L637.5,717.5 L632.5,710 L630,702.5 L622.5,697.5 L620,690 L612.5,685Z"/>
</svg>