<?xml version="1.0" encoding="UTF-8"?>
<svg xmlns="http://www.w3.org/2000/svg" viewBox="1320.25 1822.75 442 717" preserveAspectRatio="xMidYMid meet">
  <defs>
    <style>
      .territory {
        fill: #f4d03f;
        stroke: #333;
        stroke-width: 3;
        stroke-linejoin: round;
        stroke-linecap: round;
      }
    </style>
  </defs>
  <path id="argentina" class="territory" d="M1702.5,2102.5 L1695,2095 L1690,2090 L1685,2085 L1680,2080 L1677.5,2075 L1672.5,2072.5 L1667.5,2065 L1662.5,2060 L1655,2057.5 L1652.5,2052.5 L1642.5,2047.5 L1637.5,2045 L1635,2037.5 L1637.5,2030 L1645,2025 L1650,2020 L1652.5,2010 L1657.5,2002.5 L1665,1995 L1667.5,1990 L1670,1985 L1670,1977.5 L1670,1972.5 L1667.5,1965 L1662.5,1967.5 L1660,1970 L1655,1975 L1652.5,1977.5 L1640,1980 L1632.5,1980 L1630,1977.5 L1625,1975 L1627.5,1970 L1627.5,1965 L1627.5,1960 L1625,1957.5 L1620,1955 L1615,1952.5 L1610,1950 L1602.5,1950 L1595,1950 L1590,1950 L1582.5,1947.5 L1577.5,1947.5 L1575,1940 L1572.5,1937.5 L1570,1935 L1567.5,1935 L1562.5,1935 L1560,1937.5 L1557.5,1940 L1552.5,1942.5 L1550,1942.5 L1542.5,1942.5 L1540,1940 L1535,1937.5 L1527.5,1937.5 L1522.5,1937.5 L1517.5,1942.5 L1515,1947.5 L1510,1950 L1505,1950 L1497.5,1947.5 L1495,1940 L1492.5,1935 L1490,1927.5 L1487.5,1920 L1485,1915 L1480,1910 L1477.5,1902.5 L1475,1897.5 L1470,1890 L1470,1887.5 L1467.5,1885 L1462.5,1885 L1455,1882.5 L1447.5,1890 L1442.5,1892.5 L1442.5,1895 L1445,1897.5 L1447.5,1900 L1450,1902.5 L1452.5,1910 L1452.5,1915 L1452.5,1922.5 L1455,1927.5 L1455,1935 L1452.5,1940 L1455,1947.5 L1455,1952.5 L1452.5,1957.5 L1450,1967.5 L1450,1972.5 L1450,1977.5 L1447.5,1980 L1447.5,1985 L1450,1985 L1450,1990 L1447.5,1995 L1447.5,2002.5 L1450,2010 L1450,2012.5 L1447.5,2015 L1445,2020 L1445,2022.5 L1447.5,2027.5 L1445,2035 L1442.5,2042.5 L1442.5,2045 L1442.5,2050 L1440,2055 L1440,2062.5 L1437.5,2067.5 L1435,2072.5 L1437.5,2075 L1440,2077.5 L1437.5,2082.5 L1435,2087.5 L1435,2090 L1435,2100 L1432.5,2102.5 L1432.5,2110 L1437.5,2115 L1437.5,2122.5 L1437.5,2127.5 L1435,2130 L1432.5,2132.5 L1432.5,2135 L1435,2140 L1432.5,2145 L1430,2147.5 L1430,2150 L1427.5,2157.5 L1425,2160 L1425,2165 L1422.5,2172.5 L1420,2177.5 L1417.5,2185 L1415,2190 L1415,2195 L1410,2195 L1410,2195 L1407.5,2200 L1410,2202.5 L1410,2205 L1410,2207.5 L1412.5,2210 L1412.5,2212.5 L1412.5,2212.5 L1410,2217.5 L1412.5,2222.5 L1412.5,2227.5 L1412.5,2230 L1412.5,2235 L1407.5,2237.5 L1407.5,2242.5 L1407.5,2247.5 L1405,2255 L1405,2260 L1405,2262.5 L1407.5,2265 L1407.5,2265 L1412.5,2265 L1415,2262.5 L1420,2262.5 L1422.5,2267.5 L1420,2270 L1420,2272.5 L1422.5,2275 L1420,2277.5 L1417.5,2280 L1420,2285 L1417.5,2287.5 L1417.5,2290 L1417.5,2297.5 L1417.5,2300 L1415,2305 L1415,2310 L1412.5,2312.5 L1410,2317.5 L1405,2322.5 L1402.5,2322.5 L1397.5,2330 L1392.5,2330 L1387.5,2335 L1387.5,2340 L1380,2342.5 L1382.5,2345 L1385,2347.5 L1387.5,2345 L1402.5,2347.5 L1402.5,2347.5 L1400,2350 L1397.5,2355 L1395,2357.5 L1392.5,2360 L1385,2362.5 L1385,2365 L1385,2367.5 L1385,2372.5 L1385,2380 L1385,2385 L1385,2390 L1385,2395 L1385,2400 L1390,2405 L1392.5,2410 L1392.5,2417.5 L1392.5,2422.5 L1392.5,2427.5 L1395,2432.5 L1395,2435 L1397.5,2440 L1402.5,2445 L1405,2450 L1407.5,2452.5 L1415,2457.5 L1422.5,2460 L1422.5,2462.5 L1430,2465 L1432.5,2467.5 L1442.5,2470 L1445,2472.5 L1450,2475 L1455,2475 L1465,2480 L1472.5,2480 L1480,2480 L1485,2480 L1485,2480 L1490,2475 L1495,2475 L1500,2472.5 L1505,2472.5 L1515,2470 L1517.5,2467.5 L1517.5,2465 L1512.5,2465 L1505,2465 L1495,2462.5 L1490,2457.5 L1485,2455 L1482.5,2452.5 L1480,2450 L1480,2447.5 L1475,2445 L1475,2442.5 L1477.5,2437.5 L1475,2437.5 L1475,2430 L1475,2427.5 L1472.5,2425 L1470,2420 L1470,2417.5 L1467.5,2415 L1465,2412.5 L1465,2407.5 L1467.5,2400 L1467.5,2400 L1472.5,2397.5 L1480,2395 L1480,2395 L1482.5,2392.5 L1485,2390 L1487.5,2385 L1487.5,2382.5 L1487.5,2380 L1487.5,2377.5 L1492.5,2372.5 L1495,2372.5 L1500,2370 L1505,2367.5 L1507.5,2365 L1510,2362.5 L1510,2352.5 L1507.5,2347.5 L1502.5,2347.5 L1497.5,2347.5 L1492.5,2342.5 L1492.5,2340 L1490,2337.5 L1487.5,2335 L1487.5,2332.5 L1487.5,2330 L1487.5,2327.5 L1490,2320 L1495,2320 L1500,2317.5 L1502.5,2315 L1507.5,2315 L1512.5,2315 L1515,2312.5 L1512.5,2312.5 L1517.5,2305 L1517.5,2305 L1517.5,2297.5 L1517.5,2295 L1520,2292.5 L1525,2287.5 L1530,2282.5 L1525,2282.5 L1525,2282.5 L1522.5,2280 L1525,2280 L1527.5,2280 L1532.5,2282.5 L1537.5,2280 L1537.5,2272.5 L1532.5,2272.5 L1530,2275 L1525,2272.5 L1522.5,2272.5 L1520,2272.5 L1520,2267.5 L1520,2262.5 L1520,2257.5 L1520,2255 L1520,2252.5 L1520,2252.5 L1520,2250 L1527.5,2252.5 L1535,2255 L1537.5,2255 L1540,2257.5 L1547.5,2255 L1550,2255 L1552.5,2255 L1555,2247.5 L1555,2247.5 L1555,2245 L1557.5,2237.5 L1557.5,2237.5 L1557.5,2235 L1557.5,2230 L1555,2227.5 L1555,2222.5 L1557.5,2220 L1562.5,2222.5 L1565,2222.5 L1572.5,2222.5 L1577.5,2222.5 L1582.5,2222.5 L1592.5,2220 L1597.5,2217.5 L1602.5,2215 L1607.5,2215 L1612.5,2212.5 L1615,2207.5 L1617.5,2205 L1622.5,2200 L1625,2195 L1627.5,2190 L1630,2187.5 L1630,2182.5 L1627.5,2182.5 L1627.5,2182.5 L1625,2180 L1622.5,2177.5 L1620,2177.5 L1620,2175 L1620,2172.5 L1620,2167.5 L1620,2165 L1615,2160 L1612.5,2157.5 L1607.5,2155 L1605,2152.5 L1607.5,2147.5 L1605,2145 L1612.5,2150 L1620,2150 L1622.5,2152.5 L1627.5,2157.5 L1632.5,2160 L1637.5,2160 L1640,2157.5 L1650,2160 L1655,2157.5 L1660,2155 L1662.5,2152.5 L1667.5,2150 L1670,2145 L1672.5,2140 L1677.5,2135 L1680,2130 L1682.5,2125 L1685,2120 L1687.5,2115 L1687.5,2115 L1692.5,2110 L1697.5,2107.5Z"/>
</svg>