<?xml version="1.0" encoding="UTF-8"?>
<svg xmlns="http://www.w3.org/2000/svg" viewBox="1339.25 1489.25 626.5 669" preserveAspectRatio="xMidYMid meet">
  <defs>
    <style>
      .territory {
        fill: #f4d03f;
        stroke: #333;
        stroke-width: 3;
        stroke-linejoin: round;
        stroke-linecap: round;
      }
    </style>
  </defs>
  <path id="brazil" class="territory" d="M1700,1562.5 L1695,1577.5 L1690,1590 L1682.5,1602.5 L1675,1607.5 L1665,1610 L1657.5,1610 L1642.5,1607.5 L1637.5,1605 L1630,1605 L1625,1607.5 L1617.5,1605 L1607.5,1602.5 L1597.5,1602.5 L1587.5,1605 L1580,1607.5 L1572.5,1605 L1567.5,1605 L1565,1600 L1565,1592.5 L1562.5,1580 L1565,1572.5 L1567.5,1562.5 L1570,1555 L1567.5,1550 L1565,1547.5 L1557.5,1545 L1545,1547.5 L1537.5,1550 L1530,1552.5 L1522.5,1550 L1515,1545 L1510,1545 L1507.5,1552.5 L1507.5,1557.5 L1510,1565 L1512.5,1572.5 L1510,1577.5 L1505,1580 L1497.5,1585 L1492.5,1587.5 L1485,1587.5 L1480,1585 L1477.5,1575 L1475,1570 L1470,1565 L1465,1565 L1460,1567.5 L1455,1570 L1450,1567.5 L1447.5,1565 L1442.5,1565 L1437.5,1565 L1435,1570 L1435,1575 L1437.5,1582.5 L1435,1587.5 L1432.5,1592.5 L1430,1597.5 L1432.5,1602.5 L1435,1607.5 L1440,1615 L1445,1620 L1447.5,1625 L1450,1632.5 L1450,1640 L1447.5,1647.5 L1447.5,1652.5 L1445,1655 L1437.5,1655 L1432.5,1655 L1430,1655 L1427.5,1657.5 L1420,1657.5 L1415,1660 L1412.5,1665 L1407.5,1667.5 L1405,1675 L1402.5,1680 L1397.5,1687.5 L1397.5,1692.5 L1395,1700 L1395,1707.5 L1397.5,1712.5 L1400,1717.5 L1402.5,1725 L1407.5,1730 L1412.5,1730 L1417.5,1732.5 L1420,1732.5 L1425,1732.5 L1427.5,1732.5 L1430,1737.5 L1432.5,1745 L1435,1750 L1440,1752.5 L1442.5,1755 L1447.5,1755 L1450,1755 L1455,1755 L1457.5,1752.5 L1460,1750 L1465,1750 L1470,1750 L1472.5,1752.5 L1475,1757.5 L1475,1762.5 L1472.5,1767.5 L1472.5,1772.5 L1475,1777.5 L1477.5,1780 L1482.5,1782.5 L1485,1785 L1492.5,1790 L1502.5,1792.5 L1507.5,1795 L1517.5,1797.5 L1520,1797.5 L1525,1802.5 L1530,1805 L1532.5,1810 L1535,1815 L1540,1817.5 L1542.5,1820 L1550,1820 L1560,1822.5 L1567.5,1822.5 L1572.5,1825 L1577.5,1830 L1580,1832.5 L1582.5,1840 L1585,1840 L1587.5,1845 L1587.5,1847.5 L1587.5,1855 L1585,1862.5 L1580,1867.5 L1577.5,1872.5 L1577.5,1875 L1580,1880 L1582.5,1882.5 L1585,1885 L1587.5,1887.5 L1590,1892.5 L1590,1897.5 L1592.5,1902.5 L1597.5,1905 L1602.5,1910 L1607.5,1915 L1610,1917.5 L1617.5,1922.5 L1625,1922.5 L1630,1925 L1640,1932.5 L1647.5,1932.5 L1655,1935 L1662.5,1937.5 L1665,1942.5 L1665,1947.5 L1665,1955 L1665,1960 L1667.5,1965 L1670,1972.5 L1670,1977.5 L1670,1985 L1667.5,1990 L1665,1995 L1657.5,2002.5 L1652.5,2010 L1650,2020 L1645,2025 L1637.5,2030 L1635,2037.5 L1637.5,2045 L1642.5,2047.5 L1652.5,2052.5 L1655,2057.5 L1662.5,2060 L1667.5,2065 L1672.5,2072.5 L1677.5,2075 L1680,2080 L1685,2085 L1690,2090 L1695,2095 L1702.5,2102.5 L1705,2100 L1710,2095 L1710,2090 L1712.5,2085 L1715,2077.5 L1720,2067.5 L1725,2065 L1732.5,2060 L1732.5,2057.5 L1735,2050 L1735,2042.5 L1732.5,2037.5 L1732.5,2032.5 L1732.5,2025 L1735,2017.5 L1732.5,2012.5 L1735,2010 L1740,2007.5 L1742.5,2007.5 L1745,2002.5 L1745,2000 L1750,1997.5 L1755,1995 L1755,1992.5 L1760,1990 L1765,1990 L1767.5,1987.5 L1775,1987.5 L1775,1987.5 L1777.5,1985 L1785,1980 L1782.5,1977.5 L1782.5,1975 L1787.5,1972.5 L1795,1975 L1797.5,1975 L1800,1975 L1802.5,1972.5 L1807.5,1975 L1810,1975 L1815,1975 L1817.5,1975 L1817.5,1975 L1817.5,1972.5 L1820,1967.5 L1820,1965 L1822.5,1962.5 L1827.5,1962.5 L1832.5,1960 L1835,1955 L1832.5,1952.5 L1832.5,1950 L1832.5,1945 L1835,1942.5 L1837.5,1940 L1840,1937.5 L1840,1935 L1840,1930 L1845,1930 L1845,1925 L1847.5,1920 L1847.5,1920 L1847.5,1915 L1847.5,1912.5 L1847.5,1907.5 L1847.5,1902.5 L1850,1900 L1852.5,1897.5 L1852.5,1895 L1855,1887.5 L1855,1885 L1857.5,1877.5 L1857.5,1872.5 L1857.5,1870 L1857.5,1865 L1857.5,1862.5 L1857.5,1857.5 L1857.5,1852.5 L1857.5,1847.5 L1857.5,1842.5 L1857.5,1837.5 L1857.5,1835 L1857.5,1832.5 L1855,1827.5 L1857.5,1825 L1860,1820 L1860,1817.5 L1860,1815 L1860,1815 L1862.5,1815 L1865,1817.5 L1865,1817.5 L1870,1812.5 L1870,1807.5 L1872.5,1805 L1875,1800 L1877.5,1795 L1880,1792.5 L1880,1792.5 L1880,1787.5 L1882.5,1785 L1885,1782.5 L1890,1780 L1895,1775 L1895,1772.5 L1897.5,1767.5 L1900,1765 L1905,1760 L1905,1755 L1907.5,1750 L1910,1745 L1910,1742.5 L1910,1735 L1910,1730 L1910,1725 L1910,1720 L1907.5,1715 L1907.5,1707.5 L1907.5,1705 L1905,1700 L1902.5,1697.5 L1902.5,1697.5 L1897.5,1695 L1892.5,1695 L1885,1695 L1882.5,1692.5 L1875,1687.5 L1872.5,1685 L1867.5,1682.5 L1865,1677.5 L1862.5,1672.5 L1857.5,1670 L1855,1667.5 L1850,1665 L1847.5,1662.5 L1845,1662.5 L1837.5,1660 L1830,1660 L1822.5,1662.5 L1817.5,1660 L1815,1660 L1810,1660 L1807.5,1657.5 L1805,1655 L1800,1655 L1797.5,1655 L1792.5,1657.5 L1792.5,1660 L1790,1660 L1790,1657.5 L1790,1657.5 L1787.5,1660 L1785,1662.5 L1785,1662.5 L1785,1665 L1782.5,1660 L1782.5,1657.5 L1785,1655 L1787.5,1655 L1785,1652.5 L1782.5,1652.5 L1782.5,1652.5 L1785,1650 L1785,1647.5 L1785,1645 L1785,1645 L1782.5,1642.5 L1780,1640 L1777.5,1640 L1775,1642.5 L1775,1642.5 L1772.5,1637.5 L1767.5,1635 L1767.5,1635 L1762.5,1632.5 L1757.5,1632.5 L1752.5,1627.5 L1752.5,1627.5 L1750,1627.5 L1742.5,1627.5 L1742.5,1632.5 L1740,1632.5 L1735,1635 L1732.5,1637.5 L1725,1642.5 L1725,1645 L1722.5,1652.5 L1720,1657.5 L1720,1657.5 L1720,1650 L1720,1645 L1717.5,1645 L1715,1647.5 L1712.5,1647.5 L1705,1642.5 L1705,1642.5 L1712.5,1642.5 L1715,1642.5 L1717.5,1640 L1725,1640 L1727.5,1637.5 L1730,1632.5 L1732.5,1630 L1732.5,1625 L1735,1622.5 L1732.5,1622.5 L1727.5,1622.5 L1722.5,1620 L1715,1620 L1712.5,1620 L1710,1620 L1707.5,1620 L1705,1625 L1705,1630 L1705,1632.5 L1705,1635 L1702.5,1637.5 L1702.5,1632.5 L1695,1635 L1695,1637.5 L1692.5,1640 L1687.5,1642.5 L1685,1640 L1682.5,1637.5 L1682.5,1637.5 L1685,1637.5 L1687.5,1635 L1692.5,1632.5 L1692.5,1627.5 L1695,1625 L1695,1622.5 L1697.5,1620 L1700,1617.5 L1700,1617.5 L1702.5,1615 L1705,1612.5 L1705,1610 L1710,1607.5 L1712.5,1605 L1715,1602.5 L1715,1600 L1715,1595 L1715,1592.5 L1712.5,1590 L1707.5,1587.5 L1705,1585 L1705,1580 L1702.5,1572.5 L1702.5,1567.5Z"/>
</svg>