<?xml version="1.0" encoding="UTF-8"?>
<svg xmlns="http://www.w3.org/2000/svg" viewBox="792 1047 606 508.5" preserveAspectRatio="xMidYMid meet">
  <defs>
    <style>
      .territory {
        fill: #f4d03f;
        stroke: #333;
        stroke-width: 3;
        stroke-linejoin: round;
        stroke-linecap: round;
      }
    </style>
  </defs>
  <path id="central america" class="territory" d="M1097.5,1205 L1095,1202.5 L1092.5,1200 L1092.5,1195 L1090,1187.5 L1090,1182.5 L1092.5,1177.5 L1090,1172.5 L1090,1165 L1087.5,1157.5 L1085,1152.5 L1080,1147.5 L1075,1142.5 L1070,1140 L1065,1140 L1062.5,1145 L1057.5,1145 L1055,1147.5 L1050,1150 L1047.5,1152.5 L1042.5,1152.5 L1035,1150 L1032.5,1150 L1032.5,1145 L1030,1137.5 L1030,1132.5 L1027.5,1125 L1027.5,1120 L1027.5,1117.5 L1025,1115 L1020,1110 L1012.5,1110 L1010,1115 L1007.5,1120 L1000,1120 L997.5,1122.5 L987.5,1125 L982.5,1125 L977.5,1125 L967.5,1125 L962.5,1125 L957.5,1122.5 L952.5,1122.5 L947.5,1122.5 L940,1120 L935,1120 L930,1120 L927.5,1117.5 L920,1117.5 L917.5,1115 L915,1112.5 L912.5,1112.5 L910,1110 L907.5,1110 L905,1107.5 L902.5,1107.5 L897.5,1105 L890,1102.5 L885,1102.5 L880,1100 L877.5,1100 L872.5,1100 L867.5,1097.5 L867.5,1097.5 L865,1097.5 L860,1097.5 L855,1097.5 L852.5,1097.5 L847.5,1097.5 L845,1097.5 L842.5,1100 L842.5,1100 L842.5,1105 L842.5,1110 L845,1110 L845,1115 L847.5,1115 L847.5,1120 L850,1120 L852.5,1125 L852.5,1127.5 L852.5,1130 L855,1132.5 L855,1135 L857.5,1137.5 L860,1140 L860,1145 L862.5,1147.5 L862.5,1147.5 L862.5,1152.5 L862.5,1155 L865,1157.5 L870,1162.5 L872.5,1160 L875,1165 L877.5,1167.5 L880,1170 L882.5,1172.5 L885,1175 L885,1182.5 L882.5,1185 L880,1185 L875,1185 L872.5,1185 L872.5,1185 L877.5,1190 L880,1195 L882.5,1197.5 L887.5,1200 L890,1200 L892.5,1200 L895,1202.5 L900,1205 L900,1207.5 L905,1207.5 L905,1207.5 L907.5,1210 L910,1217.5 L910,1217.5 L910,1222.5 L910,1225 L910,1230 L910,1232.5 L910,1235 L912.5,1237.5 L915,1235 L917.5,1240 L922.5,1242.5 L925,1245 L927.5,1245 L932.5,1252.5 L935,1255 L935,1260 L937.5,1260 L940,1260 L942.5,1260 L942.5,1257.5 L945,1255 L945,1250 L942.5,1250 L942.5,1247.5 L940,1245 L940,1242.5 L937.5,1240 L935,1240 L932.5,1240 L932.5,1240 L930,1240 L930,1235 L930,1232.5 L927.5,1227.5 L927.5,1225 L927.5,1225 L925,1220 L922.5,1217.5 L922.5,1215 L920,1212.5 L920,1210 L917.5,1207.5 L917.5,1202.5 L917.5,1202.5 L915,1200 L915,1200 L915,1200 L915,1200 L912.5,1195 L912.5,1195 L910,1192.5 L907.5,1187.5 L907.5,1187.5 L902.5,1185 L902.5,1182.5 L900,1175 L900,1175 L897.5,1175 L897.5,1172.5 L897.5,1170 L895,1167.5 L892.5,1167.5 L892.5,1160 L890,1160 L890,1160 L885,1155 L885,1155 L882.5,1155 L880,1150 L880,1150 L877.5,1147.5 L877.5,1142.5 L875,1140 L877.5,1135 L875,1132.5 L875,1127.5 L875,1125 L872.5,1122.5 L877.5,1122.5 L880,1127.5 L882.5,1127.5 L885,1127.5 L890,1127.5 L890,1127.5 L892.5,1130 L895,1132.5 L897.5,1135 L900,1137.5 L897.5,1140 L900,1147.5 L902.5,1152.5 L905,1157.5 L907.5,1162.5 L912.5,1167.5 L912.5,1172.5 L917.5,1175 L922.5,1180 L925,1182.5 L925,1182.5 L930,1187.5 L930,1190 L930,1192.5 L932.5,1195 L937.5,1195 L937.5,1197.5 L942.5,1200 L942.5,1200 L947.5,1207.5 L947.5,1210 L945,1212.5 L945,1217.5 L947.5,1220 L950,1220 L957.5,1222.5 L957.5,1227.5 L962.5,1227.5 L965,1232.5 L962.5,1237.5 L965,1237.5 L967.5,1237.5 L972.5,1242.5 L972.5,1245 L977.5,1247.5 L980,1250 L985,1257.5 L985,1260 L987.5,1262.5 L992.5,1265 L995,1270 L995,1272.5 L995,1277.5 L995,1280 L997.5,1282.5 L997.5,1282.5 L1000,1287.5 L1000,1292.5 L1000,1292.5 L997.5,1300 L995,1300 L992.5,1300 L995,1305 L997.5,1307.5 L997.5,1310 L1000,1315 L1007.5,1317.5 L1012.5,1322.5 L1017.5,1327.5 L1017.5,1327.5 L1020,1332.5 L1027.5,1335 L1032.5,1337.5 L1037.5,1340 L1040,1340 L1040,1337.5 L1042.5,1340 L1045,1342.5 L1052.5,1347.5 L1062.5,1352.5 L1070,1355 L1072.5,1360 L1075,1360 L1080,1360 L1085,1362.5 L1087.5,1365 L1090,1367.5 L1097.5,1367.5 L1100,1370 L1102.5,1370 L1107.5,1370 L1107.5,1372.5 L1110,1372.5 L1120,1375 L1120,1372.5 L1122.5,1370 L1125,1370 L1130,1367.5 L1132.5,1365 L1132.5,1365 L1132.5,1362.5 L1135,1365 L1135,1365 L1137.5,1367.5 L1142.5,1365 L1147.5,1370 L1150,1372.5 L1152.5,1375 L1155,1380 L1157.5,1380 L1162.5,1385 L1162.5,1387.5 L1165,1390 L1167.5,1392.5 L1170,1395 L1175,1397.5 L1180,1400 L1182.5,1402.5 L1187.5,1400 L1192.5,1402.5 L1197.5,1405 L1202.5,1407.5 L1207.5,1410 L1210,1410 L1215,1412.5 L1222.5,1412.5 L1222.5,1412.5 L1225,1412.5 L1225,1407.5 L1227.5,1410 L1230,1412.5 L1230,1415 L1232.5,1417.5 L1227.5,1415 L1227.5,1417.5 L1227.5,1420 L1230,1420 L1232.5,1425 L1235,1425 L1240,1430 L1242.5,1435 L1245,1437.5 L1247.5,1440 L1250,1442.5 L1252.5,1447.5 L1250,1447.5 L1252.5,1450 L1252.5,1455 L1250,1457.5 L1250,1462.5 L1252.5,1462.5 L1260,1467.5 L1260,1467.5 L1262.5,1465 L1262.5,1462.5 L1260,1462.5 L1257.5,1460 L1260,1457.5 L1262.5,1460 L1265,1462.5 L1265,1467.5 L1267.5,1467.5 L1272.5,1470 L1277.5,1472.5 L1280,1477.5 L1277.5,1482.5 L1277.5,1482.5 L1277.5,1485 L1280,1485 L1282.5,1485 L1282.5,1485 L1285,1482.5 L1285,1485 L1287.5,1487.5 L1287.5,1490 L1290,1492.5 L1290,1490 L1290,1487.5 L1292.5,1490 L1295,1487.5 L1295,1487.5 L1297.5,1490 L1302.5,1490 L1305,1495 L1305,1495 L1310,1497.5 L1312.5,1495 L1312.5,1497.5 L1312.5,1500 L1315,1502.5 L1317.5,1505 L1320,1505 L1322.5,1502.5 L1325,1502.5 L1325,1500 L1325,1497.5 L1322.5,1495 L1322.5,1492.5 L1320,1490 L1320,1490 L1322.5,1490 L1322.5,1487.5 L1327.5,1487.5 L1327.5,1485 L1330,1482.5 L1330,1480 L1332.5,1480 L1332.5,1477.5 L1335,1477.5 L1337.5,1477.5 L1342.5,1480 L1345,1477.5 L1347.5,1472.5 L1342.5,1470 L1340,1470 L1337.5,1470 L1335,1467.5 L1335,1467.5 L1332.5,1467.5 L1330,1470 L1327.5,1472.5 L1325,1472.5 L1322.5,1475 L1322.5,1475 L1320,1475 L1315,1477.5 L1312.5,1480 L1310,1482.5 L1307.5,1480 L1305,1477.5 L1302.5,1477.5 L1297.5,1477.5 L1297.5,1477.5 L1297.5,1475 L1297.5,1472.5 L1295,1472.5 L1292.5,1467.5 L1290,1462.5 L1287.5,1462.5 L1285,1457.5 L1282.5,1455 L1282.5,1452.5 L1280,1450 L1280,1447.5 L1277.5,1445 L1277.5,1445 L1277.5,1440 L1280,1437.5 L1280,1437.5 L1277.5,1435 L1280,1427.5 L1277.5,1422.5 L1280,1425 L1280,1422.5 L1280,1417.5 L1280,1407.5 L1280,1405 L1282.5,1400 L1285,1397.5 L1285,1395 L1285,1390 L1282.5,1390 L1282.5,1387.5 L1285,1387.5 L1285,1385 L1282.5,1382.5 L1282.5,1380 L1277.5,1377.5 L1272.5,1380 L1272.5,1377.5 L1272.5,1377.5 L1275,1375 L1275,1375 L1270,1372.5 L1270,1370 L1267.5,1370 L1265,1370 L1262.5,1367.5 L1260,1367.5 L1257.5,1367.5 L1252.5,1370 L1250,1370 L1250,1370 L1245,1370 L1240,1370 L1240,1370 L1232.5,1370 L1232.5,1370 L1230,1370 L1227.5,1370 L1225,1370 L1220,1370 L1220,1372.5 L1217.5,1372.5 L1215,1370 L1215,1372.5 L1212.5,1370 L1212.5,1367.5 L1212.5,1365 L1215,1360 L1220,1355 L1220,1355 L1220,1347.5 L1220,1345 L1220,1342.5 L1220,1340 L1220,1337.5 L1220,1332.5 L1217.5,1332.5 L1220,1330 L1220,1327.5 L1222.5,1327.5 L1222.5,1330 L1225,1332.5 L1225,1327.5 L1227.5,1325 L1227.5,1325 L1227.5,1320 L1227.5,1315 L1227.5,1312.5 L1230,1310 L1230,1307.5 L1230,1302.5 L1235,1297.5 L1237.5,1292.5 L1237.5,1287.5 L1237.5,1285 L1235,1282.5 L1232.5,1282.5 L1230,1282.5 L1227.5,1282.5 L1222.5,1280 L1217.5,1282.5 L1215,1282.5 L1210,1282.5 L1207.5,1285 L1200,1285 L1192.5,1287.5 L1192.5,1290 L1190,1292.5 L1190,1297.5 L1190,1305 L1190,1307.5 L1187.5,1310 L1187.5,1312.5 L1187.5,1315 L1182.5,1320 L1180,1322.5 L1177.5,1325 L1177.5,1327.5 L1177.5,1327.5 L1172.5,1330 L1172.5,1327.5 L1170,1325 L1167.5,1325 L1162.5,1327.5 L1157.5,1330 L1155,1330 L1152.5,1330 L1147.5,1330 L1147.5,1332.5 L1140,1335 L1135,1332.5 L1132.5,1327.5 L1125,1327.5 L1122.5,1325 L1120,1322.5 L1117.5,1317.5 L1115,1312.5 L1112.5,1310 L1110,1305 L1107.5,1300 L1105,1297.5 L1102.5,1295 L1100,1287.5 L1100,1285 L1100,1280 L1097.5,1277.5 L1097.5,1272.5 L1097.5,1270 L1097.5,1265 L1095,1265 L1097.5,1260 L1097.5,1255 L1097.5,1252.5 L1095,1250 L1095,1245 L1097.5,1240 L1097.5,1237.5 L1097.5,1232.5 L1095,1227.5 L1097.5,1225 L1100,1222.5 L1102.5,1222.5 L1105,1217.5 L1105,1217.5 L1102.5,1212.5 L1102.5,1210 L1100,1205Z"/>
</svg>