<?xml version="1.0" encoding="UTF-8"?>
<svg xmlns="http://www.w3.org/2000/svg" viewBox="3303.75 748.75 705 612.5" preserveAspectRatio="xMidYMid meet">
  <defs>
    <style>
      .territory {
        fill: #f4d03f;
        stroke: #333;
        stroke-width: 3;
        stroke-linejoin: round;
        stroke-linecap: round;
      }
    </style>
  </defs>
  <path id="china" class="territory" d="M3617.5,1165 L3617.5,1157.5 L3612.5,1150 L3607.5,1145 L3597.5,1140 L3592.5,1137.5 L3585,1137.5 L3575,1142.5 L3567.5,1147.5 L3560,1150 L3547.5,1152.5 L3542.5,1150 L3537.5,1142.5 L3532.5,1140 L3520,1140 L3507.5,1140 L3502.5,1142.5 L3490,1142.5 L3480,1142.5 L3470,1140 L3460,1135 L3452.5,1127.5 L3447.5,1122.5 L3442.5,1120 L3437.5,1115 L3427.5,1110 L3430,1097.5 L3437.5,1087.5 L3442.5,1080 L3442.5,1072.5 L3437.5,1067.5 L3432.5,1065 L3427.5,1062.5 L3417.5,1057.5 L3412.5,1052.5 L3402.5,1047.5 L3397.5,1042.5 L3387.5,1040 L3382.5,1035 L3377.5,1025 L3372.5,1017.5 L3370,1012.5 L3367.5,1002.5 L3362.5,992.5 L3365,985 L3372.5,980 L3380,980 L3382.5,982.5 L3390,977.5 L3392.5,975 L3395,972.5 L3405,967.5 L3407.5,965 L3415,960 L3417.5,955 L3425,945 L3430,940 L3437.5,927.5 L3440,920 L3440,910 L3437.5,902.5 L3432.5,897.5 L3427.5,897.5 L3417.5,887.5 L3417.5,880 L3420,870 L3422.5,865 L3425,860 L3430,855 L3435,850 L3437.5,845 L3442.5,840 L3445,832.5 L3447.5,832.5 L3455,837.5 L3462.5,835 L3465,830 L3470,825 L3467.5,820 L3467.5,812.5 L3465,807.5 L3472.5,807.5 L3477.5,810 L3490,810 L3497.5,810 L3505,812.5 L3510,820 L3517.5,830 L3522.5,840 L3525,850 L3532.5,855 L3542.5,860 L3552.5,862.5 L3562.5,862.5 L3570,862.5 L3585,865 L3590,872.5 L3597.5,877.5 L3605,882.5 L3612.5,885 L3625,892.5 L3635,895 L3645,902.5 L3650,905 L3660,907.5 L3665,907.5 L3670,915 L3675,920 L3677.5,925 L3685,925 L3690,927.5 L3697.5,927.5 L3700,932.5 L3697.5,940 L3692.5,942.5 L3690,947.5 L3687.5,952.5 L3697.5,957.5 L3707.5,957.5 L3715,955 L3720,957.5 L3722.5,965 L3725,972.5 L3727.5,967.5 L3730,960 L3732.5,955 L3740,950 L3745,945 L3750,942.5 L3765,942.5 L3777.5,945 L3785,947.5 L3792.5,950 L3797.5,950 L3800,945 L3805,935 L3807.5,932.5 L3810,932.5 L3820,935 L3825,932.5 L3827.5,927.5 L3832.5,925 L3837.5,925 L3837.5,922.5 L3842.5,915 L3842.5,907.5 L3845,907.5 L3852.5,907.5 L3860,912.5 L3867.5,920 L3875,925 L3880,930 L3890,937.5 L3900,942.5 L3905,947.5 L3912.5,955 L3915,967.5 L3920,975 L3925,980 L3927.5,985 L3922.5,987.5 L3920,992.5 L3912.5,997.5 L3907.5,997.5 L3907.5,1002.5 L3902.5,1007.5 L3900,1007.5 L3895,1010 L3887.5,1010 L3885,1015 L3885,1020 L3892.5,1025 L3900,1025 L3902.5,1030 L3902.5,1035 L3907.5,1040 L3915,1035 L3917.5,1035 L3922.5,1030 L3930,1032.5 L3937.5,1035 L3942.5,1035 L3950,1035 L3950,1040 L3945,1042.5 L3942.5,1045 L3937.5,1045 L3930,1050 L3925,1052.5 L3922.5,1057.5 L3917.5,1062.5 L3912.5,1065 L3910,1067.5 L3907.5,1072.5 L3905,1077.5 L3912.5,1080 L3915,1082.5 L3917.5,1087.5 L3920,1090 L3922.5,1097.5 L3925,1102.5 L3927.5,1107.5 L3932.5,1115 L3935,1117.5 L3937.5,1120 L3937.5,1125 L3935,1125 L3932.5,1122.5 L3927.5,1125 L3932.5,1130 L3937.5,1132.5 L3937.5,1140 L3932.5,1142.5 L3930,1142.5 L3930,1147.5 L3932.5,1150 L3937.5,1152.5 L3940,1155 L3940,1160 L3937.5,1165 L3935,1170 L3935,1175 L3932.5,1177.5 L3930,1180 L3927.5,1182.5 L3925,1185 L3922.5,1192.5 L3917.5,1200 L3912.5,1210 L3910,1217.5 L3907.5,1222.5 L3905,1227.5 L3900,1232.5 L3897.5,1235 L3892.5,1242.5 L3885,1247.5 L3880,1250 L3875,1252.5 L3870,1257.5 L3870,1260 L3862.5,1265 L3852.5,1267.5 L3845,1270 L3840,1270 L3837.5,1267.5 L3835,1267.5 L3832.5,1265 L3832.5,1260 L3830,1262.5 L3830,1267.5 L3827.5,1272.5 L3820,1277.5 L3812.5,1280 L3810,1280 L3802.5,1282.5 L3795,1282.5 L3792.5,1285 L3787.5,1287.5 L3787.5,1290 L3790,1297.5 L3792.5,1300 L3787.5,1302.5 L3785,1302.5 L3785,1300 L3785,1300 L3782.5,1297.5 L3782.5,1292.5 L3782.5,1287.5 L3782.5,1285 L3780,1282.5 L3775,1282.5 L3772.5,1280 L3765,1280 L3757.5,1282.5 L3750,1287.5 L3750,1280 L3747.5,1270 L3745,1262.5 L3730,1257.5 L3717.5,1257.5 L3697.5,1260 L3690,1262.5 L3682.5,1265 L3677.5,1277.5 L3675,1282.5 L3662.5,1285 L3655,1282.5 L3650,1275 L3647.5,1270 L3645,1262.5 L3640,1255 L3640,1247.5 L3635,1240 L3632.5,1232.5 L3630,1227.5 L3625,1222.5 L3622.5,1215 L3622.5,1207.5 L3625,1200 L3630,1192.5 L3632.5,1182.5 L3630,1170 L3622.5,1165Z"/>
</svg>