<?xml version="1.0" encoding="UTF-8"?>
<svg xmlns="http://www.w3.org/2000/svg" viewBox="2436.25 1426.25 362.5 465" preserveAspectRatio="xMidYMid meet">
  <defs>
    <style>
      .territory {
        fill: #f4d03f;
        stroke: #333;
        stroke-width: 3;
        stroke-linejoin: round;
        stroke-linecap: round;
      }
    </style>
  </defs>
  <path id="congo" class="territory" d="M2490,1580 L2497.5,1580 L2502.5,1580 L2507.5,1577.5 L2515,1577.5 L2522.5,1580 L2527.5,1580 L2532.5,1580 L2540,1580 L2547.5,1577.5 L2555,1577.5 L2565,1577.5 L2570,1575 L2572.5,1575 L2577.5,1570 L2577.5,1567.5 L2575,1562.5 L2570,1560 L2565,1555 L2560,1547.5 L2557.5,1540 L2555,1535 L2555,1525 L2557.5,1520 L2562.5,1517.5 L2570,1517.5 L2577.5,1517.5 L2585,1517.5 L2592.5,1512.5 L2597.5,1510 L2602.5,1505 L2605,1502.5 L2607.5,1500 L2612.5,1495 L2617.5,1492.5 L2622.5,1487.5 L2625,1487.5 L2630,1482.5 L2635,1480 L2642.5,1475 L2647.5,1472.5 L2650,1470 L2660,1465 L2660,1465 L2662.5,1465 L2665,1470 L2667.5,1475 L2667.5,1480 L2667.5,1485 L2667.5,1487.5 L2667.5,1492.5 L2667.5,1500 L2670,1502.5 L2672.5,1507.5 L2675,1512.5 L2677.5,1515 L2682.5,1515 L2685,1517.5 L2690,1520 L2692.5,1520 L2697.5,1527.5 L2700,1532.5 L2705,1537.5 L2707.5,1540 L2715,1540 L2725,1540 L2730,1542.5 L2735,1542.5 L2745,1545 L2747.5,1547.5 L2752.5,1550 L2757.5,1552.5 L2757.5,1557.5 L2760,1565 L2757.5,1570 L2755,1575 L2755,1577.5 L2752.5,1580 L2752.5,1585 L2750,1587.5 L2747.5,1590 L2742.5,1595 L2737.5,1600 L2730,1605 L2725,1610 L2720,1615 L2715,1620 L2712.5,1625 L2712.5,1630 L2712.5,1637.5 L2712.5,1645 L2712.5,1652.5 L2715,1657.5 L2717.5,1660 L2722.5,1662.5 L2727.5,1667.5 L2732.5,1672.5 L2735,1677.5 L2737.5,1685 L2737.5,1690 L2737.5,1695 L2737.5,1702.5 L2740,1707.5 L2740,1717.5 L2742.5,1720 L2745,1727.5 L2747.5,1732.5 L2750,1737.5 L2752.5,1742.5 L2752.5,1747.5 L2752.5,1752.5 L2752.5,1757.5 L2752.5,1762.5 L2745,1762.5 L2740,1765 L2735,1767.5 L2732.5,1770 L2727.5,1772.5 L2722.5,1780 L2722.5,1785 L2722.5,1795 L2722.5,1802.5 L2727.5,1807.5 L2730,1815 L2735,1822.5 L2735,1827.5 L2737.5,1830 L2742.5,1835 L2745,1837.5 L2747.5,1840 L2750,1845 L2750,1847.5 L2745,1850 L2737.5,1852.5 L2732.5,1852.5 L2730,1847.5 L2727.5,1842.5 L2720,1837.5 L2715,1832.5 L2710,1827.5 L2702.5,1825 L2695,1822.5 L2682.5,1820 L2675,1820 L2665,1820 L2660,1817.5 L2655,1815 L2652.5,1810 L2650,1802.5 L2647.5,1792.5 L2647.5,1787.5 L2647.5,1780 L2652.5,1775 L2652.5,1770 L2652.5,1765 L2652.5,1762.5 L2647.5,1757.5 L2645,1757.5 L2640,1752.5 L2635,1752.5 L2630,1757.5 L2622.5,1760 L2617.5,1762.5 L2612.5,1765 L2610,1762.5 L2605,1757.5 L2602.5,1750 L2600,1747.5 L2597.5,1747.5 L2595,1745 L2587.5,1745 L2577.5,1745 L2572.5,1745 L2565,1745 L2557.5,1745 L2550,1745 L2545,1742.5 L2540,1742.5 L2535,1745 L2530,1737.5 L2527.5,1735 L2527.5,1730 L2527.5,1725 L2525,1722.5 L2522.5,1720 L2522.5,1712.5 L2522.5,1710 L2520,1707.5 L2517.5,1705 L2517.5,1702.5 L2520,1700 L2517.5,1695 L2515,1692.5 L2512.5,1687.5 L2510,1682.5 L2505,1680 L2505,1677.5 L2502.5,1675 L2500,1670 L2495,1665 L2492.5,1662.5 L2490,1660 L2487.5,1655 L2485,1650 L2480,1642.5 L2482.5,1642.5 L2485,1640 L2480,1637.5 L2475,1630 L2477.5,1627.5 L2477.5,1627.5 L2480,1625 L2480,1622.5 L2482.5,1620 L2482.5,1615 L2482.5,1612.5 L2485,1615 L2485,1612.5 L2482.5,1610 L2482.5,1607.5 L2482.5,1607.5 L2485,1607.5 L2485,1602.5 L2487.5,1600 L2487.5,1600 L2485,1597.5 L2482.5,1597.5 L2485,1592.5 L2487.5,1590 L2487.5,1587.5 L2487.5,1585Z"/>
</svg>