<?xml version="1.0" encoding="UTF-8"?>
<svg xmlns="http://www.w3.org/2000/svg" viewBox="2559.5 1184.5 526 726" preserveAspectRatio="xMidYMid meet">
  <defs>
    <style>
      .territory {
        fill: #f4d03f;
        stroke: #333;
        stroke-width: 3;
        stroke-linejoin: round;
        stroke-linecap: round;
      }
    </style>
  </defs>
  <path id="east africa" class="territory" d="M2822.5,1245 L2817.5,1245 L2812.5,1252.5 L2810,1255 L2802.5,1257.5 L2800,1260 L2792.5,1262.5 L2785,1262.5 L2777.5,1262.5 L2767.5,1262.5 L2757.5,1265 L2747.5,1265 L2732.5,1265 L2722.5,1265 L2712.5,1265 L2702.5,1265 L2695,1265 L2687.5,1265 L2682.5,1265 L2680,1267.5 L2677.5,1272.5 L2672.5,1275 L2670,1280 L2665,1285 L2660,1285 L2657.5,1287.5 L2652.5,1287.5 L2650,1287.5 L2650,1287.5 L2647.5,1295 L2645,1302.5 L2645,1305 L2642.5,1312.5 L2642.5,1317.5 L2642.5,1325 L2642.5,1330 L2642.5,1335 L2640,1337.5 L2637.5,1340 L2635,1342.5 L2630,1345 L2630,1347.5 L2622.5,1350 L2620,1357.5 L2620,1362.5 L2620,1370 L2627.5,1377.5 L2627.5,1382.5 L2627.5,1390 L2630,1397.5 L2632.5,1402.5 L2635,1410 L2640,1415 L2642.5,1420 L2647.5,1425 L2652.5,1430 L2652.5,1435 L2652.5,1440 L2652.5,1445 L2657.5,1452.5 L2660,1460 L2660,1465 L2662.5,1465 L2665,1470 L2667.5,1475 L2667.5,1480 L2667.5,1485 L2667.5,1487.5 L2667.5,1492.5 L2667.5,1500 L2670,1502.5 L2672.5,1507.5 L2675,1512.5 L2677.5,1515 L2682.5,1515 L2685,1517.5 L2690,1520 L2692.5,1520 L2697.5,1527.5 L2700,1532.5 L2705,1537.5 L2707.5,1540 L2715,1540 L2725,1540 L2730,1542.5 L2735,1542.5 L2745,1545 L2747.5,1547.5 L2752.5,1550 L2757.5,1552.5 L2757.5,1557.5 L2760,1565 L2757.5,1570 L2755,1575 L2755,1577.5 L2752.5,1580 L2752.5,1585 L2750,1587.5 L2747.5,1590 L2742.5,1595 L2737.5,1600 L2730,1605 L2725,1610 L2720,1615 L2715,1620 L2712.5,1625 L2712.5,1630 L2712.5,1637.5 L2712.5,1645 L2712.5,1652.5 L2715,1657.5 L2717.5,1660 L2722.5,1662.5 L2727.5,1667.5 L2732.5,1672.5 L2735,1677.5 L2737.5,1685 L2737.5,1690 L2737.5,1695 L2737.5,1702.5 L2740,1707.5 L2740,1717.5 L2742.5,1720 L2745,1727.5 L2747.5,1732.5 L2750,1737.5 L2752.5,1742.5 L2752.5,1747.5 L2752.5,1752.5 L2752.5,1757.5 L2752.5,1762.5 L2757.5,1765 L2762.5,1765 L2767.5,1765 L2772.5,1767.5 L2775,1770 L2780,1777.5 L2782.5,1782.5 L2785,1790 L2787.5,1795 L2790,1800 L2790,1807.5 L2790,1815 L2790,1822.5 L2792.5,1830 L2795,1837.5 L2795,1842.5 L2797.5,1845 L2802.5,1850 L2810,1850 L2817.5,1850 L2822.5,1850 L2825,1847.5 L2830,1842.5 L2830,1840 L2832.5,1832.5 L2835,1827.5 L2837.5,1825 L2842.5,1822.5 L2847.5,1822.5 L2852.5,1820 L2860,1820 L2867.5,1817.5 L2875,1817.5 L2880,1817.5 L2885,1817.5 L2885,1810 L2887.5,1805 L2885,1802.5 L2885,1797.5 L2887.5,1792.5 L2887.5,1787.5 L2887.5,1780 L2885,1777.5 L2880,1775 L2875,1772.5 L2875,1767.5 L2875,1765 L2875,1762.5 L2872.5,1757.5 L2870,1750 L2870,1747.5 L2872.5,1742.5 L2872.5,1740 L2870,1735 L2870,1730 L2872.5,1727.5 L2872.5,1725 L2870,1722.5 L2867.5,1720 L2865,1715 L2862.5,1712.5 L2865,1707.5 L2867.5,1702.5 L2867.5,1697.5 L2867.5,1695 L2870,1692.5 L2872.5,1690 L2875,1685 L2875,1682.5 L2877.5,1677.5 L2877.5,1675 L2877.5,1672.5 L2880,1670 L2882.5,1667.5 L2880,1662.5 L2882.5,1660 L2885,1657.5 L2887.5,1657.5 L2887.5,1655 L2890,1650 L2892.5,1647.5 L2892.5,1647.5 L2897.5,1647.5 L2897.5,1642.5 L2900,1637.5 L2902.5,1635 L2905,1632.5 L2912.5,1622.5 L2915,1617.5 L2922.5,1610 L2925,1607.5 L2927.5,1605 L2932.5,1600 L2935,1597.5 L2940,1592.5 L2942.5,1587.5 L2952.5,1585 L2957.5,1580 L2962.5,1577.5 L2967.5,1567.5 L2972.5,1565 L2977.5,1557.5 L2980,1550 L2985,1545 L2987.5,1540 L2990,1535 L2995,1527.5 L2997.5,1522.5 L3000,1512.5 L3002.5,1507.5 L3005,1502.5 L3007.5,1495 L3010,1487.5 L3012.5,1482.5 L3015,1480 L3017.5,1472.5 L3020,1467.5 L3020,1465 L3020,1460 L3022.5,1455 L3022.5,1455 L3025,1452.5 L3025,1450 L3022.5,1445 L3025,1440 L3025,1435 L3022.5,1432.5 L3022.5,1432.5 L3022.5,1430 L3020,1430 L3017.5,1430 L3015,1435 L3012.5,1437.5 L3007.5,1437.5 L3002.5,1440 L2995,1442.5 L2992.5,1442.5 L2990,1440 L2985,1440 L2982.5,1445 L2980,1445 L2972.5,1442.5 L2972.5,1442.5 L2967.5,1445 L2962.5,1450 L2957.5,1450 L2952.5,1447.5 L2947.5,1450 L2942.5,1455 L2937.5,1455 L2930,1452.5 L2927.5,1447.5 L2922.5,1440 L2922.5,1437.5 L2920,1437.5 L2915,1437.5 L2915,1437.5 L2917.5,1430 L2920,1430 L2922.5,1430 L2922.5,1427.5 L2922.5,1422.5 L2920,1420 L2917.5,1417.5 L2915,1415 L2912.5,1412.5 L2912.5,1410 L2907.5,1407.5 L2907.5,1402.5 L2905,1402.5 L2902.5,1400 L2897.5,1395 L2897.5,1392.5 L2892.5,1387.5 L2892.5,1387.5 L2890,1387.5 L2885,1385 L2885,1385 L2882.5,1382.5 L2882.5,1382.5 L2880,1377.5 L2880,1377.5 L2877.5,1377.5 L2877.5,1377.5 L2877.5,1380 L2872.5,1377.5 L2870,1370 L2867.5,1365 L2867.5,1357.5 L2867.5,1352.5 L2865,1345 L2862.5,1342.5 L2862.5,1337.5 L2857.5,1332.5 L2855,1330 L2850,1327.5 L2847.5,1325 L2847.5,1325 L2845,1320 L2845,1312.5 L2845,1310 L2842.5,1302.5 L2840,1297.5 L2840,1287.5 L2842.5,1287.5 L2840,1277.5 L2837.5,1275 L2835,1270 L2832.5,1267.5 L2830,1265 L2827.5,1262.5 L2827.5,1262.5 L2825,1260 L2822.5,1257.5 L2822.5,1252.5 L2820,1247.5Z"/>
</svg>