<?xml version="1.0" encoding="UTF-8"?>
<svg xmlns="http://www.w3.org/2000/svg" viewBox="841.5 829 672 454.5" preserveAspectRatio="xMidYMid meet">
  <defs>
    <style>
      .territory {
        fill: #f4d03f;
        stroke: #333;
        stroke-width: 3;
        stroke-linejoin: round;
        stroke-linecap: round;
      }
    </style>
  </defs>
  <path id="eastern united states" class="territory" d="M1077.5,887.5 L1085,887.5 L1092.5,887.5 L1097.5,887.5 L1105,887.5 L1115,887.5 L1122.5,887.5 L1127.5,885 L1140,885 L1147.5,885 L1155,885 L1160,885 L1167.5,885 L1177.5,885 L1175,887.5 L1170,890 L1170,892.5 L1177.5,892.5 L1180,890 L1185,887.5 L1187.5,892.5 L1187.5,892.5 L1195,892.5 L1197.5,892.5 L1200,890 L1202.5,890 L1207.5,890 L1212.5,885 L1217.5,887.5 L1217.5,890 L1222.5,887.5 L1225,890 L1227.5,892.5 L1232.5,892.5 L1240,895 L1245,892.5 L1245,892.5 L1247.5,890 L1252.5,892.5 L1257.5,892.5 L1257.5,890 L1262.5,892.5 L1262.5,895 L1267.5,895 L1270,897.5 L1270,897.5 L1275,902.5 L1272.5,902.5 L1272.5,902.5 L1265,902.5 L1262.5,905 L1260,902.5 L1260,902.5 L1257.5,900 L1252.5,900 L1250,902.5 L1247.5,905 L1245,905 L1242.5,907.5 L1242.5,907.5 L1237.5,907.5 L1235,905 L1232.5,907.5 L1230,912.5 L1227.5,917.5 L1225,917.5 L1225,922.5 L1225,922.5 L1227.5,922.5 L1230,920 L1230,925 L1227.5,935 L1227.5,937.5 L1225,945 L1225,947.5 L1225,950 L1225,955 L1227.5,955 L1227.5,957.5 L1227.5,965 L1230,967.5 L1232.5,970 L1237.5,970 L1240,965 L1240,962.5 L1242.5,960 L1245,957.5 L1245,952.5 L1245,950 L1245,945 L1242.5,940 L1242.5,935 L1245,927.5 L1245,925 L1245,922.5 L1252.5,917.5 L1252.5,915 L1255,915 L1255,920 L1257.5,917.5 L1257.5,915 L1257.5,912.5 L1260,910 L1260,910 L1260,907.5 L1265,905 L1267.5,907.5 L1272.5,910 L1275,910 L1277.5,912.5 L1282.5,915 L1282.5,922.5 L1282.5,925 L1282.5,930 L1280,932.5 L1277.5,935 L1275,937.5 L1275,937.5 L1280,940 L1282.5,937.5 L1285,935 L1287.5,932.5 L1290,935 L1292.5,940 L1292.5,945 L1292.5,950 L1290,950 L1290,952.5 L1287.5,960 L1285,962.5 L1285,965 L1282.5,967.5 L1282.5,967.5 L1282.5,972.5 L1287.5,970 L1290,972.5 L1292.5,972.5 L1300,972.5 L1302.5,972.5 L1307.5,970 L1310,970 L1312.5,967.5 L1317.5,967.5 L1320,965 L1325,962.5 L1330,960 L1332.5,957.5 L1335,957.5 L1337.5,955 L1340,952.5 L1340,950 L1340,950 L1337.5,950 L1337.5,950 L1335,952.5 L1335,950 L1330,950 L1330,950 L1332.5,947.5 L1332.5,947.5 L1335,947.5 L1337.5,945 L1337.5,945 L1342.5,942.5 L1345,942.5 L1350,942.5 L1352.5,945 L1357.5,945 L1360,945 L1367.5,945 L1370,942.5 L1370,942.5 L1372.5,940 L1375,940 L1377.5,935 L1377.5,930 L1380,930 L1382.5,927.5 L1385,925 L1387.5,925 L1387.5,925 L1392.5,925 L1397.5,925 L1402.5,922.5 L1410,920 L1415,920 L1420,917.5 L1427.5,915 L1432.5,915 L1437.5,915 L1442.5,912.5 L1450,915 L1452.5,920 L1452.5,925 L1452.5,930 L1452.5,935 L1452.5,937.5 L1452.5,940 L1450,945 L1450,945 L1447.5,950 L1445,952.5 L1445,955 L1445,957.5 L1445,960 L1445,962.5 L1447.5,965 L1450,970 L1452.5,967.5 L1455,965 L1455,965 L1455,965 L1457.5,967.5 L1455,970 L1452.5,972.5 L1447.5,972.5 L1447.5,972.5 L1445,970 L1445,970 L1442.5,972.5 L1440,975 L1440,970 L1440,970 L1440,970 L1440,970 L1437.5,972.5 L1437.5,975 L1432.5,975 L1425,975 L1420,977.5 L1417.5,977.5 L1412.5,980 L1410,980 L1410,980 L1420,980 L1425,977.5 L1427.5,977.5 L1430,980 L1422.5,982.5 L1412.5,985 L1407.5,987.5 L1405,985 L1402.5,985 L1402.5,990 L1405,992.5 L1405,997.5 L1402.5,1000 L1400,1005 L1400,1005 L1395,1010 L1395,1010 L1392.5,1010 L1390,1010 L1387.5,1007.5 L1385,1005 L1385,1005 L1385,1005 L1385,1010 L1387.5,1012.5 L1387.5,1015 L1390,1017.5 L1390,1020 L1387.5,1025 L1385,1027.5 L1382.5,1032.5 L1380,1035 L1380,1040 L1377.5,1037.5 L1380,1035 L1380,1032.5 L1380,1027.5 L1380,1025 L1377.5,1022.5 L1375,1022.5 L1375,1020 L1375,1017.5 L1375,1015 L1375,1012.5 L1375,1010 L1375,1007.5 L1377.5,1005 L1380,1002.5 L1375,1005 L1372.5,1007.5 L1370,1012.5 L1372.5,1015 L1372.5,1017.5 L1370,1022.5 L1370,1025 L1372.5,1025 L1372.5,1025 L1375,1030 L1375,1032.5 L1372.5,1032.5 L1372.5,1032.5 L1375,1035 L1370,1037.5 L1372.5,1040 L1372.5,1042.5 L1372.5,1042.5 L1377.5,1042.5 L1377.5,1045 L1380,1050 L1380,1055 L1382.5,1057.5 L1377.5,1055 L1375,1055 L1375,1057.5 L1377.5,1060 L1380,1060 L1382.5,1062.5 L1380,1065 L1377.5,1070 L1375,1070 L1372.5,1067.5 L1372.5,1067.5 L1370,1067.5 L1370,1072.5 L1370,1072.5 L1372.5,1072.5 L1372.5,1072.5 L1372.5,1075 L1372.5,1077.5 L1367.5,1077.5 L1362.5,1080 L1360,1080 L1357.5,1082.5 L1355,1087.5 L1355,1090 L1352.5,1090 L1350,1090 L1345,1090 L1342.5,1092.5 L1337.5,1097.5 L1335,1100 L1332.5,1105 L1330,1110 L1325,1110 L1320,1115 L1317.5,1117.5 L1317.5,1112.5 L1315,1112.5 L1315,1117.5 L1312.5,1120 L1310,1125 L1310,1130 L1307.5,1135 L1307.5,1137.5 L1307.5,1142.5 L1307.5,1147.5 L1310,1155 L1312.5,1160 L1315,1162.5 L1315,1165 L1317.5,1170 L1317.5,1175 L1317.5,1177.5 L1320,1185 L1322.5,1190 L1325,1195 L1325,1200 L1327.5,1202.5 L1325,1210 L1325,1215 L1322.5,1220 L1320,1225 L1317.5,1225 L1312.5,1227.5 L1312.5,1225 L1312.5,1222.5 L1310,1220 L1307.5,1215 L1305,1215 L1302.5,1212.5 L1302.5,1210 L1300,1205 L1295,1202.5 L1295,1200 L1292.5,1195 L1290,1190 L1290,1185 L1290,1180 L1290,1175 L1292.5,1170 L1292.5,1165 L1287.5,1165 L1285,1162.5 L1282.5,1160 L1280,1157.5 L1280,1155 L1277.5,1152.5 L1275,1150 L1272.5,1150 L1272.5,1150 L1267.5,1150 L1265,1152.5 L1262.5,1155 L1260,1155 L1252.5,1155 L1252.5,1152.5 L1250,1147.5 L1250,1147.5 L1247.5,1147.5 L1245,1145 L1242.5,1145 L1237.5,1145 L1232.5,1145 L1230,1147.5 L1225,1147.5 L1225,1145 L1225,1145 L1222.5,1142.5 L1222.5,1142.5 L1222.5,1145 L1217.5,1145 L1212.5,1145 L1207.5,1145 L1202.5,1147.5 L1202.5,1147.5 L1200,1150 L1197.5,1147.5 L1195,1145 L1192.5,1145 L1192.5,1147.5 L1192.5,1147.5 L1197.5,1152.5 L1197.5,1152.5 L1200,1152.5 L1202.5,1152.5 L1202.5,1155 L1202.5,1157.5 L1205,1160 L1207.5,1162.5 L1207.5,1165 L1207.5,1167.5 L1202.5,1165 L1195,1162.5 L1195,1160 L1195,1162.5 L1192.5,1165 L1190,1162.5 L1187.5,1165 L1187.5,1165 L1182.5,1162.5 L1182.5,1162.5 L1182.5,1162.5 L1180,1160 L1175,1157.5 L1172.5,1152.5 L1170,1155 L1165,1160 L1160,1157.5 L1157.5,1155 L1155,1155 L1145,1155 L1140,1157.5 L1137.5,1160 L1132.5,1155 L1132.5,1160 L1132.5,1165 L1127.5,1170 L1122.5,1172.5 L1120,1172.5 L1115,1172.5 L1115,1172.5 L1115,1175 L1110,1175 L1107.5,1180 L1107.5,1182.5 L1105,1182.5 L1102.5,1185 L1102.5,1187.5 L1102.5,1192.5 L1100,1195 L1100,1202.5 L1100,1205 L1097.5,1205 L1095,1202.5 L1092.5,1200 L1092.5,1195 L1090,1187.5 L1090,1182.5 L1092.5,1177.5 L1090,1172.5 L1090,1165 L1087.5,1157.5 L1085,1152.5 L1080,1147.5 L1075,1142.5 L1070,1140 L1065,1140 L1062.5,1145 L1057.5,1145 L1055,1147.5 L1050,1150 L1047.5,1152.5 L1042.5,1152.5 L1035,1150 L1032.5,1150 L1032.5,1145 L1030,1137.5 L1030,1132.5 L1027.5,1125 L1027.5,1120 L1027.5,1117.5 L1025,1115 L1020,1110 L1012.5,1110 L1010,1115 L1007.5,1120 L1000,1120 L997.5,1122.5 L987.5,1125 L982.5,1125 L977.5,1125 L967.5,1125 L962.5,1125 L957.5,1122.5 L952.5,1122.5 L947.5,1122.5 L940,1120 L935,1120 L930,1120 L927.5,1117.5 L920,1117.5 L917.5,1115 L915,1112.5 L912.5,1112.5 L910,1110 L907.5,1110 L905,1107.5 L902.5,1107.5 L897.5,1105 L905,1105 L907.5,1105 L912.5,1105 L920,1105 L922.5,1105 L930,1105 L937.5,1105 L940,1105 L945,1105 L955,1105 L957.5,1105 L965,1105 L970,1105 L975,1105 L980,1105 L982.5,1105 L985,1102.5 L985,1102.5 L987.5,1100 L987.5,1095 L987.5,1090 L987.5,1082.5 L990,1075 L992.5,1067.5 L995,1060 L997.5,1055 L1000,1050 L1002.5,1047.5 L1002.5,1045 L1012.5,1045 L1022.5,1045 L1032.5,1042.5 L1045,1042.5 L1050,1042.5 L1057.5,1042.5 L1070,1042.5 L1077.5,1042.5 L1087.5,1042.5 L1090,1042.5 L1100,1040 L1102.5,1027.5 L1105,1022.5 L1105,1012.5 L1102.5,1007.5 L1100,1000 L1095,997.5 L1090,992.5 L1085,985 L1082.5,982.5 L1082.5,980 L1080,977.5 L1077.5,975 L1075,970 L1072.5,965 L1072.5,957.5 L1075,952.5 L1075,947.5 L1077.5,942.5 L1077.5,940 L1080,932.5 L1080,930 L1080,920 L1080,915 L1080,910 L1077.5,902.5 L1075,897.5 L1075,892.5Z"/>
</svg>