<?xml version="1.0" encoding="UTF-8"?>
<svg xmlns="http://www.w3.org/2000/svg" viewBox="4048.75 1876.25 560 645" preserveAspectRatio="xMidYMid meet">
  <defs>
    <style>
      .territory {
        fill: #f4d03f;
        stroke: #333;
        stroke-width: 3;
        stroke-linejoin: round;
        stroke-linecap: round;
      }
    </style>
  </defs>
  <path id="eastern australia" class="territory" d="M4165,2015 L4165,2007.5 L4172.5,2010 L4172.5,2007.5 L4175,2007.5 L4172.5,2005 L4172.5,2000 L4170,2000 L4167.5,1997.5 L4170,1992.5 L4172.5,1992.5 L4175,1977.5 L4180,1980 L4180,1975 L4180,1972.5 L4182.5,1970 L4185,1967.5 L4187.5,1965 L4187.5,1960 L4192.5,1965 L4192.5,1960 L4195,1957.5 L4197.5,1955 L4200,1957.5 L4212.5,1957.5 L4217.5,1957.5 L4222.5,1955 L4220,1950 L4217.5,1942.5 L4210,1942.5 L4207.5,1940 L4210,1937.5 L4212.5,1937.5 L4215,1935 L4220,1937.5 L4222.5,1942.5 L4225,1942.5 L4227.5,1945 L4232.5,1947.5 L4235,1950 L4242.5,1952.5 L4242.5,1952.5 L4252.5,1952.5 L4257.5,1955 L4262.5,1957.5 L4270,1950 L4270,1955 L4272.5,1957.5 L4272.5,1957.5 L4275,1962.5 L4280,1960 L4277.5,1957.5 L4277.5,1952.5 L4282.5,1950 L4282.5,1955 L4287.5,1957.5 L4287.5,1960 L4282.5,1965 L4285,1967.5 L4282.5,1975 L4277.5,1975 L4275,1977.5 L4272.5,1980 L4270,1982.5 L4272.5,1985 L4275,1985 L4272.5,1992.5 L4267.5,2000 L4265,2005 L4267.5,2012.5 L4272.5,2015 L4282.5,2025 L4292.5,2027.5 L4300,2032.5 L4305,2040 L4317.5,2045 L4322.5,2050 L4325,2055 L4337.5,2062.5 L4347.5,2057.5 L4352.5,2047.5 L4357.5,2032.5 L4360,2017.5 L4362.5,2005 L4362.5,1995 L4360,1987.5 L4365,1967.5 L4370,1967.5 L4365,1962.5 L4365,1957.5 L4367.5,1952.5 L4372.5,1937.5 L4372.5,1932.5 L4377.5,1930 L4377.5,1932.5 L4382.5,1935 L4382.5,1947.5 L4387.5,1952.5 L4387.5,1960 L4390,1965 L4392.5,1975 L4395,1990 L4397.5,1997.5 L4402.5,1997.5 L4407.5,1995 L4412.5,2002.5 L4420,2007.5 L4422.5,2015 L4422.5,2020 L4422.5,2030 L4422.5,2040 L4430,2045 L4432.5,2055 L4435,2060 L4432.5,2067.5 L4432.5,2072.5 L4437.5,2072.5 L4437.5,2075 L4437.5,2082.5 L4440,2087.5 L4447.5,2092.5 L4452.5,2095 L4457.5,2097.5 L4460,2100 L4465,2102.5 L4465,2102.5 L4472.5,2107.5 L4477.5,2112.5 L4475,2115 L4477.5,2122.5 L4482.5,2125 L4485,2132.5 L4487.5,2140 L4490,2147.5 L4495,2152.5 L4495,2150 L4505,2155 L4505,2150 L4510,2157.5 L4510,2170 L4512.5,2172.5 L4517.5,2177.5 L4517.5,2180 L4522.5,2182.5 L4525,2185 L4530,2192.5 L4535,2200 L4540,2205 L4542.5,2212.5 L4542.5,2205 L4550,2197.5 L4550,2202.5 L4545,2215 L4545,2222.5 L4545,2232.5 L4545,2245 L4550,2252.5 L4552.5,2267.5 L4555,2275 L4550,2285 L4547.5,2302.5 L4545,2310 L4545,2320 L4542.5,2332.5 L4537.5,2337.5 L4537.5,2345 L4525,2355 L4520,2365 L4517.5,2365 L4517.5,2370 L4510,2387.5 L4510,2392.5 L4510,2395 L4507.5,2397.5 L4505,2397.5 L4497.5,2412.5 L4500,2417.5 L4495,2432.5 L4497.5,2435 L4495,2440 L4490,2445 L4477.5,2445 L4470,2447.5 L4460,2450 L4445,2462.5 L4440,2462.5 L4435,2462.5 L4437.5,2465 L4432.5,2467.5 L4430,2462.5 L4425,2460 L4425,2455 L4422.5,2452.5 L4417.5,2457.5 L4412.5,2455 L4417.5,2455 L4417.5,2452.5 L4417.5,2447.5 L4412.5,2450 L4410,2450 L4407.5,2452.5 L4410,2455 L4405,2457.5 L4400,2462.5 L4392.5,2465 L4382.5,2460 L4375,2457.5 L4365,2455 L4362.5,2457.5 L4357.5,2457.5 L4355,2452.5 L4347.5,2450 L4340,2442.5 L4332.5,2437.5 L4332.5,2430 L4335,2425 L4332.5,2417.5 L4327.5,2410 L4322.5,2407.5 L4325,2402.5 L4327.5,2400 L4322.5,2397.5 L4315,2402.5 L4312.5,2405 L4307.5,2402.5 L4307.5,2400 L4312.5,2397.5 L4312.5,2392.5 L4312.5,2390 L4310,2382.5 L4307.5,2380 L4305,2380 L4302.5,2385 L4302.5,2390 L4302.5,2395 L4300,2397.5 L4295,2395 L4292.5,2397.5 L4290,2397.5 L4287.5,2397.5 L4287.5,2390 L4297.5,2390 L4297.5,2382.5 L4297.5,2377.5 L4297.5,2372.5 L4302.5,2367.5 L4305,2365 L4302.5,2357.5 L4305,2357.5 L4302.5,2347.5 L4302.5,2352.5 L4295,2357.5 L4292.5,2367.5 L4285,2370 L4280,2375 L4275,2382.5 L4270,2385 L4272.5,2392.5 L4267.5,2392.5 L4260,2385 L4265,2380 L4267.5,2375 L4272.5,2365 L4277.5,2347.5 L4290,2307.5 L4290,2297.5 L4307.5,2257.5 L4307.5,2250 L4320,2220 L4320,2212.5 L4335,2182.5 L4337.5,2175 L4335,2170 L4327.5,2167.5 L4107.5,2167.5 L4102.5,2165 L4102.5,2160 L4107.5,2152.5 L4145,2067.5Z"/>
</svg>