<?xml version="1.0" encoding="UTF-8"?>
<svg xmlns="http://www.w3.org/2000/svg" viewBox="2423.75 1053.75 435 270" preserveAspectRatio="xMidYMid meet">
  <defs>
    <style>
      .territory {
        fill: #f4d03f;
        stroke: #333;
        stroke-width: 3;
        stroke-linejoin: round;
        stroke-linecap: round;
      }
    </style>
  </defs>
  <path id="egypt" class="territory" d="M2490,1090 L2490,1092.5 L2487.5,1097.5 L2485,1102.5 L2485,1105 L2485,1110 L2485,1115 L2485,1120 L2482.5,1122.5 L2477.5,1125 L2475,1130 L2475,1132.5 L2475,1137.5 L2472.5,1142.5 L2472.5,1145 L2470,1150 L2467.5,1157.5 L2467.5,1162.5 L2467.5,1167.5 L2465,1172.5 L2460,1177.5 L2460,1182.5 L2460,1187.5 L2462.5,1192.5 L2465,1195 L2467.5,1197.5 L2475,1202.5 L2485,1205 L2490,1207.5 L2492.5,1210 L2500,1212.5 L2502.5,1212.5 L2510,1212.5 L2515,1210 L2520,1210 L2525,1210 L2530,1207.5 L2535,1207.5 L2542.5,1212.5 L2550,1215 L2552.5,1220 L2557.5,1225 L2562.5,1230 L2567.5,1232.5 L2572.5,1235 L2577.5,1237.5 L2582.5,1240 L2587.5,1245 L2590,1245 L2595,1247.5 L2595,1250 L2600,1257.5 L2607.5,1262.5 L2610,1265 L2615,1267.5 L2620,1270 L2625,1275 L2627.5,1277.5 L2635,1280 L2637.5,1282.5 L2645,1285 L2650,1287.5 L2652.5,1287.5 L2657.5,1287.5 L2660,1285 L2665,1285 L2670,1280 L2672.5,1275 L2677.5,1272.5 L2680,1267.5 L2682.5,1265 L2687.5,1265 L2695,1265 L2702.5,1265 L2712.5,1265 L2722.5,1265 L2732.5,1265 L2747.5,1265 L2757.5,1265 L2767.5,1262.5 L2777.5,1262.5 L2785,1262.5 L2792.5,1262.5 L2800,1260 L2802.5,1257.5 L2810,1255 L2812.5,1252.5 L2817.5,1245 L2822.5,1245 L2817.5,1237.5 L2817.5,1235 L2815,1232.5 L2815,1230 L2812.5,1225 L2812.5,1222.5 L2810,1220 L2807.5,1215 L2805,1210 L2805,1207.5 L2802.5,1205 L2802.5,1202.5 L2802.5,1197.5 L2800,1195 L2797.5,1192.5 L2795,1190 L2795,1185 L2792.5,1182.5 L2790,1180 L2787.5,1175 L2785,1172.5 L2785,1170 L2785,1165 L2785,1162.5 L2782.5,1160 L2782.5,1157.5 L2782.5,1155 L2782.5,1152.5 L2785,1155 L2787.5,1160 L2790,1165 L2792.5,1165 L2792.5,1170 L2792.5,1172.5 L2792.5,1175 L2795,1177.5 L2797.5,1177.5 L2800,1182.5 L2802.5,1185 L2805,1185 L2807.5,1182.5 L2807.5,1180 L2807.5,1177.5 L2807.5,1175 L2810,1172.5 L2810,1170 L2810,1167.5 L2810,1165 L2812.5,1160 L2812.5,1160 L2812.5,1157.5 L2815,1155 L2815,1150 L2815,1150 L2815,1147.5 L2815,1142.5 L2812.5,1140 L2812.5,1137.5 L2810,1137.5 L2810,1135 L2805,1132.5 L2802.5,1132.5 L2800,1132.5 L2795,1135 L2790,1132.5 L2787.5,1135 L2780,1132.5 L2780,1130 L2777.5,1132.5 L2772.5,1130 L2775,1130 L2770,1127.5 L2767.5,1127.5 L2765,1125 L2762.5,1130 L2760,1130 L2757.5,1130 L2757.5,1130 L2752.5,1132.5 L2750,1132.5 L2747.5,1135 L2745,1137.5 L2740,1137.5 L2737.5,1137.5 L2732.5,1135 L2730,1135 L2725,1135 L2717.5,1132.5 L2715,1130 L2710,1130 L2710,1127.5 L2707.5,1127.5 L2702.5,1125 L2697.5,1125 L2697.5,1127.5 L2695,1127.5 L2692.5,1127.5 L2690,1127.5 L2687.5,1127.5 L2685,1122.5 L2685,1120 L2680,1120 L2675,1120 L2672.5,1120 L2670,1117.5 L2667.5,1117.5 L2665,1117.5 L2662.5,1117.5 L2660,1115 L2660,1112.5 L2657.5,1110 L2652.5,1107.5 L2650,1107.5 L2645,1107.5 L2642.5,1107.5 L2637.5,1107.5 L2635,1110 L2630,1112.5 L2625,1112.5 L2622.5,1117.5 L2620,1120 L2620,1122.5 L2620,1125 L2620,1127.5 L2622.5,1132.5 L2622.5,1135 L2620,1140 L2615,1142.5 L2610,1145 L2607.5,1147.5 L2597.5,1140 L2595,1137.5 L2587.5,1135 L2585,1132.5 L2580,1132.5 L2577.5,1132.5 L2572.5,1132.5 L2570,1132.5 L2567.5,1130 L2565,1130 L2562.5,1125 L2560,1122.5 L2560,1120 L2560,1117.5 L2557.5,1115 L2557.5,1112.5 L2555,1115 L2550,1112.5 L2545,1110 L2542.5,1107.5 L2537.5,1107.5 L2537.5,1107.5 L2532.5,1105 L2532.5,1105 L2530,1107.5 L2525,1107.5 L2520,1107.5 L2517.5,1105 L2512.5,1102.5 L2510,1102.5 L2507.5,1102.5 L2505,1100 L2505,1097.5 L2505,1097.5 L2505,1095 L2502.5,1097.5 L2500,1095 L2500,1095 L2497.5,1095 L2495,1092.5 L2492.5,1090Z"/>
</svg>