<?xml version="1.0" encoding="UTF-8"?>
<svg xmlns="http://www.w3.org/2000/svg" viewBox="2105.75 570.75 321 283.5" preserveAspectRatio="xMidYMid meet">
  <defs>
    <style>
      .territory {
        fill: #f4d03f;
        stroke: #333;
        stroke-width: 3;
        stroke-linejoin: round;
        stroke-linecap: round;
      }
    </style>
  </defs>
  <path id="great britain" class="territory" d="M2137.5,717.5 L2137.5,717.5 L2137.5,715 L2140,715 L2140,715 L2142.5,715 L2145,715 L2145,712.5 L2147.5,712.5 L2150,712.5 L2155,712.5 L2155,715 L2157.5,715 L2160,715 L2162.5,715 L2165,715 L2167.5,715 L2172.5,715 L2170,715 L2170,712.5 L2172.5,710 L2172.5,710 L2175,707.5 L2177.5,707.5 L2172.5,705 L2170,705 L2167.5,705 L2167.5,705 L2167.5,702.5 L2167.5,700 L2170,700 L2172.5,700 L2172.5,697.5 L2172.5,697.5 L2172.5,692.5 L2175,692.5 L2177.5,692.5 L2177.5,692.5 L2180,690 L2180,690 L2182.5,690 L2185,690 L2185,690 L2187.5,690 L2190,687.5 L2192.5,690 L2192.5,692.5 L2195,692.5 L2197.5,692.5 L2195,692.5 L2195,690 L2195,687.5 L2197.5,685 L2200,685 L2202.5,685 L2205,687.5 L2207.5,687.5 L2205,690 L2207.5,690 L2212.5,690 L2215,690 L2217.5,690 L2220,690 L2222.5,690 L2225,690 L2225,690 L2227.5,690 L2230,692.5 L2232.5,695 L2232.5,697.5 L2235,700 L2232.5,700 L2232.5,702.5 L2232.5,702.5 L2235,702.5 L2237.5,705 L2240,705 L2240,707.5 L2237.5,710 L2237.5,712.5 L2235,715 L2232.5,717.5 L2232.5,717.5 L2230,720 L2230,720 L2227.5,720 L2227.5,720 L2225,720 L2222.5,720 L2222.5,722.5 L2222.5,725 L2225,727.5 L2222.5,730 L2227.5,732.5 L2227.5,735 L2227.5,737.5 L2227.5,745 L2227.5,747.5 L2227.5,752.5 L2225,755 L2225,760 L2222.5,762.5 L2222.5,765 L2220,767.5 L2217.5,767.5 L2215,770 L2212.5,770 L2210,770 L2207.5,772.5 L2207.5,772.5 L2205,770 L2202.5,767.5 L2200,770 L2197.5,772.5 L2195,772.5 L2192.5,772.5 L2190,775 L2187.5,777.5 L2185,777.5 L2182.5,777.5 L2182.5,780 L2180,780 L2180,777.5 L2177.5,780 L2175,782.5 L2172.5,782.5 L2170,785 L2170,785 L2167.5,785 L2165,785 L2160,787.5 L2155,787.5 L2155,787.5 L2152.5,787.5 L2150,787.5 L2147.5,787.5 L2147.5,785 L2147.5,785 L2142.5,785 L2142.5,785 L2140,785 L2142.5,782.5 L2142.5,780 L2137.5,780 L2135,780 L2135,780 L2132.5,777.5 L2135,777.5 L2137.5,775 L2142.5,775 L2142.5,772.5 L2140,772.5 L2132.5,770 L2132.5,770 L2132.5,767.5 L2137.5,767.5 L2140,767.5 L2142.5,767.5 L2145,767.5 L2142.5,767.5 L2140,765 L2145,762.5 L2145,762.5 L2147.5,760 L2147.5,760 L2145,760 L2145,757.5 L2147.5,755 L2150,755 L2150,752.5 L2152.5,750 L2152.5,747.5 L2155,745 L2157.5,745 L2160,745 L2160,742.5 L2157.5,742.5 L2157.5,742.5 L2155,740 L2152.5,742.5 L2152.5,742.5 L2150,740 L2150,740 L2147.5,740 L2145,740 L2142.5,740 L2142.5,737.5 L2142.5,737.5 L2140,737.5 L2137.5,737.5 L2137.5,735 L2137.5,732.5 L2140,732.5 L2145,730 L2145,727.5 L2147.5,727.5 L2147.5,727.5 L2145,725 L2145,725 L2142.5,725 L2142.5,725 L2142.5,722.5 L2145,720 L2142.5,720 L2142.5,717.5 L2142.5,717.5 L2140,717.5 L2140,715 L2140,717.5 Z M2212.5,630 L2212.5,630 L2215,627.5 L2217.5,627.5 L2220,627.5 L2222.5,627.5 L2222.5,625 L2220,622.5 L2225,622.5 L2225,627.5 L2227.5,630 L2227.5,632.5 L2227.5,632.5 L2227.5,635 L2230,635 L2232.5,635 L2235,635 L2235,635 L2237.5,632.5 L2237.5,632.5 L2237.5,632.5 L2237.5,630 L2235,630 L2232.5,630 L2232.5,630 L2232.5,627.5 L2235,627.5 L2235,625 L2235,622.5 L2232.5,622.5 L2235,620 L2237.5,617.5 L2240,617.5 L2242.5,617.5 L2242.5,617.5 L2245,617.5 L2245,615 L2242.5,612.5 L2242.5,610 L2242.5,610 L2242.5,610 L2245,610 L2247.5,607.5 L2250,605 L2250,602.5 L2250,600 L2250,597.5 L2252.5,600 L2255,600 L2257.5,600 L2260,602.5 L2262.5,602.5 L2267.5,600 L2270,600 L2275,600 L2280,600 L2282.5,600 L2287.5,597.5 L2290,597.5 L2292.5,597.5 L2292.5,600 L2292.5,602.5 L2292.5,605 L2290,605 L2285,607.5 L2282.5,610 L2280,612.5 L2277.5,615 L2275,615 L2272.5,617.5 L2272.5,617.5 L2275,617.5 L2277.5,617.5 L2277.5,620 L2275,622.5 L2272.5,622.5 L2267.5,622.5 L2270,625 L2272.5,627.5 L2275,625 L2277.5,625 L2280,625 L2280,625 L2282.5,625 L2285,625 L2287.5,622.5 L2290,622.5 L2295,622.5 L2300,622.5 L2302.5,625 L2305,625 L2310,625 L2315,625 L2317.5,625 L2320,627.5 L2322.5,627.5 L2320,632.5 L2317.5,635 L2317.5,637.5 L2315,640 L2315,645 L2312.5,645 L2307.5,650 L2305,652.5 L2302.5,655 L2300,655 L2297.5,655 L2302.5,657.5 L2302.5,660 L2302.5,662.5 L2300,665 L2297.5,665 L2292.5,665 L2290,665 L2287.5,667.5 L2285,667.5 L2285,667.5 L2292.5,667.5 L2297.5,670 L2297.5,670 L2300,667.5 L2300,665 L2302.5,667.5 L2305,670 L2310,670 L2312.5,670 L2315,672.5 L2317.5,675 L2320,675 L2322.5,677.5 L2325,680 L2325,682.5 L2327.5,685 L2327.5,690 L2330,692.5 L2332.5,697.5 L2332.5,700 L2335,702.5 L2337.5,705 L2340,705 L2342.5,705 L2345,710 L2350,710 L2350,710 L2355,712.5 L2357.5,715 L2360,717.5 L2360,720 L2357.5,720 L2357.5,720 L2360,725 L2360,725 L2362.5,727.5 L2365,730 L2362.5,732.5 L2360,730 L2357.5,730 L2355,730 L2355,732.5 L2357.5,732.5 L2362.5,735 L2365,737.5 L2367.5,740 L2370,742.5 L2367.5,745 L2367.5,747.5 L2365,750 L2365,752.5 L2367.5,752.5 L2370,752.5 L2372.5,750 L2372.5,750 L2375,750 L2375,747.5 L2382.5,747.5 L2385,750 L2385,750 L2390,750 L2390,750 L2395,752.5 L2397.5,752.5 L2397.5,755 L2400,760 L2400,762.5 L2397.5,767.5 L2395,772.5 L2395,775 L2395,775 L2392.5,777.5 L2390,777.5 L2387.5,777.5 L2387.5,777.5 L2387.5,780 L2382.5,780 L2380,782.5 L2380,787.5 L2377.5,787.5 L2375,790 L2375,790 L2377.5,790 L2380,790 L2387.5,792.5 L2387.5,792.5 L2392.5,792.5 L2392.5,790 L2392.5,792.5 L2392.5,795 L2390,797.5 L2387.5,800 L2387.5,800 L2385,800 L2385,802.5 L2382.5,802.5 L2377.5,802.5 L2375,802.5 L2372.5,805 L2370,805 L2367.5,807.5 L2367.5,807.5 L2362.5,805 L2360,805 L2357.5,805 L2355,805 L2352.5,805 L2347.5,807.5 L2345,807.5 L2342.5,807.5 L2342.5,805 L2340,805 L2340,805 L2337.5,807.5 L2337.5,807.5 L2337.5,810 L2337.5,810 L2332.5,810 L2330,812.5 L2332.5,810 L2332.5,807.5 L2332.5,807.5 L2332.5,805 L2330,805 L2330,807.5 L2327.5,807.5 L2325,807.5 L2325,807.5 L2322.5,807.5 L2320,807.5 L2317.5,810 L2315,812.5 L2312.5,812.5 L2312.5,810 L2307.5,812.5 L2305,812.5 L2305,812.5 L2305,810 L2300,810 L2297.5,807.5 L2297.5,807.5 L2295,810 L2292.5,810 L2287.5,812.5 L2285,812.5 L2285,815 L2282.5,820 L2280,822.5 L2277.5,822.5 L2275,822.5 L2272.5,820 L2270,820 L2267.5,817.5 L2265,817.5 L2260,817.5 L2257.5,820 L2255,820 L2252.5,822.5 L2247.5,825 L2247.5,827.5 L2245,827.5 L2242.5,827.5 L2242.5,825 L2237.5,825 L2237.5,825 L2240,822.5 L2242.5,820 L2242.5,820 L2247.5,817.5 L2250,815 L2250,815 L2252.5,812.5 L2257.5,812.5 L2257.5,810 L2260,810 L2262.5,802.5 L2262.5,800 L2267.5,800 L2267.5,800 L2267.5,797.5 L2270,795 L2275,795 L2280,795 L2285,795 L2285,795 L2290,795 L2290,795 L2292.5,795 L2295,792.5 L2297.5,790 L2300,790 L2302.5,787.5 L2305,785 L2305,782.5 L2305,785 L2302.5,785 L2297.5,785 L2295,787.5 L2292.5,787.5 L2290,790 L2290,790 L2285,790 L2282.5,790 L2282.5,790 L2280,787.5 L2280,787.5 L2277.5,785 L2277.5,785 L2275,785 L2272.5,785 L2270,787.5 L2267.5,787.5 L2265,785 L2267.5,785 L2267.5,782.5 L2265,782.5 L2262.5,782.5 L2262.5,782.5 L2262.5,782.5 L2260,780 L2255,782.5 L2252.5,785 L2250,782.5 L2250,782.5 L2247.5,780 L2247.5,777.5 L2247.5,775 L2250,775 L2255,772.5 L2260,772.5 L2262.5,770 L2267.5,767.5 L2270,765 L2272.5,762.5 L2272.5,760 L2275,757.5 L2275,757.5 L2272.5,755 L2270,752.5 L2267.5,752.5 L2267.5,752.5 L2265,752.5 L2262.5,752.5 L2260,752.5 L2257.5,752.5 L2257.5,752.5 L2257.5,752.5 L2257.5,750 L2257.5,750 L2260,750 L2262.5,747.5 L2265,747.5 L2265,745 L2262.5,742.5 L2260,740 L2260,737.5 L2262.5,737.5 L2262.5,735 L2270,737.5 L2270,737.5 L2272.5,740 L2275,740 L2275,740 L2277.5,737.5 L2280,740 L2282.5,740 L2285,740 L2287.5,737.5 L2290,737.5 L2292.5,740 L2292.5,737.5 L2292.5,735 L2295,735 L2295,735 L2295,732.5 L2295,730 L2295,727.5 L2295,725 L2295,725 L2295,722.5 L2297.5,722.5 L2297.5,720 L2297.5,717.5 L2295,717.5 L2295,717.5 L2292.5,720 L2290,720 L2290,717.5 L2292.5,717.5 L2290,715 L2287.5,715 L2287.5,715 L2285,715 L2285,715 L2282.5,712.5 L2282.5,710 L2282.5,710 L2282.5,707.5 L2282.5,705 L2285,702.5 L2285,700 L2287.5,700 L2287.5,697.5 L2287.5,695 L2287.5,695 L2282.5,697.5 L2282.5,697.5 L2280,697.5 L2277.5,697.5 L2275,700 L2272.5,700 L2270,700 L2267.5,700 L2265,697.5 L2265,700 L2265,702.5 L2267.5,702.5 L2265,705 L2262.5,702.5 L2260,700 L2257.5,700 L2255,700 L2255,700 L2252.5,700 L2252.5,700 L2255,702.5 L2252.5,702.5 L2252.5,702.5 L2247.5,700 L2247.5,697.5 L2247.5,695 L2250,692.5 L2250,692.5 L2252.5,690 L2252.5,687.5 L2255,685 L2255,685 L2257.5,682.5 L2255,680 L2255,677.5 L2255,675 L2255,675 L2255,672.5 L2257.5,672.5 L2257.5,670 L2255,667.5 L2255,665 L2252.5,665 L2252.5,667.5 L2250,670 L2247.5,670 L2245,667.5 L2245,667.5 L2245,665 L2245,667.5 L2242.5,667.5 L2240,670 L2242.5,672.5 L2245,672.5 L2245,675 L2247.5,677.5 L2247.5,680 L2247.5,682.5 L2245,682.5 L2242.5,682.5 L2242.5,680 L2242.5,677.5 L2240,675 L2240,680 L2240,680 L2240,685 L2237.5,687.5 L2235,687.5 L2232.5,685 L2232.5,682.5 L2235,680 L2237.5,675 L2237.5,675 L2237.5,672.5 L2235,670 L2237.5,667.5 L2237.5,665 L2237.5,662.5 L2237.5,660 L2240,657.5 L2242.5,655 L2247.5,652.5 L2247.5,650 L2245,647.5 L2242.5,650 L2240,650 L2237.5,652.5 L2235,655 L2235,657.5 L2232.5,657.5 L2230,660 L2227.5,660 L2225,660 L2222.5,660 L2225,660 L2225,657.5 L2225,657.5 L2225,657.5 L2225,655 L2222.5,652.5 L2220,652.5 L2220,652.5 L2220,650 L2225,650 L2227.5,652.5 L2232.5,652.5 L2232.5,652.5 L2230,650 L2222.5,650 L2220,647.5 L2225,647.5 L2227.5,647.5 L2230,647.5 L2232.5,647.5 L2232.5,647.5 L2232.5,642.5 L2232.5,642.5 L2232.5,642.5 L2235,640 L2235,640 L2232.5,640 L2230,640 L2230,637.5 L2227.5,637.5 L2225,640 L2225,637.5 L2222.5,637.5 L2220,637.5 L2220,635 L2217.5,635 L2217.5,632.5 L2217.5,630 L2215,632.5Z"/>
</svg>