<?xml version="1.0" encoding="UTF-8"?>
<svg xmlns="http://www.w3.org/2000/svg" viewBox="1421.5 228 732 509.5" preserveAspectRatio="xMidYMid meet">
  <defs>
    <style>
      .territory {
        fill: #f4d03f;
        stroke: #333;
        stroke-width: 3;
        stroke-linejoin: round;
        stroke-linecap: round;
      }
    </style>
  </defs>
  <path id="greenland" class="territory" d="M1482.5,374.0 L1490,371.5 L1497.5,371.5 L1510,369.0 L1515,369.0 L1525,361.5 L1545,361.5 L1552.5,364.0 L1560,359.0 L1557.5,351.5 L1555,349.0 L1550,349.0 L1542.5,349.0 L1535,346.5 L1535,341.5 L1540,341.5 L1547.5,336.5 L1555,336.5 L1562.5,336.5 L1562.5,334.0 L1572.5,329.0 L1592.5,326.5 L1592.5,326.5 L1597.5,326.5 L1600,326.5 L1600,324.0 L1597.5,319.0 L1602.5,319.0 L1615,316.5 L1615,316.5 L1630,311.5 L1645,311.5 L1657.5,311.5 L1667.5,309.0 L1672.5,311.5 L1677.5,316.5 L1677.5,319.0 L1677.5,319.0 L1685,319.0 L1680,316.5 L1682.5,311.5 L1695,309.0 L1695,311.5 L1707.5,316.5 L1710,316.5 L1710,316.5 L1705,311.5 L1705,309.0 L1712.5,309.0 L1722.5,306.5 L1732.5,306.5 L1735,311.5 L1737.5,309.0 L1742.5,306.5 L1755,304.0 L1747.5,299.0 L1752.5,299.0 L1760,299.0 L1780,294.0 L1792.5,294.0 L1805,299.0 L1812.5,299.0 L1822.5,299.0 L1827.5,296.5 L1827.5,294.0 L1835,291.5 L1845,291.5 L1860,289.0 L1867.5,289.0 L1882.5,289.0 L1895,289.0 L1912.5,291.5 L1930,291.5 L1940,291.5 L1952.5,296.5 L1965,296.5 L1967.5,299.0 L1972.5,304.0 L1987.5,304.0 L2000,304.0 L2000,306.5 L1992.5,311.5 L1997.5,319.0 L1997.5,321.5 L1995,326.5 L1992.5,331.5 L2000,324.0 L2007.5,324.0 L2020,321.5 L2020,321.5 L2022.5,324.0 L2030,326.5 L2037.5,324.0 L2042.5,319.0 L2045,319.0 L2052.5,314.0 L2060,316.5 L2065,316.5 L2072.5,316.5 L2080,316.5 L2090,321.5 L2092.5,324.0 L2092.5,326.5 L2077.5,334.0 L2070,336.5 L2062.5,341.5 L2057.5,344.0 L2055,346.5 L2045,354.0 L2040,356.5 L2037.5,356.5 L2030,356.5 L2022.5,356.5 L2020,359.0 L2022.5,359.0 L2022.5,361.5 L2017.5,369.0 L2015,369.0 L2007.5,371.5 L2007.5,376.5 L2002.5,384.0 L2010,384.0 L2012.5,381.5 L2017.5,381.5 L2022.5,384.0 L2030,386.5 L2030,391.5 L2035,396.5 L2035,401.5 L2025,404.0 L2020,399.0 L2010,399.0 L2007.5,401.5 L2005,404.0 L2000,406.5 L1995,401.5 L2000,406.5 L2007.5,411.5 L2017.5,409.0 L2022.5,409.0 L2022.5,416.5 L2022.5,421.5 L2022.5,429.0 L2020,431.5 L2017.5,426.5 L2010,429.0 L2010,434.0 L2022.5,434.0 L2030,436.5 L2025,444.0 L2022.5,446.5 L2015,446.5 L2015,449.0 L2012.5,456.5 L2007.5,459.0 L2000,459.0 L1997.5,461.5 L1997.5,469.0 L1997.5,474.0 L1997.5,484.0 L1997.5,489.0 L1997.5,491.5 L1997.5,499.0 L2000,501.5 L2000,506.5 L1980,519.0 L1977.5,521.5 L1970,526.5 L1965,531.5 L1955,534.0 L1947.5,536.5 L1937.5,539.0 L1927.5,541.5 L1915,541.5 L1907.5,546.5 L1897.5,544.0 L1892.5,541.5 L1892.5,539.0 L1892.5,544.0 L1890,549.0 L1885,551.5 L1880,556.5 L1880,561.5 L1877.5,566.5 L1872.5,571.5 L1865,574.0 L1855,576.5 L1847.5,579.0 L1840,584.0 L1837.5,584.0 L1837.5,584.0 L1835,581.5 L1830,584.0 L1820,584.0 L1812.5,584.0 L1812.5,589.0 L1815,591.5 L1815,594.0 L1805,591.5 L1805,594.0 L1810,599.0 L1810,604.0 L1802.5,606.5 L1805,611.5 L1805,614.0 L1795,624.0 L1795,626.5 L1790,629.0 L1790,631.5 L1790,634.0 L1792.5,644.0 L1792.5,649.0 L1787.5,659.0 L1782.5,666.5 L1780,669.0 L1777.5,676.5 L1775,676.5 L1772.5,676.5 L1770,676.5 L1765,676.5 L1765,674.0 L1765,674.0 L1760,671.5 L1755,666.5 L1752.5,666.5 L1752.5,659.0 L1750,659.0 L1745,661.5 L1742.5,664.0 L1732.5,664.0 L1732.5,664.0 L1727.5,654.0 L1725,651.5 L1717.5,641.5 L1715,636.5 L1710,631.5 L1705,624.0 L1702.5,621.5 L1700,614.0 L1697.5,611.5 L1700,606.5 L1705,604.0 L1702.5,599.0 L1700,599.0 L1695,604.0 L1690,604.0 L1690,596.5 L1687.5,589.0 L1685,584.0 L1682.5,581.5 L1680,579.0 L1675,571.5 L1680,566.5 L1677.5,559.0 L1675,551.5 L1675,546.5 L1682.5,541.5 L1685,539.0 L1690,531.5 L1692.5,534.0 L1697.5,534.0 L1700,534.0 L1700,531.5 L1700,524.0 L1700,521.5 L1697.5,516.5 L1695,516.5 L1690,514.0 L1687.5,519.0 L1682.5,521.5 L1680,524.0 L1672.5,524.0 L1670,521.5 L1665,516.5 L1665,514.0 L1665,511.5 L1672.5,506.5 L1665,501.5 L1665,499.0 L1675,499.0 L1680,499.0 L1690,499.0 L1692.5,499.0 L1702.5,504.0 L1702.5,506.5 L1700,499.0 L1695,496.5 L1687.5,491.5 L1685,489.0 L1680,484.0 L1677.5,489.0 L1675,489.0 L1672.5,489.0 L1665,491.5 L1657.5,491.5 L1650,486.5 L1655,484.0 L1655,476.5 L1662.5,471.5 L1660,469.0 L1655,466.5 L1652.5,459.0 L1650,454.0 L1647.5,449.0 L1645,444.0 L1640,439.0 L1635,434.0 L1630,431.5 L1630,431.5 L1627.5,424.0 L1622.5,419.0 L1615,416.5 L1605,411.5 L1592.5,411.5 L1585,411.5 L1582.5,411.5 L1577.5,411.5 L1570,409.0 L1562.5,411.5 L1555,411.5 L1555,411.5 L1545,416.5 L1537.5,416.5 L1530,411.5 L1522.5,409.0 L1517.5,409.0 L1515,406.5 L1510,404.0 L1505,401.5 L1502.5,401.5 L1497.5,399.0 L1497.5,396.5 L1500,396.5 L1502.5,396.5 L1505,394.0 L1512.5,391.5 L1520,391.5 L1505,389.0 L1500,384.0 L1490,384.0Z" transform="translate(-2, -3)"/>
</svg>