<?xml version="1.0" encoding="UTF-8"?>
<svg xmlns="http://www.w3.org/2000/svg" viewBox="1956.75 556.75 249 114" preserveAspectRatio="xMidYMid meet">
  <defs>
    <style>
      .territory {
        fill: #f4d03f;
        stroke: #333;
        stroke-width: 3;
        stroke-linejoin: round;
        stroke-linecap: round;
      }
    </style>
  </defs>
  <path id="iceland" class="territory" d="M1977.5,602.5 L1980,600 L1980,600 L1982.5,597.5 L1985,597.5 L1985,597.5 L1987.5,597.5 L1990,597.5 L1992.5,595 L1995,597.5 L1997.5,597.5 L2000,597.5 L1997.5,595 L1992.5,595 L1992.5,592.5 L1992.5,590 L1992.5,590 L1995,587.5 L1995,587.5 L1995,585 L2000,585 L2002.5,587.5 L2005,590 L2007.5,590 L2010,590 L2015,592.5 L2015,592.5 L2015,590 L2012.5,587.5 L2010,587.5 L2010,587.5 L2010,582.5 L2012.5,585 L2012.5,585 L2012.5,582.5 L2010,582.5 L2007.5,582.5 L2007.5,580 L2010,580 L2012.5,580 L2017.5,577.5 L2020,580 L2022.5,582.5 L2025,585 L2030,585 L2030,587.5 L2035,590 L2035,590 L2037.5,590 L2037.5,595 L2035,597.5 L2035,597.5 L2040,597.5 L2042.5,600 L2040,602.5 L2040,602.5 L2042.5,602.5 L2047.5,602.5 L2047.5,600 L2047.5,600 L2052.5,600 L2052.5,600 L2055,600 L2057.5,597.5 L2057.5,597.5 L2060,595 L2057.5,595 L2057.5,592.5 L2057.5,590 L2057.5,587.5 L2062.5,587.5 L2065,590 L2065,590 L2070,592.5 L2072.5,595 L2072.5,595 L2077.5,595 L2075,592.5 L2075,592.5 L2077.5,590 L2080,587.5 L2080,587.5 L2085,587.5 L2087.5,587.5 L2090,587.5 L2092.5,590 L2095,592.5 L2097.5,592.5 L2100,595 L2102.5,595 L2100,592.5 L2100,592.5 L2097.5,587.5 L2097.5,587.5 L2097.5,587.5 L2102.5,587.5 L2105,587.5 L2110,590 L2112.5,590 L2112.5,590 L2115,587.5 L2115,587.5 L2117.5,587.5 L2120,585 L2125,587.5 L2125,587.5 L2130,587.5 L2130,585 L2132.5,585 L2132.5,580 L2132.5,580 L2135,577.5 L2140,577.5 L2142.5,577.5 L2145,580 L2145,582.5 L2147.5,582.5 L2150,585 L2152.5,585 L2152.5,585 L2155,585 L2157.5,582.5 L2160,582.5 L2160,582.5 L2162.5,580 L2165,580 L2167.5,580 L2165,582.5 L2165,582.5 L2162.5,582.5 L2162.5,585 L2160,585 L2160,585 L2160,587.5 L2165,590 L2167.5,590 L2167.5,590 L2165,592.5 L2165,595 L2165,597.5 L2167.5,595 L2172.5,595 L2172.5,597.5 L2177.5,597.5 L2180,597.5 L2182.5,600 L2185,600 L2185,602.5 L2185,605 L2185,607.5 L2185,612.5 L2185,612.5 L2185,615 L2182.5,615 L2180,617.5 L2180,617.5 L2177.5,620 L2172.5,620 L2172.5,620 L2170,622.5 L2170,625 L2167.5,627.5 L2167.5,627.5 L2165,627.5 L2162.5,627.5 L2157.5,630 L2155,630 L2147.5,632.5 L2142.5,632.5 L2137.5,635 L2132.5,637.5 L2127.5,640 L2122.5,642.5 L2120,642.5 L2115,642.5 L2112.5,642.5 L2105,642.5 L2105,645 L2105,647.5 L2102.5,650 L2097.5,647.5 L2095,647.5 L2092.5,650 L2090,650 L2087.5,650 L2080,650 L2075,650 L2072.5,647.5 L2065,647.5 L2060,647.5 L2057.5,647.5 L2055,645 L2052.5,642.5 L2050,642.5 L2042.5,640 L2040,640 L2032.5,640 L2030,640 L2020,640 L2017.5,640 L2015,640 L2012.5,640 L2012.5,637.5 L2015,635 L2017.5,635 L2025,635 L2025,632.5 L2027.5,630 L2030,630 L2025,630 L2025,627.5 L2027.5,625 L2025,625 L2020,625 L2017.5,625 L2017.5,622.5 L2020,620 L2017.5,620 L2017.5,620 L2015,620 L2012.5,620 L2007.5,617.5 L2002.5,617.5 L2000,617.5 L1995,617.5 L1992.5,620 L1990,620 L1990,617.5 L1987.5,617.5 L1987.5,615 L1990,612.5 L1992.5,615 L1995,615 L2000,612.5 L2007.5,612.5 L2012.5,612.5 L2015,612.5 L2017.5,612.5 L2020,612.5 L2025,612.5 L2027.5,612.5 L2027.5,610 L2025,610 L2020,610 L2017.5,610 L2017.5,607.5 L2017.5,605 L2020,605 L2022.5,605 L2027.5,602.5 L2025,602.5 L2022.5,602.5 L2017.5,602.5 L2017.5,602.5 L2015,600 L2015,600 L2012.5,597.5 L2010,597.5 L2005,600 L2002.5,600 L2002.5,600 L2000,602.5 L1997.5,605 L1995,602.5 L1995,602.5 L1992.5,605 L1990,605 L1987.5,602.5 L1987.5,602.5 L1985,602.5 L1985,602.5 L1982.5,602.5Z"/>
</svg>