<?xml version="1.0" encoding="UTF-8"?>
<svg xmlns="http://www.w3.org/2000/svg" viewBox="3158.25 975.75 506 561" preserveAspectRatio="xMidYMid meet">
  <defs>
    <style>
      .territory {
        fill: #f4d03f;
        stroke: #333;
        stroke-width: 3;
        stroke-linejoin: round;
        stroke-linecap: round;
      }
    </style>
  </defs>
  <path id="india" class="territory" d="M3377.5,1032.5 L3365,1037.5 L3357.5,1042.5 L3350,1042.5 L3345,1045 L3340,1045 L3340,1040 L3337.5,1032.5 L3335,1027.5 L3332.5,1027.5 L3325,1025 L3317.5,1022.5 L3307.5,1025 L3297.5,1027.5 L3290,1035 L3287.5,1040 L3282.5,1040 L3272.5,1037.5 L3270,1035 L3265,1032.5 L3260,1032.5 L3252.5,1032.5 L3247.5,1040 L3242.5,1042.5 L3237.5,1052.5 L3232.5,1057.5 L3227.5,1067.5 L3217.5,1072.5 L3212.5,1075 L3210,1082.5 L3207.5,1087.5 L3207.5,1092.5 L3205,1100 L3205,1107.5 L3205,1115 L3210,1120 L3212.5,1127.5 L3215,1135 L3215,1140 L3212.5,1150 L3215,1155 L3217.5,1162.5 L3225,1170 L3227.5,1180 L3230,1187.5 L3235,1192.5 L3237.5,1202.5 L3235,1210 L3230,1212.5 L3220,1220 L3222.5,1222.5 L3227.5,1232.5 L3230,1240 L3237.5,1245 L3245,1250 L3250,1255 L3257.5,1260 L3262.5,1262.5 L3272.5,1262.5 L3272.5,1265 L3267.5,1270 L3260,1270 L3255,1270 L3257.5,1275 L3262.5,1282.5 L3275,1295 L3277.5,1295 L3285,1292.5 L3297.5,1285 L3295,1280 L3297.5,1272.5 L3300,1275 L3305,1280 L3305,1285 L3302.5,1287.5 L3302.5,1292.5 L3302.5,1295 L3300,1305 L3300,1315 L3300,1320 L3302.5,1330 L3305,1340 L3307.5,1347.5 L3310,1362.5 L3312.5,1370 L3315,1377.5 L3322.5,1390 L3325,1395 L3327.5,1405 L3330,1415 L3335,1427.5 L3340,1435 L3342.5,1445 L3347.5,1457.5 L3350,1470 L3352.5,1480 L3360,1485 L3362.5,1487.5 L3367.5,1490 L3375,1482.5 L3377.5,1475 L3382.5,1472.5 L3385,1467.5 L3387.5,1462.5 L3390,1452.5 L3392.5,1455 L3395,1455 L3395,1447.5 L3395,1437.5 L3397.5,1430 L3400,1422.5 L3402.5,1412.5 L3402.5,1402.5 L3400,1395 L3400,1387.5 L3400,1382.5 L3400,1380 L3405,1375 L3407.5,1370 L3412.5,1365 L3417.5,1362.5 L3422.5,1360 L3425,1360 L3427.5,1357.5 L3427.5,1352.5 L3435,1347.5 L3440,1342.5 L3447.5,1335 L3455,1327.5 L3457.5,1322.5 L3460,1317.5 L3465,1310 L3472.5,1307.5 L3477.5,1305 L3485,1297.5 L3487.5,1290 L3490,1282.5 L3497.5,1280 L3502.5,1280 L3512.5,1280 L3522.5,1277.5 L3525,1277.5 L3530,1275 L3535,1267.5 L3540,1262.5 L3547.5,1265 L3550,1275 L3555,1285 L3555,1292.5 L3560,1300 L3565,1300 L3570,1295 L3575,1287.5 L3577.5,1285 L3582.5,1280 L3585,1272.5 L3585,1267.5 L3580,1262.5 L3575,1255 L3575,1245 L3577.5,1237.5 L3580,1227.5 L3582.5,1217.5 L3585,1205 L3590,1197.5 L3592.5,1185 L3600,1177.5 L3607.5,1170 L3617.5,1165 L3617.5,1157.5 L3612.5,1150 L3607.5,1145 L3597.5,1140 L3592.5,1137.5 L3585,1137.5 L3575,1142.5 L3567.5,1147.5 L3560,1150 L3547.5,1152.5 L3542.5,1150 L3537.5,1142.5 L3532.5,1140 L3520,1140 L3507.5,1140 L3502.5,1142.5 L3490,1142.5 L3480,1142.5 L3470,1140 L3460,1135 L3452.5,1127.5 L3447.5,1122.5 L3442.5,1120 L3437.5,1115 L3427.5,1110 L3430,1097.5 L3437.5,1087.5 L3442.5,1080 L3442.5,1072.5 L3437.5,1067.5 L3432.5,1065 L3427.5,1062.5 L3417.5,1057.5 L3412.5,1052.5 L3402.5,1047.5 L3397.5,1042.5 L3387.5,1040 L3382.5,1035Z"/>
</svg>