<?xml version="1.0" encoding="UTF-8"?>
<svg xmlns="http://www.w3.org/2000/svg" viewBox="3324.75 1577.25 753 550.5" preserveAspectRatio="xMidYMid meet">
  <defs>
    <style>
      .territory {
        fill: #f4d03f;
        stroke: #333;
        stroke-width: 3;
        stroke-linejoin: round;
        stroke-linecap: round;
      }
    </style>
  </defs>
  <path id="indonesia" class="territory" d="M3387.5,1677.5 L3392.5,1675 L3400,1677.5 L3405,1682.5 L3412.5,1687.5 L3420,1687.5 L3422.5,1682.5 L3430,1687.5 L3435,1687.5 L3440,1690 L3445,1695 L3445,1702.5 L3452.5,1707.5 L3450,1715 L3455,1720 L3460,1722.5 L3465,1727.5 L3472.5,1732.5 L3480,1740 L3487.5,1747.5 L3487.5,1755 L3497.5,1757.5 L3495,1762.5 L3502.5,1770 L3507.5,1772.5 L3505,1767.5 L3507.5,1765 L3510,1770 L3517.5,1775 L3517.5,1780 L3517.5,1772.5 L3520,1770 L3525,1775 L3525,1780 L3520,1780 L3522.5,1782.5 L3525,1785 L3532.5,1792.5 L3532.5,1795 L3535,1790 L3540,1792.5 L3540,1797.5 L3545,1800 L3545,1797.5 L3550,1800 L3555,1802.5 L3550,1805 L3542.5,1805 L3540,1802.5 L3537.5,1800 L3535,1800 L3535,1805 L3540,1807.5 L3545,1807.5 L3550,1810 L3550,1812.5 L3547.5,1817.5 L3545,1820 L3550,1817.5 L3555,1815 L3557.5,1812.5 L3562.5,1817.5 L3567.5,1825 L3562.5,1830 L3560,1832.5 L3560,1837.5 L3557.5,1842.5 L3560,1850 L3567.5,1852.5 L3577.5,1855 L3580,1857.5 L3580,1865 L3582.5,1872.5 L3587.5,1880 L3590,1885 L3587.5,1890 L3582.5,1892.5 L3585,1895 L3587.5,1890 L3590,1890 L3597.5,1890 L3605,1892.5 L3607.5,1900 L3610,1902.5 L3612.5,1907.5 L3615,1912.5 L3610,1922.5 L3610,1930 L3610,1935 L3610,1940 L3610,1950 L3610,1962.5 L3610,1977.5 L3607.5,1985 L3605,1982.5 L3602.5,1977.5 L3600,1975 L3597.5,1972.5 L3595,1980 L3587.5,1975 L3582.5,1977.5 L3585,1982.5 L3585,1985 L3582.5,1985 L3570,1970 L3570,1967.5 L3562.5,1960 L3560,1957.5 L3557.5,1952.5 L3542.5,1940 L3537.5,1935 L3532.5,1925 L3527.5,1917.5 L3522.5,1915 L3512.5,1897.5 L3510,1897.5 L3507.5,1887.5 L3507.5,1882.5 L3505,1875 L3500,1862.5 L3497.5,1862.5 L3495,1850 L3485,1837.5 L3480,1827.5 L3472.5,1822.5 L3467.5,1815 L3467.5,1807.5 L3462.5,1785 L3465,1782.5 L3452.5,1772.5 L3442.5,1765 L3440,1765 L3440,1750 L3432.5,1747.5 L3425,1730 L3417.5,1725 L3415,1725 L3412.5,1725 L3410,1720 L3402.5,1710 L3392.5,1697.5 L3390,1685 Z M3595,2010 L3600,2005 L3602.5,2007.5 L3605,2002.5 L3610,1997.5 L3610,1992.5 L3612.5,1985 L3620,1987.5 L3625,1987.5 L3630,1992.5 L3635,1987.5 L3640,1987.5 L3642.5,1990 L3650,1992.5 L3657.5,1997.5 L3660,1995 L3665,2000 L3665,2005 L3672.5,2010 L3687.5,2010 L3692.5,2012.5 L3705,2015 L3707.5,2010 L3710,2000 L3717.5,2000 L3720,2007.5 L3725,2007.5 L3727.5,2007.5 L3735,2007.5 L3742.5,2010 L3750,2015 L3750,2020 L3752.5,2022.5 L3755,2027.5 L3757.5,2032.5 L3765,2035 L3775,2035 L3780,2032.5 L3790,2037.5 L3790,2040 L3787.5,2045 L3787.5,2052.5 L3790,2055 L3790,2060 L3790,2062.5 L3787.5,2062.5 L3785,2057.5 L3777.5,2057.5 L3772.5,2055 L3767.5,2052.5 L3762.5,2050 L3757.5,2052.5 L3752.5,2052.5 L3747.5,2052.5 L3737.5,2050 L3730,2050 L3715,2047.5 L3700,2040 L3690,2037.5 L3682.5,2035 L3677.5,2035 L3670,2030 L3665,2035 L3652.5,2035 L3645,2030 L3637.5,2027.5 L3625,2025 L3622.5,2020 L3622.5,2015 L3615,2012.5 L3602.5,2010 L3597.5,2007.5 Z M3837.5,1640 L3840,1647.5 L3840,1642.5 L3845,1640 L3847.5,1647.5 L3852.5,1650 L3855,1652.5 L3855,1655 L3855,1662.5 L3855,1667.5 L3857.5,1667.5 L3862.5,1665 L3865,1670 L3870,1672.5 L3877.5,1677.5 L3882.5,1682.5 L3885,1682.5 L3890,1685 L3887.5,1690 L3882.5,1692.5 L3877.5,1695 L3870,1692.5 L3867.5,1695 L3865,1700 L3870,1702.5 L3872.5,1707.5 L3872.5,1710 L3867.5,1710 L3862.5,1712.5 L3860,1715 L3857.5,1710 L3852.5,1710 L3855,1715 L3852.5,1717.5 L3852.5,1720 L3857.5,1725 L3860,1727.5 L3857.5,1730 L3847.5,1730 L3845,1730 L3847.5,1732.5 L3850,1737.5 L3847.5,1740 L3852.5,1742.5 L3855,1745 L3855,1747.5 L3857.5,1752.5 L3860,1757.5 L3862.5,1762.5 L3860,1770 L3860,1775 L3872.5,1785 L3875,1792.5 L3880,1800 L3877.5,1805 L3867.5,1802.5 L3860,1805 L3857.5,1810 L3852.5,1817.5 L3852.5,1825 L3852.5,1837.5 L3852.5,1842.5 L3855,1845 L3850,1850 L3845,1855 L3840,1862.5 L3837.5,1857.5 L3837.5,1865 L3832.5,1870 L3830,1877.5 L3832.5,1882.5 L3830,1890 L3835,1895 L3830,1895 L3827.5,1895 L3827.5,1902.5 L3827.5,1907.5 L3825,1910 L3825,1912.5 L3820,1920 L3817.5,1925 L3805,1932.5 L3795,1937.5 L3792.5,1927.5 L3792.5,1920 L3790,1917.5 L3787.5,1920 L3782.5,1915 L3775,1917.5 L3772.5,1915 L3765,1912.5 L3762.5,1910 L3755,1910 L3755,1915 L3750,1920 L3742.5,1915 L3740,1917.5 L3735,1920 L3735,1915 L3735,1907.5 L3727.5,1905 L3720,1907.5 L3717.5,1910 L3715,1910 L3712.5,1907.5 L3710,1905 L3702.5,1905 L3700,1905 L3702.5,1897.5 L3697.5,1885 L3695,1875 L3697.5,1865 L3692.5,1855 L3687.5,1852.5 L3685,1850 L3682.5,1850 L3680,1845 L3682.5,1842.5 L3677.5,1842.5 L3677.5,1837.5 L3680,1827.5 L3680,1827.5 L3677.5,1822.5 L3675,1812.5 L3675,1800 L3680,1795 L3680,1790 L3677.5,1790 L3680,1782.5 L3682.5,1777.5 L3685,1772.5 L3687.5,1772.5 L3690,1777.5 L3697.5,1782.5 L3702.5,1780 L3705,1780 L3712.5,1787.5 L3720,1787.5 L3717.5,1785 L3720,1782.5 L3720,1775 L3720,1770 L3722.5,1767.5 L3720,1767.5 L3720,1762.5 L3722.5,1760 L3727.5,1762.5 L3725,1755 L3730,1750 L3732.5,1750 L3747.5,1747.5 L3757.5,1742.5 L3767.5,1730 L3775,1717.5 L3780,1712.5 L3782.5,1702.5 L3787.5,1702.5 L3797.5,1692.5 L3802.5,1695 L3807.5,1695 L3812.5,1692.5 L3810,1682.5 L3812.5,1677.5 L3815,1677.5 L3822.5,1670 L3827.5,1660 L3832.5,1647.5 L3835,1645 Z M4007.5,1782.5 L4012.5,1782.5 L4015,1785 L4010,1790 L4007.5,1797.5 L4002.5,1805 L3997.5,1815 L3992.5,1817.5 L3982.5,1817.5 L3977.5,1820 L3970,1820 L3970,1812.5 L3960,1812.5 L3955,1815 L3950,1815 L3945,1815 L3940,1812.5 L3930,1812.5 L3925,1817.5 L3920,1815 L3917.5,1812.5 L3907.5,1820 L3905,1827.5 L3907.5,1837.5 L3905,1845 L3910,1847.5 L3912.5,1852.5 L3917.5,1857.5 L3920,1862.5 L3927.5,1862.5 L3932.5,1855 L3937.5,1850 L3942.5,1850 L3945,1850 L3947.5,1850 L3952.5,1847.5 L3955,1845 L3962.5,1847.5 L3965,1845 L3962.5,1842.5 L3967.5,1840 L3975,1842.5 L3975,1850 L3972.5,1855 L3967.5,1852.5 L3965,1852.5 L3962.5,1857.5 L3957.5,1862.5 L3955,1865 L3947.5,1870 L3942.5,1872.5 L3942.5,1875 L3937.5,1877.5 L3932.5,1875 L3932.5,1877.5 L3935,1882.5 L3940,1887.5 L3942.5,1892.5 L3947.5,1902.5 L3950,1907.5 L3955,1910 L3952.5,1912.5 L3952.5,1920 L3952.5,1927.5 L3955,1927.5 L3960,1932.5 L3962.5,1935 L3965,1937.5 L3965,1942.5 L3960,1945 L3950,1947.5 L3947.5,1950 L3950,1955 L3942.5,1957.5 L3937.5,1955 L3935,1947.5 L3937.5,1942.5 L3937.5,1937.5 L3930,1932.5 L3925,1927.5 L3922.5,1920 L3925,1915 L3925,1907.5 L3922.5,1900 L3920,1897.5 L3912.5,1900 L3907.5,1907.5 L3912.5,1915 L3912.5,1925 L3912.5,1937.5 L3912.5,1942.5 L3912.5,1952.5 L3912.5,1960 L3910,1965 L3912.5,1970 L3912.5,1975 L3907.5,1977.5 L3897.5,1977.5 L3890,1972.5 L3892.5,1965 L3892.5,1955 L3897.5,1947.5 L3895,1935 L3892.5,1925 L3895,1920 L3887.5,1920 L3882.5,1920 L3880,1915 L3880,1902.5 L3880,1900 L3885,1892.5 L3887.5,1885 L3887.5,1877.5 L3892.5,1872.5 L3890,1860 L3895,1850 L3897.5,1845 L3902.5,1847.5 L3900,1837.5 L3900,1832.5 L3900,1827.5 L3902.5,1825 L3900,1820 L3902.5,1807.5 L3910,1800 L3915,1802.5 L3920,1797.5 L3922.5,1792.5 L3927.5,1792.5 L3935,1795 L3940,1797.5 L3945,1797.5 L3950,1797.5 L3955,1800 L3960,1802.5 L3962.5,1805 L3965,1802.5 L3970,1802.5 L3982.5,1802.5 L3990,1802.5 L3995,1797.5 L3997.5,1792.5 L4002.5,1787.5 Z M3755,2015 L3757.5,2012.5 L3767.5,2012.5 L3772.5,2012.5 L3777.5,2012.5 L3780,2012.5 L3777.5,2017.5 L3772.5,2020 L3767.5,2020 L3762.5,2020 L3757.5,2020 L3755,2020 L3752.5,2017.5 L3790,2045 L3792.5,2045 L3795,2047.5 L3797.5,2047.5 L3802.5,2045 L3805,2045 L3810,2045 L3812.5,2047.5 L3815,2050 L3815,2052.5 L3810,2055 L3807.5,2060 L3807.5,2060 L3805,2065 L3802.5,2060 L3802.5,2060 L3800,2057.5 L3797.5,2055 L3795,2052.5 L3792.5,2050 L3790,2047.5Z"/>
</svg>