<?xml version="1.0" encoding="UTF-8"?>
<svg xmlns="http://www.w3.org/2000/svg" viewBox="3471.25 461.25 645 415" preserveAspectRatio="xMidYMid meet">
  <defs>
    <style>
      .territory {
        fill: #f4d03f;
        stroke: #333;
        stroke-width: 3;
        stroke-linejoin: round;
        stroke-linecap: round;
      }
    </style>
  </defs>
  <path id="irkutsk" class="territory" d="M4037.5,820 L4032.5,822.5 L4027.5,822.5 L4017.5,822.5 L4007.5,817.5 L4000,815 L3992.5,810 L3987.5,802.5 L3982.5,795 L3977.5,787.5 L3975,785 L3967.5,780 L3960,775 L3955,772.5 L3947.5,767.5 L3942.5,762.5 L3935,757.5 L3930,750 L3925,745 L3920,740 L3912.5,735 L3907.5,727.5 L3900,717.5 L3890,710 L3885,705 L3880,702.5 L3870,700 L3865,697.5 L3855,695 L3852.5,695 L3845,695 L3842.5,700 L3842.5,715 L3845,720 L3850,730 L3852.5,735 L3850,745 L3845,755 L3842.5,760 L3832.5,760 L3825,755 L3815,750 L3805,747.5 L3800,747.5 L3792.5,745 L3782.5,745 L3772.5,747.5 L3760,747.5 L3750,747.5 L3735,750 L3730,750 L3720,752.5 L3707.5,755 L3697.5,757.5 L3690,760 L3680,757.5 L3665,755 L3645,752.5 L3635,750 L3625,752.5 L3617.5,750 L3607.5,750 L3600,750 L3592.5,747.5 L3585,747.5 L3580,750 L3580,757.5 L3580,762.5 L3572.5,770 L3565,770 L3552.5,770 L3545,765 L3530,762.5 L3530,762.5 L3530,755 L3527.5,740 L3525,732.5 L3527.5,730 L3537.5,727.5 L3545,725 L3550,725 L3557.5,720 L3562.5,717.5 L3567.5,712.5 L3572.5,712.5 L3580,712.5 L3585,710 L3590,707.5 L3590,702.5 L3587.5,697.5 L3585,690 L3582.5,680 L3580,670 L3580,660 L3577.5,652.5 L3582.5,640 L3592.5,635 L3605,632.5 L3615,632.5 L3620,627.5 L3630,622.5 L3637.5,615 L3642.5,607.5 L3647.5,600 L3655,587.5 L3655,582.5 L3647.5,570 L3642.5,565 L3640,557.5 L3640,552.5 L3647.5,550 L3655,545 L3660,537.5 L3662.5,527.5 L3667.5,520 L3672.5,515 L3672.5,520 L3672.5,525 L3680,532.5 L3682.5,537.5 L3687.5,542.5 L3690,552.5 L3692.5,557.5 L3692.5,567.5 L3695,580 L3697.5,587.5 L3697.5,595 L3705,597.5 L3715,600 L3725,600 L3735,597.5 L3742.5,590 L3750,587.5 L3760,592.5 L3765,597.5 L3775,597.5 L3780,602.5 L3787.5,612.5 L3792.5,622.5 L3800,630 L3810,632.5 L3827.5,637.5 L3837.5,637.5 L3855,637.5 L3867.5,637.5 L3875,637.5 L3890,640 L3900,645 L3912.5,647.5 L3922.5,652.5 L3932.5,655 L3947.5,657.5 L3957.5,657.5 L3967.5,657.5 L3977.5,660 L3987.5,662.5 L3995,660 L4002.5,662.5 L4012.5,662.5 L4017.5,665 L4025,665 L4030,670 L4027.5,675 L4025,675 L4020,680 L4012.5,682.5 L4010,690 L4010,700 L4015,705 L4022.5,707.5 L4030,707.5 L4042.5,705 L4050,702.5 L4060,705 L4062.5,710 L4057.5,720 L4050,725 L4037.5,732.5 L4027.5,740 L4020,745 L4017.5,752.5 L4015,757.5 L4017.5,772.5 L4020,782.5 L4022.5,790 L4027.5,797.5 L4032.5,810 L4040,815Z"/>
</svg>