<?xml version="1.0" encoding="UTF-8"?>
<svg xmlns="http://www.w3.org/2000/svg" viewBox="4008.25 775.75 438.5 471" preserveAspectRatio="xMidYMid meet">
  <defs>
    <style>
      .territory {
        fill: #f4d03f;
        stroke: #333;
        stroke-width: 3;
        stroke-linejoin: round;
        stroke-linecap: round;
      }
    </style>
  </defs>
  <path id="japan" class="territory" d="M4325,815 L4335,820 L4340,827.5 L4347.5,837.5 L4350,845 L4365,847.5 L4375,852.5 L4382.5,857.5 L4385,862.5 L4390,855 L4395,855 L4402.5,847.5 L4400,857.5 L4402.5,862.5 L4402.5,870 L4407.5,877.5 L4402.5,880 L4400,882.5 L4395,882.5 L4390,882.5 L4387.5,885 L4385,885 L4380,887.5 L4375,885 L4370,890 L4362.5,897.5 L4357.5,905 L4357.5,910 L4350,910 L4345,907.5 L4337.5,905 L4330,902.5 L4325,897.5 L4320,892.5 L4315,897.5 L4307.5,897.5 L4302.5,900 L4295,897.5 L4290,897.5 L4290,902.5 L4297.5,905 L4300,910 L4305,912.5 L4307.5,915 L4310,917.5 L4305,917.5 L4297.5,915 L4295,915 L4297.5,920 L4295,920 L4290,922.5 L4295,925 L4297.5,925 L4295,927.5 L4295,925 L4290,925 L4285,927.5 L4282.5,927.5 L4282.5,925 L4282.5,922.5 L4285,917.5 L4285,912.5 L4285,910 L4280,907.5 L4277.5,905 L4275,900 L4277.5,897.5 L4280,892.5 L4282.5,890 L4290,885 L4292.5,885 L4290,880 L4290,875 L4292.5,875 L4297.5,875 L4302.5,877.5 L4305,877.5 L4310,877.5 L4310,875 L4312.5,872.5 L4312.5,867.5 L4310,865 L4312.5,862.5 L4317.5,860 L4317.5,855 L4320,850 L4320,842.5 L4320,832.5 L4317.5,827.5 L4317.5,822.5 Z M4302.5,922.5 L4310,927.5 L4315,927.5 L4315,932.5 L4312.5,937.5 L4315,942.5 L4315,942.5 L4315,945 L4320,952.5 L4322.5,962.5 L4325,967.5 L4327.5,975 L4327.5,980 L4325,985 L4325,995 L4320,1000 L4315,1002.5 L4317.5,1010 L4317.5,1012.5 L4312.5,1012.5 L4310,1012.5 L4307.5,1015 L4305,1022.5 L4305,1027.5 L4307.5,1035 L4307.5,1042.5 L4305,1047.5 L4300,1055 L4297.5,1062.5 L4297.5,1065 L4297.5,1070 L4300,1075 L4300,1080 L4300,1085 L4295,1090 L4292.5,1095 L4290,1100 L4285,1102.5 L4282.5,1105 L4280,1105 L4277.5,1100 L4277.5,1097.5 L4277.5,1092.5 L4280,1090 L4280,1087.5 L4280,1085 L4280,1085 L4277.5,1085 L4275,1090 L4275,1092.5 L4272.5,1095 L4270,1092.5 L4267.5,1092.5 L4262.5,1097.5 L4262.5,1105 L4260,1110 L4255,1110 L4252.5,1110 L4255,1107.5 L4255,1102.5 L4252.5,1100 L4250,1100 L4247.5,1102.5 L4245,1105 L4245,1110 L4240,1110 L4235,1110 L4230,1112.5 L4225,1112.5 L4220,1112.5 L4215,1110 L4212.5,1107.5 L4210,1105 L4210,1102.5 L4207.5,1105 L4205,1110 L4205,1112.5 L4210,1115 L4210,1117.5 L4212.5,1120 L4205,1125 L4200,1127.5 L4195,1135 L4192.5,1137.5 L4185,1142.5 L4182.5,1145 L4177.5,1140 L4172.5,1135 L4172.5,1132.5 L4172.5,1127.5 L4177.5,1120 L4177.5,1112.5 L4177.5,1110 L4175,1110 L4170,1112.5 L4167.5,1117.5 L4165,1120 L4162.5,1122.5 L4160,1122.5 L4162.5,1117.5 L4162.5,1115 L4165,1115 L4165,1112.5 L4167.5,1110 L4165,1110 L4165,1107.5 L4160,1107.5 L4155,1110 L4150,1112.5 L4142.5,1115 L4137.5,1120 L4125,1120 L4120,1120 L4115,1120 L4107.5,1122.5 L4105,1125 L4102.5,1132.5 L4102.5,1135 L4097.5,1130 L4092.5,1127.5 L4087.5,1127.5 L4085,1130 L4080,1130 L4077.5,1127.5 L4075,1125 L4075,1120 L4080,1117.5 L4085,1117.5 L4087.5,1115 L4090,1110 L4097.5,1107.5 L4102.5,1105 L4105,1100 L4107.5,1097.5 L4110,1095 L4115,1092.5 L4117.5,1090 L4125,1085 L4127.5,1085 L4132.5,1085 L4140,1087.5 L4145,1087.5 L4150,1087.5 L4152.5,1085 L4160,1082.5 L4162.5,1082.5 L4167.5,1082.5 L4175,1085 L4180,1085 L4185,1087.5 L4187.5,1085 L4190,1082.5 L4190,1080 L4192.5,1075 L4192.5,1072.5 L4195,1065 L4197.5,1062.5 L4202.5,1060 L4205,1055 L4207.5,1052.5 L4207.5,1045 L4207.5,1037.5 L4210,1035 L4212.5,1035 L4217.5,1032.5 L4220,1035 L4220,1040 L4215,1042.5 L4215,1047.5 L4215,1050 L4217.5,1050 L4220,1050 L4225,1050 L4232.5,1045 L4240,1042.5 L4245,1037.5 L4247.5,1035 L4252.5,1032.5 L4255,1027.5 L4257.5,1022.5 L4260,1020 L4270,1015 L4272.5,1012.5 L4267.5,1015 L4267.5,1010 L4272.5,1002.5 L4275,997.5 L4277.5,990 L4280,982.5 L4280,977.5 L4280,967.5 L4280,962.5 L4280,957.5 L4280,950 L4282.5,945 L4285,940 L4287.5,940 L4287.5,937.5 L4290,932.5 L4292.5,930 L4295,932.5 L4295,935 L4297.5,932.5 L4300,930 L4302.5,925 Z M4075,1132.5 L4080,1132.5 L4085,1137.5 L4087.5,1140 L4090,1140 L4092.5,1137.5 L4095,1140 L4095,1145 L4092.5,1147.5 L4095,1150 L4097.5,1155 L4100,1155 L4100,1157.5 L4100,1162.5 L4095,1167.5 L4092.5,1172.5 L4090,1177.5 L4090,1180 L4087.5,1187.5 L4087.5,1190 L4087.5,1197.5 L4085,1202.5 L4082.5,1200 L4077.5,1202.5 L4077.5,1205 L4075,1207.5 L4072.5,1207.5 L4072.5,1202.5 L4072.5,1200 L4070,1200 L4067.5,1195 L4067.5,1192.5 L4067.5,1200 L4065,1202.5 L4060,1202.5 L4057.5,1202.5 L4057.5,1197.5 L4060,1195 L4062.5,1195 L4062.5,1195 L4060,1192.5 L4060,1192.5 L4060,1185 L4057.5,1185 L4057.5,1182.5 L4060,1180 L4065,1175 L4065,1172.5 L4067.5,1165 L4067.5,1162.5 L4067.5,1160 L4065,1160 L4065,1157.5 L4065,1152.5 L4062.5,1152.5 L4060,1152.5 L4060,1155 L4060,1155 L4062.5,1160 L4062.5,1162.5 L4062.5,1165 L4062.5,1167.5 L4057.5,1167.5 L4057.5,1165 L4057.5,1165 L4047.5,1165 L4055,1165 L4052.5,1167.5 L4050,1167.5 L4050,1162.5 L4050,1160 L4050,1157.5 L4047.5,1152.5 L4047.5,1150 L4047.5,1147.5 L4047.5,1145 L4052.5,1145 L4055,1142.5 L4055,1140 L4060,1137.5 L4065,1135 L4067.5,1132.5 L4070,1132.5 L4072.5,1132.5 L4072.5,1132.5Z"/>
</svg>