<?xml version="1.0" encoding="UTF-8"?>
<svg xmlns="http://www.w3.org/2000/svg" viewBox="3928.5 401 978 633" preserveAspectRatio="xMidYMid meet">
  <defs>
    <style>
      .territory {
        fill: #f4d03f;
        stroke: #333;
        stroke-width: 3;
        stroke-linejoin: round;
        stroke-linecap: round;
      }
    </style>
  </defs>
  <path id="kamchatka" class="territory" d="M4067.5,947.5 L4072.5,940 L4075,930 L4075,922.5 L4075,915 L4072.5,905 L4075,900 L4075,892.5 L4072.5,885 L4072.5,875 L4070,867.5 L4067.5,862.5 L4070,860 L4075,855 L4077.5,850 L4080,845 L4080,840 L4077.5,835 L4072.5,830 L4067.5,827.5 L4062.5,825 L4062.5,820 L4062.5,815 L4060,812.5 L4055,812.5 L4047.5,812.5 L4042.5,815 L4040,815 L4032.5,810 L4027.5,797.5 L4022.5,790 L4020,782.5 L4017.5,772.5 L4015,757.5 L4017.5,752.5 L4020,745 L4027.5,740 L4037.5,732.5 L4050,725 L4057.5,720 L4062.5,710 L4060,705 L4050,702.5 L4042.5,705 L4030,707.5 L4022.5,707.5 L4015,705 L4010,700 L4010,690 L4012.5,682.5 L4020,680 L4025,675 L4027.5,675 L4030,670 L4025,665 L4025,665 L4032.5,657.5 L4040,652.5 L4052.5,647.5 L4060,642.5 L4072.5,642.5 L4082.5,645 L4090,642.5 L4097.5,637.5 L4095,625 L4092.5,620 L4092.5,610 L4097.5,602.5 L4102.5,597.5 L4107.5,595 L4117.5,595 L4127.5,595 L4135,590 L4132.5,582.5 L4135,575 L4140,565 L4145,562.5 L4150,557.5 L4160,555 L4165,552.5 L4172.5,555 L4182.5,552.5 L4182.5,550 L4182.5,545 L4182.5,537.5 L4187.5,530 L4190,530 L4195,525 L4200,522.5 L4197.5,517.5 L4195,512.5 L4190,507.5 L4182.5,502.5 L4175,497.5 L4175,492.5 L4177.5,487.5 L4185,482.5 L4195,482.5 L4197.5,487.5 L4207.5,487.5 L4217.5,487.5 L4232.5,490 L4247.5,492.5 L4257.5,495 L4272.5,492.5 L4280,492.5 L4292.5,495 L4307.5,500 L4300,502.5 L4312.5,505 L4315,507.5 L4322.5,507.5 L4332.5,515 L4347.5,515 L4365,515 L4370,515 L4382.5,512.5 L4392.5,512.5 L4402.5,512.5 L4415,515 L4425,517.5 L4430,520 L4432.5,527.5 L4432.5,532.5 L4435,535 L4445,537.5 L4452.5,537.5 L4457.5,535 L4467.5,535 L4482.5,535 L4492.5,535 L4502.5,535 L4515,537.5 L4532.5,532.5 L4532.5,532.5 L4540,530 L4550,530 L4555,532.5 L4550,535 L4542.5,537.5 L4542.5,540 L4550,540 L4555,545 L4565,547.5 L4572.5,545 L4572.5,542.5 L4570,537.5 L4570,530 L4575,527.5 L4580,527.5 L4582.5,525 L4590,527.5 L4600,530 L4610,530 L4622.5,532.5 L4630,532.5 L4640,530 L4657.5,532.5 L4667.5,537.5 L4685,545 L4697.5,545 L4710,550 L4722.5,555 L4742.5,560 L4750,565 L4757.5,570 L4757.5,577.5 L4760,582.5 L4767.5,585 L4765,580 L4762.5,577.5 L4770,572.5 L4785,575 L4797.5,577.5 L4802.5,582.5 L4815,585 L4825,590 L4820,592.5 L4815,595 L4810,600 L4802.5,600 L4790,600 L4792.5,605 L4790,607.5 L4787.5,610 L4792.5,615 L4792.5,617.5 L4782.5,620 L4777.5,620 L4772.5,620 L4770,615 L4757.5,610 L4747.5,610 L4745,607.5 L4740,600 L4730,600 L4720,602.5 L4712.5,600 L4705,595 L4710,590 L4700,585 L4697.5,592.5 L4700,597.5 L4700,600 L4692.5,605 L4687.5,610 L4680,612.5 L4667.5,615 L4657.5,615 L4665,620 L4670,622.5 L4677.5,630 L4682.5,635 L4685,640 L4680,647.5 L4672.5,647.5 L4662.5,645 L4655,645 L4645,647.5 L4640,650 L4622.5,655 L4612.5,657.5 L4602.5,662.5 L4595,667.5 L4592.5,670 L4592.5,672.5 L4582.5,675 L4567.5,682.5 L4567.5,685 L4562.5,685 L4555,685 L4557.5,685 L4560,680 L4557.5,680 L4550,677.5 L4540,677.5 L4532.5,680 L4522.5,682.5 L4517.5,685 L4512.5,687.5 L4510,685 L4512.5,680 L4507.5,682.5 L4500,685 L4497.5,682.5 L4492.5,682.5 L4490,685 L4485,685 L4480,685 L4477.5,687.5 L4482.5,687.5 L4480,692.5 L4475,697.5 L4472.5,700 L4465,705 L4462.5,710 L4460,712.5 L4462.5,715 L4470,720 L4472.5,717.5 L4475,722.5 L4470,727.5 L4470,730 L4472.5,735 L4475,740 L4477.5,745 L4475,745 L4470,747.5 L4465,745 L4462.5,747.5 L4460,752.5 L4457.5,755 L4457.5,762.5 L4460,767.5 L4457.5,770 L4452.5,772.5 L4445,770 L4440,770 L4432.5,775 L4430,782.5 L4432.5,787.5 L4432.5,790 L4425,792.5 L4420,795 L4415,797.5 L4412.5,805 L4410,810 L4407.5,812.5 L4400,817.5 L4390,825 L4390,822.5 L4387.5,817.5 L4385,812.5 L4382.5,807.5 L4382.5,800 L4380,792.5 L4377.5,785 L4375,785 L4377.5,777.5 L4377.5,772.5 L4375,765 L4375,755 L4377.5,742.5 L4380,735 L4390,725 L4402.5,715 L4412.5,712.5 L4425,702.5 L4435,695 L4445,690 L4455,680 L4467.5,675 L4475,670 L4480,667.5 L4487.5,655 L4490,647.5 L4495,645 L4492.5,645 L4487.5,645 L4477.5,647.5 L4470,650 L4472.5,657.5 L4467.5,660 L4462.5,662.5 L4455,667.5 L4450,667.5 L4455,672.5 L4450,672.5 L4442.5,672.5 L4435,675 L4435,672.5 L4432.5,670 L4432.5,665 L4437.5,657.5 L4430,657.5 L4417.5,657.5 L4415,660 L4407.5,660 L4400,657.5 L4392.5,662.5 L4387.5,665 L4380,672.5 L4372.5,677.5 L4367.5,682.5 L4362.5,690 L4360,692.5 L4367.5,692.5 L4370,695 L4367.5,697.5 L4357.5,700 L4350,700 L4337.5,700 L4327.5,700 L4322.5,702.5 L4317.5,700 L4325,697.5 L4327.5,697.5 L4317.5,692.5 L4312.5,690 L4305,690 L4297.5,690 L4290,690 L4287.5,695 L4280,697.5 L4267.5,697.5 L4260,697.5 L4252.5,697.5 L4240,697.5 L4232.5,695 L4222.5,695 L4215,697.5 L4210,700 L4197.5,705 L4190,712.5 L4180,717.5 L4172.5,725 L4160,730 L4152.5,740 L4150,745 L4142.5,745 L4132.5,752.5 L4127.5,757.5 L4115,762.5 L4112.5,765 L4117.5,770 L4125,770 L4132.5,767.5 L4132.5,777.5 L4135,780 L4140,775 L4142.5,777.5 L4147.5,780 L4155,777.5 L4157.5,775 L4165,775 L4175,775 L4177.5,780 L4185,785 L4192.5,787.5 L4192.5,795 L4190,800 L4192.5,805 L4190,815 L4187.5,817.5 L4182.5,825 L4182.5,830 L4182.5,835 L4180,842.5 L4177.5,852.5 L4175,865 L4170,872.5 L4162.5,877.5 L4160,882.5 L4157.5,890 L4152.5,895 L4147.5,900 L4142.5,905 L4137.5,910 L4132.5,917.5 L4125,925 L4120,932.5 L4115,937.5 L4107.5,942.5 L4097.5,950 L4090,952.5 L4080,952.5 L4075,952.5Z"/>
</svg>