<?xml version="1.0" encoding="UTF-8"?>
<svg xmlns="http://www.w3.org/2000/svg" viewBox="2925.75 1673.25 223.5 411" preserveAspectRatio="xMidYMid meet">
  <defs>
    <style>
      .territory {
        fill: #f4d03f;
        stroke: #333;
        stroke-width: 3;
        stroke-linejoin: round;
        stroke-linecap: round;
      }
    </style>
  </defs>
  <path id="madagascar" class="territory" d="M3090,1707.5 L3090,1710 L3090,1712.5 L3092.5,1715 L3092.5,1717.5 L3095,1720 L3095,1725 L3097.5,1730 L3100,1735 L3102.5,1737.5 L3102.5,1745 L3105,1750 L3107.5,1760 L3107.5,1765 L3107.5,1772.5 L3110,1782.5 L3115,1790 L3115,1797.5 L3110,1805 L3107.5,1807.5 L3105,1807.5 L3105,1805 L3102.5,1800 L3102.5,1797.5 L3097.5,1797.5 L3100,1802.5 L3100,1807.5 L3100,1812.5 L3100,1825 L3100,1827.5 L3100,1832.5 L3097.5,1835 L3095,1837.5 L3092.5,1845 L3092.5,1850 L3092.5,1857.5 L3090,1867.5 L3090,1870 L3085,1887.5 L3082.5,1897.5 L3077.5,1912.5 L3075,1927.5 L3070,1940 L3070,1950 L3065,1957.5 L3062.5,1967.5 L3057.5,1977.5 L3060,1985 L3057.5,1995 L3055,2000 L3050,2012.5 L3047.5,2025 L3045,2030 L3040,2037.5 L3035,2037.5 L3027.5,2040 L3017.5,2045 L3010,2050 L3000,2050 L3000,2047.5 L2992.5,2042.5 L2987.5,2040 L2980,2037.5 L2980,2035 L2977.5,2030 L2972.5,2020 L2970,2015 L2970,2010 L2972.5,2002.5 L2972.5,2000 L2972.5,1995 L2967.5,1987.5 L2962.5,1980 L2960,1972.5 L2960,1965 L2965,1952.5 L2967.5,1945 L2972.5,1940 L2975,1937.5 L2977.5,1930 L2977.5,1927.5 L2980,1922.5 L2982.5,1917.5 L2987.5,1910 L2987.5,1905 L2987.5,1895 L2987.5,1890 L2985,1882.5 L2985,1877.5 L2982.5,1872.5 L2980,1865 L2977.5,1852.5 L2977.5,1842.5 L2980,1837.5 L2985,1827.5 L2987.5,1822.5 L2987.5,1817.5 L2987.5,1812.5 L2995,1812.5 L3000,1810 L3002.5,1805 L3007.5,1807.5 L3010,1810 L3012.5,1802.5 L3017.5,1805 L3020,1805 L3025,1805 L3027.5,1807.5 L3027.5,1805 L3027.5,1797.5 L3032.5,1797.5 L3035,1795 L3040,1790 L3045,1795 L3045,1790 L3047.5,1785 L3047.5,1777.5 L3050,1777.5 L3052.5,1780 L3052.5,1780 L3052.5,1775 L3055,1772.5 L3060,1772.5 L3057.5,1772.5 L3057.5,1767.5 L3057.5,1762.5 L3060,1762.5 L3060,1760 L3060,1755 L3060,1747.5 L3062.5,1745 L3062.5,1750 L3065,1750 L3067.5,1752.5 L3070,1750 L3072.5,1745 L3075,1745 L3080,1745 L3082.5,1737.5 L3082.5,1735 L3082.5,1727.5 L3082.5,1722.5 L3080,1717.5 L3082.5,1717.5 L3085,1712.5Z"/>
</svg>