<?xml version="1.0" encoding="UTF-8"?>
<svg xmlns="http://www.w3.org/2000/svg" viewBox="2643.5 896 648 578" preserveAspectRatio="xMidYMid meet">
  <defs>
    <style>
      .territory {
        fill: #f4d03f;
        stroke: #333;
        stroke-width: 3;
        stroke-linejoin: round;
        stroke-linecap: round;
      }
    </style>
  </defs>
  <path id="middle east" class="territory" d="M2697.5,982.5 L2700,977.5 L2702.5,975 L2705,970 L2710,967.5 L2715,962.5 L2717.5,957.5 L2720,950 L2722.5,957.5 L2722.5,962.5 L2725,967.5 L2730,972.5 L2737.5,977.5 L2742.5,977.5 L2750,977.5 L2755,975 L2760,977.5 L2767.5,980 L2777.5,975 L2785,970 L2787.5,962.5 L2790,962.5 L2797.5,965 L2805,965 L2815,965 L2820,965 L2822.5,967.5 L2835,970 L2837.5,972.5 L2845,977.5 L2857.5,980 L2862.5,977.5 L2872.5,980 L2880,980 L2885,977.5 L2890,977.5 L2897.5,972.5 L2902.5,970 L2905,970 L2910,972.5 L2915,975 L2917.5,980 L2922.5,982.5 L2925,987.5 L2930,992.5 L2935,997.5 L2942.5,997.5 L2950,1000 L2957.5,1002.5 L2967.5,1005 L2972.5,1007.5 L2977.5,1010 L2982.5,1012.5 L2987.5,1012.5 L2992.5,1015 L2995,1017.5 L2997.5,1022.5 L2997.5,1030 L3000,1032.5 L3002.5,1032.5 L3005,1032.5 L3012.5,1037.5 L3017.5,1042.5 L3027.5,1047.5 L3037.5,1050 L3045,1047.5 L3057.5,1042.5 L3060,1040 L3067.5,1037.5 L3075,1040 L3080,1037.5 L3085,1035 L3090,1032.5 L3102.5,1027.5 L3107.5,1025 L3112.5,1025 L3115,1022.5 L3122.5,1025 L3127.5,1027.5 L3135,1030 L3140,1032.5 L3145,1032.5 L3152.5,1037.5 L3155,1040 L3160,1045 L3165,1047.5 L3170,1047.5 L3175,1047.5 L3182.5,1050 L3185,1052.5 L3192.5,1055 L3197.5,1057.5 L3202.5,1060 L3210,1065 L3210,1070 L3212.5,1075 L3210,1082.5 L3207.5,1087.5 L3207.5,1092.5 L3205,1100 L3205,1107.5 L3205,1115 L3210,1120 L3212.5,1127.5 L3215,1135 L3215,1140 L3212.5,1150 L3215,1155 L3217.5,1162.5 L3225,1170 L3227.5,1180 L3230,1187.5 L3235,1192.5 L3237.5,1202.5 L3235,1210 L3230,1212.5 L3220,1220 L3215,1222.5 L3212.5,1225 L3207.5,1225 L3200,1225 L3190,1225 L3177.5,1225 L3165,1227.5 L3155,1227.5 L3147.5,1225 L3135,1222.5 L3125,1222.5 L3117.5,1220 L3110,1217.5 L3105,1215 L3100,1212.5 L3097.5,1205 L3095,1200 L3087.5,1192.5 L3080,1200 L3072.5,1202.5 L3065,1205 L3057.5,1205 L3052.5,1202.5 L3050,1200 L3047.5,1197.5 L3042.5,1192.5 L3040,1187.5 L3035,1185 L3027.5,1182.5 L3025,1180 L3020,1172.5 L3017.5,1165 L3017.5,1162.5 L3015,1157.5 L3012.5,1155 L3010,1150 L3002.5,1150 L3000,1150 L2995,1145 L2992.5,1150 L2987.5,1152.5 L2987.5,1152.5 L2985,1155 L2982.5,1160 L2982.5,1162.5 L2985,1162.5 L2987.5,1165 L2990,1172.5 L2992.5,1177.5 L2992.5,1182.5 L2995,1187.5 L3000,1195 L3005,1197.5 L3007.5,1200 L3010,1205 L3012.5,1207.5 L3012.5,1212.5 L3012.5,1217.5 L3015,1222.5 L3017.5,1227.5 L3020,1230 L3020,1222.5 L3022.5,1217.5 L3022.5,1212.5 L3025,1212.5 L3027.5,1215 L3030,1217.5 L3027.5,1220 L3030,1225 L3030,1227.5 L3030,1232.5 L3030,1235 L3027.5,1237.5 L3027.5,1240 L3035,1245 L3040,1245 L3042.5,1242.5 L3050,1242.5 L3055,1242.5 L3055,1242.5 L3060,1245 L3062.5,1240 L3065,1237.5 L3070,1235 L3072.5,1230 L3075,1225 L3080,1222.5 L3085,1217.5 L3090,1212.5 L3090,1210 L3090,1210 L3090,1215 L3090,1220 L3092.5,1230 L3095,1237.5 L3100,1242.5 L3107.5,1247.5 L3115,1250 L3122.5,1250 L3125,1255 L3127.5,1260 L3130,1265 L3130,1265 L3135,1267.5 L3135,1272.5 L3132.5,1277.5 L3130,1282.5 L3127.5,1287.5 L3122.5,1292.5 L3120,1297.5 L3120,1300 L3117.5,1302.5 L3115,1302.5 L3110,1305 L3110,1312.5 L3110,1317.5 L3110,1320 L3107.5,1322.5 L3105,1322.5 L3100,1322.5 L3100,1327.5 L3100,1327.5 L3097.5,1330 L3095,1330 L3095,1332.5 L3095,1335 L3092.5,1337.5 L3090,1337.5 L3085,1340 L3080,1340 L3080,1345 L3077.5,1350 L3077.5,1350 L3072.5,1352.5 L3067.5,1355 L3062.5,1355 L3057.5,1357.5 L3055,1357.5 L3052.5,1357.5 L3042.5,1362.5 L3040,1362.5 L3040,1370 L3037.5,1375 L3032.5,1377.5 L3025,1380 L3017.5,1385 L3010,1385 L3005,1387.5 L2997.5,1392.5 L2992.5,1397.5 L2987.5,1400 L2975,1402.5 L2970,1407.5 L2962.5,1410 L2955,1412.5 L2945,1417.5 L2940,1420 L2935,1420 L2930,1420 L2922.5,1417.5 L2920,1415 L2920,1410 L2920,1405 L2920,1400 L2920,1395 L2917.5,1390 L2917.5,1385 L2915,1377.5 L2915,1370 L2915,1365 L2915,1360 L2912.5,1355 L2910,1350 L2907.5,1345 L2902.5,1340 L2900,1335 L2895,1330 L2895,1322.5 L2892.5,1317.5 L2890,1312.5 L2887.5,1310 L2882.5,1305 L2880,1302.5 L2872.5,1295 L2870,1290 L2867.5,1282.5 L2865,1275 L2865,1272.5 L2867.5,1267.5 L2862.5,1260 L2857.5,1255 L2855,1245 L2850,1240 L2842.5,1237.5 L2842.5,1232.5 L2840,1225 L2837.5,1217.5 L2832.5,1210 L2830,1205 L2825,1197.5 L2820,1187.5 L2817.5,1182.5 L2810,1180 L2810,1177.5 L2810,1172.5 L2810,1170 L2810,1167.5 L2810,1165 L2812.5,1160 L2812.5,1160 L2812.5,1157.5 L2815,1155 L2815,1150 L2815,1150 L2815,1147.5 L2815,1142.5 L2812.5,1140 L2812.5,1137.5 L2810,1137.5 L2810,1135 L2805,1132.5 L2802.5,1130 L2807.5,1122.5 L2810,1117.5 L2810,1112.5 L2815,1107.5 L2817.5,1100 L2820,1095 L2822.5,1087.5 L2825,1082.5 L2827.5,1077.5 L2825,1070 L2825,1065 L2825,1057.5 L2825,1055 L2827.5,1052.5 L2827.5,1050 L2830,1047.5 L2830,1045 L2827.5,1045 L2822.5,1045 L2820,1047.5 L2815,1047.5 L2812.5,1047.5 L2810,1047.5 L2805,1050 L2800,1052.5 L2797.5,1055 L2790,1055 L2787.5,1057.5 L2780,1057.5 L2777.5,1055 L2775,1052.5 L2772.5,1047.5 L2767.5,1045 L2760,1045 L2760,1047.5 L2757.5,1052.5 L2752.5,1055 L2747.5,1057.5 L2737.5,1052.5 L2737.5,1052.5 L2730,1047.5 L2725,1047.5 L2720,1047.5 L2717.5,1045 L2715,1040 L2712.5,1037.5 L2712.5,1035 L2710,1030 L2710,1027.5 L2705,1025 L2700,1022.5 L2702.5,1017.5 L2705,1017.5 L2707.5,1020 L2710,1015 L2710,1012.5 L2707.5,1007.5 L2705,1007.5 L2702.5,1005 L2700,1005 L2700,1002.5 L2702.5,997.5 L2702.5,992.5 L2697.5,987.5Z"/>
</svg>