<?xml version="1.0" encoding="UTF-8"?>
<svg xmlns="http://www.w3.org/2000/svg" viewBox="3447.5 637.5 690 502.5" preserveAspectRatio="xMidYMid meet">
  <defs>
    <style>
      .territory {
        fill: #f4d03f;
        stroke: #333;
        stroke-width: 3;
        stroke-linejoin: round;
        stroke-linecap: round;
      }
    </style>
  </defs>
  <path id="mongolia" class="territory" d="M3505,812.5 L3510,820 L3517.5,830 L3522.5,840 L3525,850 L3532.5,855 L3542.5,860 L3552.5,862.5 L3562.5,862.5 L3570,862.5 L3585,865 L3590,872.5 L3597.5,877.5 L3605,882.5 L3612.5,885 L3625,892.5 L3635,895 L3645,902.5 L3650,905 L3660,907.5 L3665,907.5 L3670,915 L3675,920 L3677.5,925 L3685,925 L3690,927.5 L3697.5,927.5 L3700,932.5 L3697.5,940 L3692.5,942.5 L3690,947.5 L3687.5,952.5 L3697.5,957.5 L3707.5,957.5 L3715,955 L3720,957.5 L3722.5,965 L3725,972.5 L3727.5,967.5 L3730,960 L3732.5,955 L3740,950 L3745,945 L3750,942.5 L3765,942.5 L3777.5,945 L3785,947.5 L3792.5,950 L3797.5,950 L3800,945 L3805,935 L3807.5,932.5 L3810,932.5 L3820,935 L3825,932.5 L3827.5,927.5 L3832.5,925 L3837.5,925 L3837.5,922.5 L3842.5,915 L3842.5,907.5 L3845,907.5 L3852.5,907.5 L3860,912.5 L3867.5,920 L3875,925 L3880,930 L3890,937.5 L3900,942.5 L3905,947.5 L3912.5,955 L3915,967.5 L3920,975 L3925,980 L3927.5,985 L3930,982.5 L3937.5,982.5 L3945,985 L3942.5,992.5 L3932.5,1000 L3935,1007.5 L3935,1012.5 L3930,1012.5 L3927.5,1015 L3935,1015 L3942.5,1010 L3942.5,1007.5 L3955,1002.5 L3955,1000 L3962.5,997.5 L3970,997.5 L3975,1000 L3982.5,1002.5 L3982.5,1007.5 L3982.5,1012.5 L3980,1017.5 L3980,1022.5 L3980,1027.5 L3987.5,1027.5 L3992.5,1027.5 L4000,1035 L3997.5,1040 L3997.5,1047.5 L3997.5,1055 L3997.5,1062.5 L3995,1070 L3995,1077.5 L3997.5,1082.5 L4000,1082.5 L4005,1080 L4015,1077.5 L4015,1075 L4022.5,1075 L4025,1072.5 L4032.5,1072.5 L4035,1067.5 L4037.5,1057.5 L4037.5,1052.5 L4037.5,1045 L4035,1037.5 L4032.5,1032.5 L4030,1027.5 L4025,1020 L4020,1015 L4017.5,1010 L4012.5,1005 L4012.5,1000 L4015,997.5 L4017.5,997.5 L4022.5,995 L4025,992.5 L4030,987.5 L4035,985 L4037.5,982.5 L4042.5,980 L4042.5,975 L4042.5,972.5 L4047.5,965 L4052.5,957.5 L4057.5,955 L4062.5,950 L4067.5,947.5 L4072.5,940 L4075,930 L4075,922.5 L4075,915 L4072.5,905 L4075,900 L4075,892.5 L4072.5,885 L4072.5,875 L4070,867.5 L4067.5,862.5 L4070,860 L4075,855 L4077.5,850 L4080,845 L4080,840 L4077.5,835 L4072.5,830 L4067.5,827.5 L4062.5,825 L4062.5,820 L4062.5,815 L4060,812.5 L4055,812.5 L4047.5,812.5 L4042.5,815 L4037.5,820 L4032.5,822.5 L4027.5,822.5 L4017.5,822.5 L4007.5,817.5 L4000,815 L3992.5,810 L3987.5,802.5 L3982.5,795 L3977.5,787.5 L3975,785 L3967.5,780 L3960,775 L3955,772.5 L3947.5,767.5 L3942.5,762.5 L3935,757.5 L3930,750 L3925,745 L3920,740 L3912.5,735 L3907.5,727.5 L3900,717.5 L3890,710 L3885,705 L3880,702.5 L3870,700 L3865,697.5 L3855,695 L3852.5,695 L3845,695 L3842.5,700 L3842.5,715 L3845,720 L3850,730 L3852.5,735 L3850,745 L3845,755 L3842.5,760 L3832.5,760 L3825,755 L3815,750 L3805,747.5 L3800,747.5 L3792.5,745 L3782.5,745 L3772.5,747.5 L3760,747.5 L3750,747.5 L3735,750 L3730,750 L3720,752.5 L3707.5,755 L3697.5,757.5 L3690,760 L3680,757.5 L3665,755 L3645,752.5 L3635,750 L3625,752.5 L3617.5,750 L3607.5,750 L3600,750 L3592.5,747.5 L3585,747.5 L3580,750 L3580,757.5 L3580,762.5 L3572.5,770 L3565,770 L3552.5,770 L3545,765 L3530,762.5 L3527.5,770 L3525,780 L3525,787.5 L3520,797.5 L3515,807.5Z"/>
</svg>