<?xml version="1.0" encoding="UTF-8"?>
<svg xmlns="http://www.w3.org/2000/svg" viewBox="3869.5 1532 546 391" preserveAspectRatio="xMidYMid meet">
  <defs>
    <style>
      .territory {
        fill: #f4d03f;
        stroke: #333;
        stroke-width: 3;
        stroke-linejoin: round;
        stroke-linecap: round;
      }
    </style>
  </defs>
  <path id="new guinea" class="territory" d="M3915,1595 L3917.5,1590 L3922.5,1590 L3922.5,1595 L3927.5,1595 L3927.5,1600 L3925,1605 L3930,1602.5 L3932.5,1595 L3932.5,1592.5 L3940,1590 L3947.5,1585 L3950,1582.5 L3957.5,1580 L3965,1577.5 L3972.5,1585 L3980,1587.5 L3985,1590 L3992.5,1590 L3995,1592.5 L3995,1597.5 L4000,1605 L3997.5,1612.5 L3997.5,1620 L3997.5,1625 L3997.5,1630 L3997.5,1637.5 L4002.5,1645 L4005,1650 L4005,1642.5 L4007.5,1640 L4010,1645 L4010,1650 L4012.5,1652.5 L4012.5,1657.5 L4012.5,1660 L4015,1662.5 L4022.5,1665 L4027.5,1665 L4030,1660 L4035,1657.5 L4037.5,1652.5 L4040,1645 L4045,1642.5 L4047.5,1635 L4055,1632.5 L4060,1630 L4065,1630 L4065,1620 L4072.5,1615 L4077.5,1610 L4085,1612.5 L4092.5,1617.5 L4100,1620 L4102.5,1625 L4115,1630 L4117.5,1632.5 L4122.5,1635 L4132.5,1637.5 L4142.5,1637.5 L4147.5,1642.5 L4147.5,1645 L4152.5,1645 L4162.5,1647.5 L4170,1652.5 L4177.5,1657.5 L4187.5,1660 L4197.5,1665 L4207.5,1667.5 L4212.5,1672.5 L4220,1680 L4227.5,1677.5 L4232.5,1680 L4232.5,1685 L4240,1687.5 L4242.5,1695 L4250,1697.5 L4257.5,1707.5 L4260,1715 L4257.5,1725 L4260,1727.5 L4265,1725 L4270,1730 L4282.5,1737.5 L4292.5,1740 L4297.5,1742.5 L4302.5,1747.5 L4305,1755 L4305,1762.5 L4297.5,1765 L4290,1762.5 L4287.5,1765 L4287.5,1770 L4290,1777.5 L4292.5,1782.5 L4302.5,1800 L4307.5,1800 L4312.5,1807.5 L4315,1812.5 L4315,1817.5 L4320,1820 L4322.5,1830 L4325,1832.5 L4335,1830 L4340,1830 L4337.5,1835 L4337.5,1837.5 L4335,1840 L4340,1845 L4347.5,1847.5 L4352.5,1850 L4352.5,1852.5 L4350,1857.5 L4355,1860 L4365,1865 L4370,1865 L4370,1867.5 L4365,1867.5 L4367.5,1872.5 L4370,1875 L4365,1877.5 L4362.5,1877.5 L4357.5,1877.5 L4352.5,1875 L4355,1872.5 L4350,1870 L4347.5,1867.5 L4342.5,1867.5 L4337.5,1865 L4335,1865 L4330,1867.5 L4325,1862.5 L4320,1862.5 L4315,1862.5 L4307.5,1862.5 L4302.5,1860 L4297.5,1855 L4297.5,1850 L4292.5,1845 L4287.5,1842.5 L4287.5,1837.5 L4285,1830 L4280,1830 L4275,1827.5 L4275,1822.5 L4270,1815 L4267.5,1807.5 L4262.5,1800 L4255,1797.5 L4250,1797.5 L4245,1795 L4242.5,1795 L4240,1795 L4237.5,1790 L4235,1787.5 L4232.5,1787.5 L4230,1787.5 L4227.5,1790 L4222.5,1792.5 L4215,1792.5 L4215,1787.5 L4215,1795 L4215,1797.5 L4215,1802.5 L4210,1800 L4207.5,1800 L4210,1805 L4207.5,1807.5 L4200,1810 L4192.5,1807.5 L4190,1807.5 L4185,1807.5 L4185,1810 L4187.5,1812.5 L4187.5,1810 L4192.5,1812.5 L4197.5,1812.5 L4200,1815 L4207.5,1812.5 L4205,1815 L4210,1817.5 L4202.5,1817.5 L4205,1822.5 L4205,1825 L4202.5,1830 L4197.5,1832.5 L4192.5,1837.5 L4187.5,1837.5 L4185,1835 L4175,1835 L4167.5,1837.5 L4165,1837.5 L4162.5,1835 L4155,1837.5 L4152.5,1832.5 L4145,1830 L4142.5,1822.5 L4137.5,1817.5 L4132.5,1812.5 L4130,1807.5 L4130,1802.5 L4122.5,1805 L4120,1805 L4112.5,1805 L4112.5,1800 L4110,1805 L4105,1805 L4102.5,1805 L4100,1805 L4105,1807.5 L4102.5,1810 L4097.5,1810 L4100,1807.5 L4097.5,1807.5 L4092.5,1812.5 L4087.5,1810 L4075,1812.5 L4077.5,1807.5 L4075,1807.5 L4080,1800 L4085,1787.5 L4092.5,1782.5 L4097.5,1782.5 L4102.5,1782.5 L4107.5,1792.5 L4107.5,1790 L4105,1782.5 L4100,1777.5 L4105,1777.5 L4100,1775 L4097.5,1770 L4097.5,1767.5 L4102.5,1767.5 L4100,1765 L4097.5,1762.5 L4095,1757.5 L4092.5,1752.5 L4092.5,1747.5 L4087.5,1737.5 L4087.5,1732.5 L4085,1727.5 L4077.5,1720 L4070,1715 L4060,1710 L4052.5,1707.5 L4045,1705 L4035,1700 L4025,1697.5 L4020,1697.5 L4015,1695 L4012.5,1690 L4010,1687.5 L4010,1685 L4010,1682.5 L4005,1685 L4005,1682.5 L4000,1682.5 L3997.5,1680 L3997.5,1680 L3992.5,1680 L3990,1675 L3987.5,1675 L3985,1670 L3987.5,1665 L3990,1657.5 L3990,1655 L3987.5,1657.5 L3985,1665 L3985,1670 L3982.5,1672.5 L3980,1677.5 L3980,1680 L3977.5,1687.5 L3972.5,1685 L3967.5,1685 L3965,1680 L3965,1677.5 L3965,1672.5 L3967.5,1670 L3967.5,1670 L3965,1667.5 L3962.5,1660 L3957.5,1657.5 L3957.5,1655 L3952.5,1655 L3950,1652.5 L3950,1650 L3950,1645 L3952.5,1645 L3960,1647.5 L3967.5,1647.5 L3970,1645 L3972.5,1640 L3975,1640 L3977.5,1637.5 L3977.5,1642.5 L3982.5,1642.5 L3985,1645 L3987.5,1642.5 L3987.5,1640 L3990,1637.5 L3990,1637.5 L3990,1635 L3990,1632.5 L3987.5,1630 L3982.5,1632.5 L3975,1632.5 L3967.5,1635 L3960,1632.5 L3955,1632.5 L3950,1630 L3947.5,1622.5 L3947.5,1617.5 L3942.5,1612.5 L3937.5,1612.5 L3935,1607.5 L3930,1612.5 L3927.5,1610 L3927.5,1607.5 L3927.5,1605 L3925,1607.5 L3922.5,1605 L3920,1600 L3920,1595 L3917.5,1595Z"/>
</svg>