<?xml version="1.0" encoding="UTF-8"?>
<svg xmlns="http://www.w3.org/2000/svg" viewBox="2080.75 983.25 633.5 651" preserveAspectRatio="xMidYMid meet">
  <defs>
    <style>
      .territory {
        fill: #f4d03f;
        stroke: #333;
        stroke-width: 3;
        stroke-linejoin: round;
        stroke-linecap: round;
      }
    </style>
  </defs>
  <path id="north africa" class="territory" d="M2285,1062.5 L2292.5,1062.5 L2292.5,1062.5 L2297.5,1067.5 L2300,1067.5 L2300,1070 L2305,1070 L2310,1070 L2315,1070 L2317.5,1070 L2322.5,1070 L2322.5,1067.5 L2327.5,1070 L2330,1070 L2337.5,1072.5 L2340,1070 L2342.5,1067.5 L2345,1065 L2347.5,1065 L2350,1060 L2355,1060 L2362.5,1060 L2362.5,1057.5 L2365,1052.5 L2372.5,1050 L2377.5,1047.5 L2390,1047.5 L2395,1047.5 L2400,1045 L2402.5,1042.5 L2405,1045 L2410,1045 L2417.5,1045 L2425,1042.5 L2432.5,1047.5 L2432.5,1047.5 L2435,1047.5 L2440,1045 L2442.5,1042.5 L2445,1042.5 L2447.5,1040 L2452.5,1042.5 L2455,1042.5 L2455,1042.5 L2460,1040 L2460,1042.5 L2470,1042.5 L2470,1042.5 L2475,1042.5 L2482.5,1040 L2485,1037.5 L2495,1037.5 L2495,1040 L2495,1040 L2497.5,1045 L2500,1042.5 L2502.5,1040 L2505,1042.5 L2505,1045 L2502.5,1047.5 L2500,1050 L2497.5,1052.5 L2497.5,1055 L2500,1060 L2505,1062.5 L2505,1065 L2505,1067.5 L2505,1070 L2502.5,1075 L2500,1077.5 L2497.5,1080 L2495,1082.5 L2492.5,1085 L2490,1090 L2490,1092.5 L2487.5,1097.5 L2485,1102.5 L2485,1105 L2485,1110 L2485,1115 L2485,1120 L2482.5,1122.5 L2477.5,1125 L2475,1130 L2475,1132.5 L2475,1137.5 L2472.5,1142.5 L2472.5,1145 L2470,1150 L2467.5,1157.5 L2467.5,1162.5 L2467.5,1167.5 L2465,1172.5 L2460,1177.5 L2460,1182.5 L2460,1187.5 L2462.5,1192.5 L2465,1195 L2467.5,1197.5 L2475,1202.5 L2485,1205 L2490,1207.5 L2492.5,1210 L2500,1212.5 L2502.5,1212.5 L2510,1212.5 L2515,1210 L2520,1210 L2525,1210 L2530,1207.5 L2535,1207.5 L2542.5,1212.5 L2550,1215 L2552.5,1220 L2557.5,1225 L2562.5,1230 L2567.5,1232.5 L2572.5,1235 L2577.5,1237.5 L2582.5,1240 L2587.5,1245 L2590,1245 L2595,1247.5 L2595,1250 L2600,1257.5 L2607.5,1262.5 L2610,1265 L2615,1267.5 L2620,1270 L2625,1275 L2627.5,1277.5 L2635,1280 L2637.5,1282.5 L2645,1285 L2650,1287.5 L2647.5,1295 L2645,1302.5 L2645,1305 L2642.5,1312.5 L2642.5,1317.5 L2642.5,1325 L2642.5,1330 L2642.5,1335 L2640,1337.5 L2637.5,1340 L2635,1342.5 L2630,1345 L2630,1347.5 L2622.5,1350 L2620,1357.5 L2620,1362.5 L2620,1370 L2627.5,1377.5 L2627.5,1382.5 L2627.5,1390 L2630,1397.5 L2632.5,1402.5 L2635,1410 L2640,1415 L2642.5,1420 L2647.5,1425 L2652.5,1430 L2652.5,1435 L2652.5,1440 L2652.5,1445 L2657.5,1452.5 L2660,1460 L2660,1465 L2650,1470 L2647.5,1472.5 L2642.5,1475 L2635,1480 L2630,1482.5 L2625,1487.5 L2622.5,1487.5 L2617.5,1492.5 L2612.5,1495 L2607.5,1500 L2605,1502.5 L2602.5,1505 L2597.5,1510 L2592.5,1512.5 L2585,1517.5 L2577.5,1517.5 L2570,1517.5 L2562.5,1517.5 L2557.5,1520 L2555,1525 L2555,1535 L2557.5,1540 L2560,1547.5 L2565,1555 L2570,1560 L2575,1562.5 L2577.5,1567.5 L2577.5,1570 L2572.5,1575 L2570,1575 L2565,1577.5 L2555,1577.5 L2547.5,1577.5 L2540,1580 L2532.5,1580 L2527.5,1580 L2522.5,1580 L2515,1577.5 L2507.5,1577.5 L2502.5,1580 L2497.5,1580 L2490,1580 L2490,1575 L2490,1572.5 L2490,1570 L2487.5,1565 L2485,1562.5 L2485,1557.5 L2487.5,1557.5 L2487.5,1552.5 L2485,1555 L2482.5,1555 L2477.5,1552.5 L2477.5,1550 L2475,1545 L2472.5,1545 L2472.5,1545 L2472.5,1545 L2470,1542.5 L2467.5,1545 L2465,1545 L2460,1545 L2460,1545 L2452.5,1545 L2450,1547.5 L2445,1547.5 L2437.5,1550 L2437.5,1550 L2435,1545 L2435,1542.5 L2430,1537.5 L2430,1535 L2427.5,1530 L2427.5,1527.5 L2425,1522.5 L2422.5,1520 L2420,1520 L2417.5,1517.5 L2410,1517.5 L2405,1517.5 L2395,1517.5 L2387.5,1520 L2382.5,1520 L2377.5,1525 L2375,1525 L2372.5,1527.5 L2367.5,1527.5 L2362.5,1530 L2352.5,1532.5 L2347.5,1537.5 L2342.5,1540 L2340,1542.5 L2337.5,1542.5 L2332.5,1542.5 L2325,1540 L2317.5,1537.5 L2312.5,1537.5 L2310,1535 L2302.5,1535 L2297.5,1537.5 L2292.5,1540 L2292.5,1540 L2287.5,1540 L2280,1540 L2280,1542.5 L2275,1545 L2272.5,1545 L2270,1547.5 L2265,1550 L2260,1547.5 L2257.5,1547.5 L2252.5,1545 L2250,1545 L2247.5,1542.5 L2245,1540 L2242.5,1537.5 L2237.5,1535 L2235,1530 L2232.5,1527.5 L2227.5,1522.5 L2222.5,1517.5 L2217.5,1515 L2212.5,1512.5 L2210,1507.5 L2205,1505 L2202.5,1502.5 L2200,1500 L2195,1495 L2195,1495 L2195,1492.5 L2192.5,1490 L2190,1490 L2192.5,1485 L2192.5,1482.5 L2190,1482.5 L2190,1477.5 L2187.5,1472.5 L2187.5,1470 L2185,1467.5 L2182.5,1467.5 L2182.5,1462.5 L2180,1462.5 L2177.5,1460 L2175,1457.5 L2172.5,1455 L2172.5,1452.5 L2170,1447.5 L2167.5,1447.5 L2167.5,1447.5 L2165,1447.5 L2165,1445 L2162.5,1442.5 L2162.5,1440 L2162.5,1440 L2162.5,1437.5 L2160,1435 L2160,1432.5 L2157.5,1432.5 L2155,1432.5 L2152.5,1432.5 L2147.5,1427.5 L2147.5,1427.5 L2145,1425 L2145,1425 L2150,1422.5 L2147.5,1420 L2145,1417.5 L2145,1415 L2145,1412.5 L2145,1410 L2147.5,1410 L2147.5,1407.5 L2147.5,1402.5 L2147.5,1400 L2147.5,1397.5 L2145,1397.5 L2142.5,1392.5 L2140,1390 L2137.5,1390 L2137.5,1387.5 L2135,1387.5 L2137.5,1385 L2142.5,1380 L2142.5,1377.5 L2145,1372.5 L2147.5,1370 L2147.5,1367.5 L2147.5,1362.5 L2147.5,1357.5 L2150,1352.5 L2152.5,1347.5 L2155,1342.5 L2155,1335 L2155,1330 L2152.5,1325 L2152.5,1322.5 L2150,1317.5 L2150,1315 L2150,1312.5 L2150,1307.5 L2150,1305 L2150,1300 L2150,1297.5 L2150,1297.5 L2147.5,1297.5 L2147.5,1295 L2145,1292.5 L2142.5,1290 L2142.5,1292.5 L2142.5,1292.5 L2140,1292.5 L2140,1287.5 L2140,1285 L2142.5,1280 L2142.5,1275 L2142.5,1272.5 L2145,1270 L2147.5,1267.5 L2150,1257.5 L2152.5,1252.5 L2155,1245 L2157.5,1242.5 L2157.5,1237.5 L2165,1232.5 L2167.5,1232.5 L2170,1227.5 L2170,1220 L2175,1212.5 L2177.5,1207.5 L2180,1205 L2185,1200 L2190,1195 L2195,1187.5 L2197.5,1182.5 L2200,1180 L2207.5,1177.5 L2215,1175 L2222.5,1170 L2227.5,1162.5 L2232.5,1157.5 L2235,1150 L2235,1147.5 L2235,1142.5 L2235,1140 L2235,1132.5 L2237.5,1125 L2240,1122.5 L2240,1117.5 L2242.5,1112.5 L2242.5,1107.5 L2245,1105 L2250,1100 L2252.5,1097.5 L2255,1097.5 L2262.5,1092.5 L2267.5,1092.5 L2272.5,1087.5 L2275,1085 L2277.5,1080 L2282.5,1070 L2282.5,1065Z"/>
</svg>