<?xml version="1.0" encoding="UTF-8"?>
<svg xmlns="http://www.w3.org/2000/svg" viewBox="2365.25 692.75 327 227" preserveAspectRatio="xMidYMid meet">
  <defs>
    <style>
      .territory {
        fill: #f4d03f;
        stroke: #333;
        stroke-width: 3;
        stroke-linejoin: round;
        stroke-linecap: round;
      }
    </style>
  </defs>
  <path id="northern europe" class="territory" d="M2450,885 L2450,880 L2452.5,875 L2455,872.5 L2455,867.5 L2455,865 L2455,860 L2455,857.5 L2452.5,855 L2450,852.5 L2447.5,852.5 L2442.5,852.5 L2435,852.5 L2432.5,850 L2427.5,850 L2422.5,847.5 L2417.5,845 L2415,840 L2410,837.5 L2405,835 L2400,832.5 L2397.5,827.5 L2392.5,825 L2397.5,822.5 L2400,822.5 L2402.5,820 L2407.5,817.5 L2410,815 L2412.5,812.5 L2415,810 L2420,807.5 L2420,805 L2422.5,797.5 L2422.5,795 L2425,795 L2425,795 L2427.5,797.5 L2427.5,800 L2430,802.5 L2432.5,802.5 L2435,802.5 L2435,800 L2432.5,797.5 L2432.5,795 L2432.5,792.5 L2435,790 L2442.5,787.5 L2445,787.5 L2450,787.5 L2452.5,787.5 L2457.5,790 L2455,790 L2455,785 L2457.5,782.5 L2460,782.5 L2462.5,782.5 L2465,785 L2470,787.5 L2470,785 L2472.5,787.5 L2475,785 L2475,780 L2477.5,780 L2480,780 L2477.5,777.5 L2477.5,777.5 L2475,775 L2472.5,772.5 L2475,772.5 L2477.5,770 L2475,767.5 L2475,767.5 L2475,765 L2472.5,762.5 L2472.5,762.5 L2472.5,760 L2472.5,755 L2470,755 L2467.5,752.5 L2467.5,750 L2470,747.5 L2467.5,747.5 L2467.5,747.5 L2465,745 L2465,742.5 L2467.5,740 L2467.5,737.5 L2470,740 L2472.5,740 L2475,737.5 L2477.5,737.5 L2480,735 L2480,735 L2480,737.5 L2480,735 L2480,732.5 L2480,732.5 L2480,732.5 L2477.5,732.5 L2475,732.5 L2472.5,735 L2472.5,737.5 L2470,735 L2470,732.5 L2470,732.5 L2472.5,730 L2477.5,730 L2482.5,730 L2485,727.5 L2487.5,725 L2490,722.5 L2492.5,722.5 L2497.5,722.5 L2500,720 L2497.5,722.5 L2497.5,725 L2497.5,727.5 L2497.5,730 L2495,732.5 L2495,735 L2495,737.5 L2495,740 L2502.5,737.5 L2502.5,740 L2502.5,745 L2500,747.5 L2500,745 L2497.5,745 L2495,747.5 L2490,747.5 L2490,750 L2487.5,755 L2487.5,755 L2492.5,752.5 L2495,752.5 L2497.5,752.5 L2500,755 L2502.5,757.5 L2500,762.5 L2495,762.5 L2492.5,760 L2492.5,760 L2490,760 L2487.5,757.5 L2487.5,757.5 L2487.5,757.5 L2485,760 L2485,762.5 L2487.5,762.5 L2492.5,762.5 L2490,765 L2490,767.5 L2490,767.5 L2490,770 L2492.5,770 L2495,772.5 L2497.5,772.5 L2500,772.5 L2502.5,772.5 L2505,775 L2505,775 L2502.5,777.5 L2502.5,777.5 L2505,780 L2507.5,777.5 L2510,777.5 L2512.5,777.5 L2515,775 L2517.5,775 L2520,775 L2522.5,772.5 L2525,770 L2527.5,772.5 L2530,775 L2535,775 L2535,775 L2537.5,775 L2540,775 L2540,777.5 L2542.5,780 L2545,782.5 L2545,782.5 L2550,782.5 L2550,782.5 L2550,782.5 L2545,780 L2545,780 L2542.5,777.5 L2545,777.5 L2547.5,777.5 L2547.5,780 L2550,777.5 L2555,777.5 L2557.5,777.5 L2557.5,775 L2562.5,775 L2565,775 L2570,775 L2570,775 L2572.5,772.5 L2575,770 L2582.5,770 L2585,767.5 L2587.5,767.5 L2590,765 L2592.5,765 L2595,765 L2600,765 L2600,767.5 L2602.5,770 L2605,772.5 L2612.5,772.5 L2612.5,772.5 L2620,772.5 L2622.5,770 L2622.5,767.5 L2620,767.5 L2617.5,767.5 L2617.5,765 L2620,762.5 L2625,762.5 L2630,762.5 L2632.5,762.5 L2632.5,765 L2637.5,765 L2640,767.5 L2640,770 L2640,772.5 L2642.5,777.5 L2642.5,782.5 L2645,787.5 L2647.5,790 L2647.5,792.5 L2650,797.5 L2650,800 L2652.5,802.5 L2652.5,805 L2655,807.5 L2657.5,810 L2660,810 L2662.5,815 L2665,817.5 L2665,820 L2662.5,825 L2662.5,827.5 L2660,830 L2657.5,832.5 L2652.5,837.5 L2647.5,840 L2645,842.5 L2642.5,845 L2640,850 L2640,857.5 L2640,862.5 L2637.5,867.5 L2632.5,870 L2630,870 L2627.5,872.5 L2622.5,875 L2620,877.5 L2612.5,882.5 L2610,882.5 L2605,885 L2600,887.5 L2595,887.5 L2590,890 L2585,890 L2580,890 L2577.5,887.5 L2572.5,887.5 L2570,885 L2570,880 L2570,877.5 L2570,872.5 L2570,867.5 L2567.5,862.5 L2567.5,860 L2565,860 L2560,857.5 L2557.5,860 L2552.5,860 L2547.5,862.5 L2545,862.5 L2540,862.5 L2537.5,865 L2530,865 L2527.5,865 L2525,867.5 L2520,867.5 L2515,870 L2510,872.5 L2510,875 L2505,877.5 L2502.5,880 L2497.5,880 L2492.5,882.5 L2490,882.5 L2485,882.5 L2482.5,882.5 L2475,882.5 L2472.5,882.5 L2467.5,882.5 L2462.5,885 L2457.5,887.5 L2452.5,890 L2447.5,892.5 M2510,747.5 L2512.5,747.5 L2515,750 L2517.5,750 L2517.5,747.5 L2520,745 L2522.5,745 L2525,747.5 L2525,750 L2522.5,752.5 L2520,755 L2520,757.5 L2522.5,757.5 L2520,760 L2520,760 L2517.5,762.5 L2517.5,765 L2517.5,767.5 L2512.5,767.5 L2510,767.5 L2507.5,767.5 L2502.5,767.5 L2502.5,765 L2505,765 L2510,765 L2510,765 L2512.5,765 L2515,762.5 L2512.5,762.5 L2510,760 L2510,760 L2507.5,760 L2507.5,757.5 L2505,757.5 L2505,755 L2505,755 L2505,752.5 L2505,750 L2505,750 L2507.5,750 L2510,750Z"/>
</svg>