<?xml version="1.0" encoding="UTF-8"?>
<svg xmlns="http://www.w3.org/2000/svg" viewBox="496 391 888 360.5" preserveAspectRatio="xMidYMid meet">
  <defs>
    <style>
      .territory {
        fill: #f4d03f;
        stroke: #333;
        stroke-width: 3;
        stroke-linejoin: round;
        stroke-linecap: round;
      }
    </style>
  </defs>
  <path id="northwest territory" class="territory" d="M640,550 L635,555 L632.5,562.5 L625,570 L620,580 L615,587.5 L610,597.5 L607.5,602.5 L605,607.5 L597.5,620 L587.5,632.5 L585,640 L577.5,650 L572.5,657.5 L570,662.5 L570,667.5 L570,672.5 L572.5,672.5 L577.5,672.5 L582.5,672.5 L587.5,672.5 L592.5,675 L600,677.5 L607.5,677.5 L622.5,677.5 L630,677.5 L652.5,675 L667.5,675 L682.5,675 L697.5,675 L715,677.5 L732.5,677.5 L747.5,677.5 L775,675 L795,675 L810,675 L830,675 L850,675 L872.5,677.5 L885,675 L905,675 L927.5,675 L950,675 L962.5,675 L990,675 L1002.5,675 L1020,675 L1030,675 L1052.5,675 L1070,675 L1090,675 L1095,677.5 L1102.5,677.5 L1112.5,677.5 L1120,677.5 L1132.5,677.5 L1137.5,677.5 L1142.5,670 L1145,667.5 L1145,667.5 L1145,662.5 L1147.5,660 L1150,660 L1152.5,657.5 L1152.5,655 L1152.5,655 L1155,652.5 L1157.5,652.5 L1160,652.5 L1160,650 L1162.5,650 L1162.5,647.5 L1165,645 L1167.5,647.5 L1172.5,645 L1170,642.5 L1165,640 L1170,642.5 L1172.5,640 L1172.5,640 L1177.5,640 L1185,640 L1187.5,637.5 L1187.5,635 L1185,632.5 L1185,632.5 L1185,630 L1190,630 L1195,627.5 L1195,627.5 L1195,625 L1195,622.5 L1197.5,622.5 L1202.5,622.5 L1210,622.5 L1207.5,622.5 L1215,622.5 L1225,620 L1227.5,617.5 L1230,610 L1235,607.5 L1237.5,605 L1232.5,602.5 L1222.5,602.5 L1212.5,602.5 L1207.5,602.5 L1205,600 L1200,597.5 L1195,595 L1182.5,595 L1180,592.5 L1187.5,590 L1195,592.5 L1202.5,592.5 L1210,597.5 L1215,600 L1222.5,600 L1227.5,602.5 L1240,597.5 L1245,592.5 L1247.5,592.5 L1247.5,590 L1242.5,587.5 L1237.5,585 L1237.5,585 L1245,585 L1255,582.5 L1262.5,585 L1265,587.5 L1265,587.5 L1270,587.5 L1272.5,587.5 L1275,587.5 L1272.5,585 L1270,582.5 L1277.5,582.5 L1280,585 L1282.5,585 L1290,582.5 L1295,582.5 L1297.5,580 L1302.5,577.5 L1305,577.5 L1307.5,575 L1310,570 L1307.5,565 L1300,562.5 L1297.5,560 L1295,557.5 L1295,552.5 L1300,552.5 L1302.5,552.5 L1307.5,552.5 L1310,550 L1310,547.5 L1307.5,547.5 L1307.5,545 L1307.5,540 L1302.5,540 L1297.5,540 L1295,537.5 L1295,535 L1290,532.5 L1282.5,535 L1277.5,535 L1275,532.5 L1270,532.5 L1267.5,532.5 L1262.5,532.5 L1255,532.5 L1255,537.5 L1262.5,542.5 L1265,545 L1262.5,545 L1257.5,550 L1252.5,550 L1250,552.5 L1250,555 L1247.5,560 L1245,562.5 L1245,560 L1242.5,555 L1237.5,557.5 L1235,560 L1237.5,565 L1240,565 L1240,567.5 L1235,570 L1232.5,572.5 L1230,575 L1230,570 L1222.5,565 L1220,560 L1220,555 L1227.5,555 L1225,550 L1222.5,547.5 L1217.5,545 L1212.5,542.5 L1205,540 L1197.5,545 L1200,550 L1200,555 L1195,557.5 L1190,555 L1190,550 L1190,547.5 L1187.5,545 L1185,542.5 L1185,540 L1185,540 L1187.5,540 L1182.5,537.5 L1175,537.5 L1167.5,537.5 L1160,535 L1160,535 L1167.5,532.5 L1167.5,530 L1167.5,527.5 L1172.5,527.5 L1172.5,525 L1167.5,522.5 L1165,520 L1162.5,517.5 L1160,512.5 L1160,510 L1152.5,505 L1150,505 L1145,502.5 L1140,502.5 L1137.5,500 L1137.5,497.5 L1145,497.5 L1147.5,495 L1150,490 L1142.5,485 L1150,485 L1157.5,485 L1167.5,485 L1175,485 L1182.5,477.5 L1190,472.5 L1192.5,470 L1187.5,467.5 L1172.5,467.5 L1170,467.5 L1162.5,467.5 L1155,465 L1150,467.5 L1142.5,467.5 L1135,467.5 L1127.5,467.5 L1132.5,472.5 L1135,472.5 L1127.5,472.5 L1125,472.5 L1122.5,477.5 L1122.5,485 L1125,490 L1127.5,495 L1130,500 L1127.5,502.5 L1122.5,505 L1122.5,507.5 L1125,510 L1117.5,510 L1115,510 L1112.5,517.5 L1120,520 L1117.5,522.5 L1115,525 L1115,530 L1122.5,532.5 L1130,535 L1140,537.5 L1142.5,537.5 L1152.5,540 L1142.5,540 L1142.5,542.5 L1140,545 L1135,547.5 L1140,550 L1147.5,547.5 L1152.5,547.5 L1150,552.5 L1140,555 L1140,557.5 L1135,560 L1125,560 L1122.5,565 L1130,570 L1130,575 L1127.5,577.5 L1125,572.5 L1122.5,572.5 L1117.5,572.5 L1117.5,570 L1117.5,562.5 L1117.5,560 L1115,557.5 L1112.5,560 L1112.5,555 L1107.5,555 L1105,555 L1110,550 L1117.5,552.5 L1127.5,550 L1117.5,542.5 L1115,540 L1110,537.5 L1102.5,537.5 L1100,535 L1092.5,532.5 L1087.5,540 L1082.5,542.5 L1077.5,545 L1072.5,542.5 L1077.5,547.5 L1087.5,550 L1095,552.5 L1095,555 L1090,555 L1090,557.5 L1085,560 L1085,562.5 L1080,565 L1072.5,565 L1067.5,565 L1062.5,565 L1055,565 L1050,565 L1035,565 L1032.5,562.5 L1025,560 L1020,557.5 L1010,560 L1005,557.5 L1000,555 L995,555 L997.5,550 L995,550 L990,547.5 L982.5,547.5 L977.5,550 L970,550 L962.5,552.5 L957.5,555 L955,557.5 L965,555 L972.5,555 L975,557.5 L977.5,555 L982.5,552.5 L987.5,550 L990,552.5 L982.5,560 L972.5,560 L965,560 L962.5,567.5 L970,570 L972.5,575 L972.5,580 L967.5,585 L962.5,580 L960,577.5 L967.5,572.5 L960,572.5 L957.5,567.5 L955,567.5 L952.5,567.5 L947.5,565 L935,565 L935,562.5 L922.5,565 L912.5,565 L895,565 L892.5,565 L885,565 L872.5,565 L867.5,562.5 L870,557.5 L875,557.5 L885,557.5 L887.5,552.5 L882.5,550 L877.5,550 L872.5,547.5 L862.5,545 L855,547.5 L850,550 L845,545 L835,542.5 L825,542.5 L815,540 L805,540 L797.5,537.5 L790,532.5 L785,535 L775,532.5 L767.5,532.5 L765,537.5 L762.5,540 L755,540 L750,540 L755,535 L752.5,532.5 L750,530 L750,527.5 L745,530 L742.5,532.5 L740,532.5 L737.5,537.5 L730,537.5 L727.5,535 L722.5,532.5 L715,527.5 L712.5,525 L707.5,520 L702.5,520 L705,522.5 L707.5,525 L705,527.5 L697.5,530 L692.5,532.5 L692.5,535 L692.5,530 L690,530 L682.5,532.5 L677.5,532.5 L675,535 L672.5,537.5 L667.5,542.5 L667.5,540 L662.5,537.5 L657.5,540 L652.5,542.5 L647.5,542.5 L645,545 L645,547.5Z"/>
</svg>