<?xml version="1.0" encoding="UTF-8"?>
<svg xmlns="http://www.w3.org/2000/svg" viewBox="972.5 640 450 362.5" preserveAspectRatio="xMidYMid meet">
  <defs>
    <style>
      .territory {
        fill: #f4d03f;
        stroke: #333;
        stroke-width: 3;
        stroke-linejoin: round;
        stroke-linecap: round;
      }
    </style>
  </defs>
  <path id="ontario" class="territory" d="M1095,682.5 L1095,687.5 L1092.5,692.5 L1090,697.5 L1087.5,705 L1085,710 L1082.5,712.5 L1080,720 L1077.5,730 L1072.5,740 L1072.5,745 L1070,752.5 L1065,760 L1062.5,767.5 L1057.5,772.5 L1057.5,780 L1052.5,785 L1050,790 L1047.5,800 L1045,802.5 L1042.5,810 L1037.5,817.5 L1035,825 L1035,832.5 L1030,837.5 L1027.5,842.5 L1027.5,847.5 L1025,850 L1022.5,855 L1022.5,860 L1020,865 L1017.5,872.5 L1015,877.5 L1012.5,880 L1010,885 L1012.5,885 L1015,885 L1022.5,885 L1030,885 L1037.5,887.5 L1047.5,887.5 L1052.5,887.5 L1062.5,885 L1067.5,885 L1072.5,887.5 L1077.5,887.5 L1085,887.5 L1092.5,887.5 L1097.5,887.5 L1105,887.5 L1115,887.5 L1122.5,887.5 L1127.5,885 L1140,885 L1147.5,885 L1155,885 L1160,885 L1167.5,885 L1177.5,885 L1180,882.5 L1185,880 L1192.5,877.5 L1195,875 L1202.5,875 L1207.5,872.5 L1207.5,867.5 L1207.5,862.5 L1210,862.5 L1212.5,865 L1215,862.5 L1217.5,862.5 L1220,865 L1222.5,860 L1220,857.5 L1222.5,857.5 L1230,857.5 L1232.5,860 L1237.5,860 L1242.5,860 L1242.5,860 L1245,865 L1247.5,867.5 L1250,870 L1250,870 L1252.5,872.5 L1257.5,872.5 L1260,872.5 L1262.5,872.5 L1265,875 L1262.5,877.5 L1265,880 L1267.5,882.5 L1267.5,882.5 L1265,885 L1265,887.5 L1267.5,887.5 L1267.5,890 L1267.5,892.5 L1270,895 L1275,897.5 L1282.5,900 L1285,900 L1290,900 L1295,900 L1300,900 L1305,902.5 L1305,902.5 L1307.5,902.5 L1315,905 L1317.5,907.5 L1322.5,910 L1325,915 L1327.5,920 L1330,922.5 L1327.5,922.5 L1327.5,925 L1327.5,925 L1325,927.5 L1322.5,925 L1320,925 L1317.5,922.5 L1315,922.5 L1315,920 L1310,917.5 L1310,917.5 L1307.5,915 L1305,917.5 L1307.5,922.5 L1310,925 L1305,932.5 L1302.5,935 L1305,940 L1305,942.5 L1300,947.5 L1297.5,947.5 L1295,950 L1292.5,945 L1292.5,950 L1290,950 L1290,952.5 L1292.5,955 L1292.5,957.5 L1295,960 L1292.5,960 L1290,960 L1287.5,960 L1285,962.5 L1285,965 L1290,965 L1292.5,965 L1292.5,965 L1295,965 L1297.5,960 L1300,960 L1302.5,957.5 L1305,955 L1312.5,955 L1315,955 L1317.5,955 L1320,955 L1322.5,955 L1325,952.5 L1330,952.5 L1330,950 L1332.5,947.5 L1332.5,947.5 L1330,945 L1330,942.5 L1332.5,940 L1335,940 L1335,937.5 L1337.5,935 L1342.5,935 L1347.5,935 L1352.5,932.5 L1357.5,932.5 L1360,932.5 L1365,935 L1367.5,935 L1362.5,932.5 L1360,930 L1362.5,930 L1367.5,930 L1370,930 L1375,930 L1377.5,930 L1380,930 L1382.5,927.5 L1385,925 L1380,922.5 L1375,920 L1372.5,915 L1367.5,910 L1362.5,907.5 L1357.5,905 L1350,900 L1345,895 L1340,892.5 L1332.5,887.5 L1327.5,885 L1320,882.5 L1315,877.5 L1310,875 L1312.5,865 L1315,855 L1317.5,847.5 L1322.5,840 L1325,832.5 L1325,827.5 L1327.5,822.5 L1325,820 L1320,820 L1320,817.5 L1320,815 L1317.5,812.5 L1312.5,807.5 L1307.5,805 L1302.5,802.5 L1302.5,802.5 L1302.5,800 L1300,795 L1297.5,790 L1297.5,790 L1300,785 L1300,782.5 L1297.5,780 L1295,777.5 L1295,775 L1295,772.5 L1297.5,767.5 L1297.5,767.5 L1295,762.5 L1292.5,760 L1282.5,757.5 L1275,757.5 L1270,757.5 L1262.5,757.5 L1260,757.5 L1257.5,757.5 L1250,752.5 L1245,750 L1237.5,750 L1230,747.5 L1227.5,747.5 L1222.5,742.5 L1220,737.5 L1215,735 L1210,735 L1197.5,730 L1190,730 L1190,730 L1187.5,727.5 L1180,727.5 L1172.5,730 L1170,730 L1165,730 L1162.5,730 L1167.5,727.5 L1167.5,727.5 L1165,725 L1165,722.5 L1162.5,715 L1157.5,712.5 L1155,707.5 L1157.5,705 L1152.5,702.5 L1145,702.5 L1142.5,707.5 L1142.5,705 L1137.5,702.5 L1137.5,702.5 L1135,700 L1135,697.5 L1135,697.5 L1137.5,695 L1135,692.5 L1135,685 L1137.5,682.5 L1137.5,677.5 L1132.5,677.5 L1120,677.5 L1112.5,677.5 L1102.5,677.5Z"/>
</svg>