<?xml version="1.0" encoding="UTF-8"?>
<svg xmlns="http://www.w3.org/2000/svg" viewBox="1267.5 1567.5 435 450" preserveAspectRatio="xMidYMid meet">
  <defs>
    <style>
      .territory {
        fill: #f4d03f;
        stroke: #333;
        stroke-width: 3;
        stroke-linejoin: round;
        stroke-linecap: round;
      }
    </style>
  </defs>
  <path id="peru" class="territory" d="M1327.5,1605 L1332.5,1605 L1335,1607.5 L1340,1607.5 L1350,1610 L1357.5,1610 L1362.5,1607.5 L1367.5,1607.5 L1375,1610 L1377.5,1612.5 L1387.5,1620 L1392.5,1622.5 L1397.5,1632.5 L1405,1637.5 L1412.5,1637.5 L1417.5,1637.5 L1425,1632.5 L1432.5,1637.5 L1437.5,1645 L1440,1650 L1440,1652.5 L1445,1655 L1437.5,1655 L1432.5,1655 L1430,1655 L1427.5,1657.5 L1420,1657.5 L1415,1660 L1412.5,1665 L1407.5,1667.5 L1405,1675 L1402.5,1680 L1397.5,1687.5 L1397.5,1692.5 L1395,1700 L1395,1707.5 L1397.5,1712.5 L1400,1717.5 L1402.5,1725 L1407.5,1730 L1412.5,1730 L1417.5,1732.5 L1420,1732.5 L1425,1732.5 L1427.5,1732.5 L1430,1737.5 L1432.5,1745 L1435,1750 L1440,1752.5 L1442.5,1755 L1447.5,1755 L1450,1755 L1455,1755 L1457.5,1752.5 L1460,1750 L1465,1750 L1470,1750 L1472.5,1752.5 L1475,1757.5 L1475,1762.5 L1472.5,1767.5 L1472.5,1772.5 L1475,1777.5 L1477.5,1780 L1482.5,1782.5 L1485,1785 L1492.5,1790 L1502.5,1792.5 L1507.5,1795 L1517.5,1797.5 L1520,1797.5 L1525,1802.5 L1530,1805 L1532.5,1810 L1535,1815 L1540,1817.5 L1542.5,1820 L1550,1820 L1560,1822.5 L1567.5,1822.5 L1572.5,1825 L1577.5,1830 L1580,1832.5 L1582.5,1840 L1585,1840 L1587.5,1845 L1587.5,1847.5 L1587.5,1855 L1585,1862.5 L1580,1867.5 L1577.5,1872.5 L1577.5,1875 L1580,1880 L1582.5,1882.5 L1585,1885 L1587.5,1887.5 L1590,1892.5 L1590,1897.5 L1592.5,1902.5 L1597.5,1905 L1602.5,1910 L1607.5,1915 L1610,1917.5 L1617.5,1922.5 L1625,1922.5 L1630,1925 L1640,1932.5 L1647.5,1932.5 L1655,1935 L1662.5,1937.5 L1665,1942.5 L1665,1947.5 L1665,1955 L1665,1960 L1662.5,1967.5 L1660,1970 L1655,1975 L1652.5,1977.5 L1640,1980 L1632.5,1980 L1630,1977.5 L1625,1975 L1627.5,1970 L1627.5,1965 L1627.5,1960 L1625,1957.5 L1620,1955 L1615,1952.5 L1610,1950 L1602.5,1950 L1595,1950 L1590,1950 L1582.5,1947.5 L1577.5,1947.5 L1575,1940 L1572.5,1937.5 L1570,1935 L1567.5,1935 L1562.5,1935 L1560,1937.5 L1557.5,1940 L1552.5,1942.5 L1550,1942.5 L1542.5,1942.5 L1540,1940 L1535,1937.5 L1527.5,1937.5 L1522.5,1937.5 L1517.5,1942.5 L1515,1947.5 L1510,1950 L1505,1950 L1497.5,1947.5 L1495,1940 L1492.5,1935 L1490,1927.5 L1487.5,1920 L1485,1915 L1480,1910 L1477.5,1902.5 L1475,1897.5 L1470,1890 L1470,1887.5 L1467.5,1885 L1462.5,1885 L1455,1882.5 L1447.5,1890 L1442.5,1892.5 L1437.5,1890 L1432.5,1885 L1427.5,1880 L1422.5,1877.5 L1417.5,1875 L1412.5,1872.5 L1405,1867.5 L1397.5,1865 L1392.5,1860 L1387.5,1855 L1382.5,1850 L1377.5,1845 L1375,1837.5 L1372.5,1832.5 L1375,1827.5 L1375,1822.5 L1370,1820 L1367.5,1812.5 L1365,1807.5 L1362.5,1802.5 L1360,1795 L1355,1790 L1352.5,1785 L1350,1777.5 L1347.5,1770 L1345,1765 L1342.5,1757.5 L1340,1755 L1337.5,1747.5 L1335,1740 L1330,1735 L1330,1727.5 L1327.5,1722.5 L1322.5,1720 L1320,1717.5 L1315,1712.5 L1310,1710 L1310,1710 L1310,1707.5 L1315,1702.5 L1310,1697.5 L1310,1697.5 L1307.5,1690 L1305,1685 L1307.5,1680 L1312.5,1675 L1315,1672.5 L1322.5,1670 L1327.5,1667.5 L1327.5,1662.5 L1327.5,1657.5 L1327.5,1652.5 L1325,1655 L1325,1655 L1322.5,1657.5 L1317.5,1655 L1315,1652.5 L1315,1650 L1315,1647.5 L1315,1642.5 L1315,1637.5 L1315,1632.5 L1317.5,1632.5 L1317.5,1630 L1320,1625 L1320,1622.5 L1320,1620 L1322.5,1617.5 L1325,1615 L1325,1610 L1325,1607.5Z"/>
</svg>