<?xml version="1.0" encoding="UTF-8"?>
<svg xmlns="http://www.w3.org/2000/svg" viewBox="1277 612 396 363.5" preserveAspectRatio="xMidYMid meet">
  <defs>
    <style>
      .territory {
        fill: #f4d03f;
        stroke: #333;
        stroke-width: 3;
        stroke-linejoin: round;
        stroke-linecap: round;
      }
    </style>
  </defs>
  <path id="quebec" class="territory" d="M1377.5,930 L1380,930 L1382.5,927.5 L1385,925 L1380,922.5 L1375,920 L1372.5,915 L1367.5,910 L1362.5,907.5 L1357.5,905 L1350,900 L1345,895 L1340,892.5 L1332.5,887.5 L1327.5,885 L1320,882.5 L1315,877.5 L1310,875 L1312.5,865 L1315,855 L1317.5,847.5 L1322.5,840 L1325,832.5 L1325,827.5 L1327.5,822.5 L1330,822.5 L1330,820 L1332.5,817.5 L1335,815 L1335,815 L1340,820 L1340,820 L1342.5,817.5 L1342.5,815 L1340,812.5 L1340,810 L1342.5,807.5 L1345,805 L1345,805 L1345,802.5 L1342.5,800 L1340,797.5 L1340,795 L1340,792.5 L1340,790 L1340,785 L1337.5,782.5 L1337.5,780 L1335,777.5 L1335,775 L1332.5,770 L1332.5,767.5 L1332.5,767.5 L1337.5,762.5 L1340,765 L1345,762.5 L1347.5,760 L1350,760 L1355,757.5 L1365,752.5 L1370,750 L1370,745 L1370,742.5 L1372.5,735 L1372.5,730 L1370,725 L1370,722.5 L1365,717.5 L1365,715 L1362.5,715 L1357.5,712.5 L1355,712.5 L1352.5,710 L1350,710 L1350,710 L1347.5,707.5 L1347.5,707.5 L1347.5,707.5 L1345,705 L1345,705 L1345,705 L1345,700 L1345,700 L1347.5,700 L1350,700 L1350,697.5 L1350,697.5 L1352.5,695 L1355,692.5 L1357.5,690 L1360,687.5 L1362.5,685 L1357.5,682.5 L1357.5,680 L1357.5,677.5 L1355,675 L1357.5,672.5 L1350,672.5 L1352.5,670 L1352.5,667.5 L1355,665 L1355,662.5 L1355,662.5 L1355,660 L1352.5,657.5 L1350,655 L1350,652.5 L1350,650 L1352.5,645 L1355,647.5 L1357.5,645 L1360,645 L1367.5,645 L1367.5,645 L1372.5,647.5 L1380,647.5 L1382.5,650 L1385,650 L1390,650 L1392.5,650 L1397.5,650 L1400,650 L1402.5,647.5 L1405,645 L1410,647.5 L1412.5,650 L1417.5,652.5 L1420,652.5 L1420,655 L1425,657.5 L1427.5,657.5 L1427.5,657.5 L1427.5,660 L1427.5,660 L1430,660 L1432.5,660 L1432.5,660 L1432.5,662.5 L1435,665 L1435,665 L1435,665 L1445,667.5 L1447.5,667.5 L1452.5,667.5 L1452.5,667.5 L1455,670 L1455,670 L1457.5,672.5 L1457.5,672.5 L1460,670 L1462.5,670 L1462.5,670 L1462.5,672.5 L1460,675 L1457.5,675 L1457.5,677.5 L1460,680 L1460,682.5 L1460,685 L1457.5,685 L1460,687.5 L1460,687.5 L1460,692.5 L1462.5,695 L1462.5,695 L1465,695 L1465,697.5 L1462.5,700 L1462.5,702.5 L1460,702.5 L1462.5,702.5 L1467.5,702.5 L1470,702.5 L1472.5,702.5 L1475,702.5 L1477.5,705 L1477.5,707.5 L1480,707.5 L1482.5,707.5 L1482.5,707.5 L1482.5,710 L1482.5,710 L1485,710 L1485,710 L1485,712.5 L1485,715 L1487.5,712.5 L1490,710 L1490,710 L1492.5,710 L1495,710 L1497.5,707.5 L1497.5,707.5 L1500,707.5 L1500,705 L1500,705 L1502.5,705 L1505,705 L1505,705 L1507.5,705 L1507.5,700 L1510,700 L1512.5,700 L1512.5,700 L1510,700 L1512.5,697.5 L1512.5,695 L1515,695 L1517.5,692.5 L1512.5,692.5 L1512.5,687.5 L1515,687.5 L1515,687.5 L1517.5,687.5 L1520,685 L1520,685 L1520,682.5 L1522.5,680 L1522.5,680 L1522.5,680 L1525,677.5 L1525,677.5 L1525,677.5 L1527.5,682.5 L1530,685 L1530,685 L1532.5,687.5 L1530,690 L1535,692.5 L1535,692.5 L1537.5,692.5 L1537.5,695 L1540,695 L1542.5,697.5 L1542.5,700 L1542.5,700 L1547.5,702.5 L1547.5,707.5 L1545,707.5 L1547.5,710 L1550,710 L1550,710 L1550,712.5 L1552.5,715 L1552.5,715 L1555,717.5 L1555,717.5 L1557.5,717.5 L1557.5,720 L1560,722.5 L1560,722.5 L1555,725 L1562.5,725 L1562.5,727.5 L1567.5,727.5 L1567.5,732.5 L1567.5,737.5 L1567.5,737.5 L1565,735 L1565,735 L1562.5,737.5 L1562.5,740 L1562.5,740 L1562.5,742.5 L1565,745 L1565,745 L1567.5,745 L1567.5,747.5 L1570,747.5 L1572.5,750 L1575,750 L1575,752.5 L1577.5,750 L1580,750 L1582.5,752.5 L1580,755 L1580,757.5 L1580,760 L1582.5,760 L1582.5,760 L1585,760 L1587.5,757.5 L1587.5,757.5 L1587.5,760 L1590,762.5 L1590,762.5 L1592.5,762.5 L1595,760 L1595,760 L1597.5,762.5 L1600,765 L1600,765 L1605,762.5 L1605,765 L1607.5,765 L1610,765 L1612.5,762.5 L1612.5,765 L1612.5,767.5 L1615,767.5 L1617.5,770 L1617.5,770 L1617.5,772.5 L1615,772.5 L1610,772.5 L1610,772.5 L1602.5,777.5 L1600,777.5 L1595,777.5 L1590,780 L1590,782.5 L1585,782.5 L1582.5,785 L1582.5,785 L1582.5,787.5 L1585,790 L1585,787.5 L1592.5,785 L1592.5,785 L1595,782.5 L1600,780 L1600,777.5 L1602.5,777.5 L1607.5,777.5 L1607.5,775 L1612.5,772.5 L1615,775 L1617.5,777.5 L1622.5,780 L1620,782.5 L1620,782.5 L1622.5,782.5 L1625,782.5 L1627.5,782.5 L1630,785 L1632.5,785 L1635,785 L1640,787.5 L1640,790 L1637.5,792.5 L1635,792.5 L1637.5,795 L1637.5,797.5 L1637.5,800 L1635,800 L1640,802.5 L1640,802.5 L1637.5,805 L1640,807.5 L1640,810 L1637.5,810 L1635,812.5 L1632.5,815 L1630,815 L1625,817.5 L1622.5,820 L1620,817.5 L1615,817.5 L1612.5,820 L1607.5,820 L1605,820 L1602.5,822.5 L1600,825 L1597.5,827.5 L1595,830 L1592.5,832.5 L1590,832.5 L1587.5,835 L1587.5,835 L1585,837.5 L1582.5,837.5 L1572.5,837.5 L1567.5,837.5 L1567.5,837.5 L1562.5,837.5 L1560,837.5 L1560,837.5 L1555,835 L1552.5,835 L1547.5,835 L1545,837.5 L1542.5,837.5 L1540,837.5 L1537.5,837.5 L1532.5,835 L1532.5,835 L1527.5,835 L1522.5,837.5 L1515,837.5 L1512.5,835 L1510,837.5 L1505,837.5 L1502.5,837.5 L1497.5,840 L1495,842.5 L1492.5,845 L1492.5,847.5 L1492.5,850 L1490,852.5 L1480,852.5 L1477.5,852.5 L1472.5,855 L1472.5,857.5 L1467.5,860 L1467.5,862.5 L1465,865 L1462.5,867.5 L1460,870 L1457.5,870 L1460,870 L1457.5,872.5 L1455,875 L1452.5,877.5 L1450,882.5 L1447.5,882.5 L1442.5,887.5 L1442.5,887.5 L1440,890 L1440,887.5 L1447.5,887.5 L1450,887.5 L1452.5,885 L1455,880 L1460,875 L1460,872.5 L1465,870 L1467.5,867.5 L1472.5,865 L1475,865 L1480,862.5 L1485,860 L1492.5,857.5 L1497.5,855 L1500,855 L1505,852.5 L1510,852.5 L1520,852.5 L1522.5,855 L1527.5,855 L1530,857.5 L1530,860 L1530,865 L1525,867.5 L1520,870 L1515,870 L1512.5,872.5 L1510,870 L1507.5,867.5 L1502.5,870 L1502.5,870 L1505,870 L1510,872.5 L1510,875 L1512.5,877.5 L1512.5,877.5 L1515,875 L1517.5,875 L1522.5,875 L1525,877.5 L1522.5,880 L1520,882.5 L1520,885 L1517.5,885 L1520,885 L1522.5,885 L1522.5,887.5 L1522.5,892.5 L1525,895 L1525,897.5 L1527.5,900 L1530,900 L1532.5,900 L1535,900 L1535,902.5 L1537.5,902.5 L1537.5,902.5 L1547.5,905 L1552.5,907.5 L1555,907.5 L1557.5,907.5 L1560,905 L1562.5,907.5 L1567.5,907.5 L1565,905 L1565,902.5 L1565,900 L1567.5,897.5 L1567.5,897.5 L1570,895 L1572.5,892.5 L1575,887.5 L1577.5,887.5 L1577.5,885 L1580,890 L1580,897.5 L1577.5,900 L1575,902.5 L1572.5,905 L1572.5,905 L1577.5,905 L1575,902.5 L1577.5,900 L1580,897.5 L1582.5,897.5 L1587.5,900 L1587.5,902.5 L1585,905 L1582.5,905 L1582.5,907.5 L1580,907.5 L1577.5,910 L1572.5,910 L1567.5,910 L1567.5,912.5 L1572.5,912.5 L1572.5,915 L1567.5,915 L1565,915 L1560,917.5 L1557.5,920 L1547.5,920 L1540,925 L1540,922.5 L1540,925 L1537.5,927.5 L1535,927.5 L1535,925 L1532.5,925 L1532.5,925 L1532.5,925 L1532.5,927.5 L1530,927.5 L1527.5,930 L1527.5,932.5 L1525,935 L1522.5,937.5 L1520,937.5 L1517.5,937.5 L1515,940 L1515,942.5 L1510,942.5 L1510,940 L1510,937.5 L1505,935 L1505,932.5 L1507.5,930 L1507.5,925 L1507.5,925 L1510,922.5 L1512.5,922.5 L1515,920 L1515,917.5 L1522.5,915 L1525,915 L1530,915 L1530,915 L1532.5,915 L1532.5,912.5 L1537.5,915 L1537.5,915 L1537.5,912.5 L1532.5,912.5 L1525,912.5 L1522.5,912.5 L1522.5,912.5 L1525,910 L1525,907.5 L1527.5,907.5 L1525,905 L1525,907.5 L1522.5,910 L1520,910 L1517.5,910 L1515,912.5 L1510,915 L1510,915 L1507.5,915 L1505,915 L1502.5,917.5 L1497.5,917.5 L1497.5,915 L1495,915 L1495,917.5 L1492.5,920 L1492.5,922.5 L1492.5,922.5 L1490,925 L1487.5,925 L1485,925 L1485,925 L1482.5,927.5 L1482.5,927.5 L1480,927.5 L1480,927.5 L1477.5,927.5 L1477.5,927.5 L1472.5,927.5 L1472.5,930 L1470,927.5 L1470,927.5 L1470,930 L1467.5,932.5 L1465,935 L1462.5,935 L1460,935 L1457.5,937.5 L1455,935 L1455,937.5 L1452.5,937.5 L1452.5,935 L1452.5,930 L1452.5,925 L1452.5,920 L1450,915 L1442.5,912.5 L1437.5,915 L1432.5,915 L1427.5,915 L1420,917.5 L1415,920 L1410,920 L1402.5,922.5 L1397.5,925 L1392.5,925 L1387.5,925 L1387.5,925Z"/>
</svg>