<?xml version="1.0" encoding="UTF-8"?>
<svg xmlns="http://www.w3.org/2000/svg" viewBox="2390 477.5 420 315" preserveAspectRatio="xMidYMid meet">
  <defs>
    <style>
      .territory {
        fill: #f4d03f;
        stroke: #333;
        stroke-width: 3;
        stroke-linejoin: round;
        stroke-linecap: round;
      }
    </style>
  </defs>
  <path id="scandinavia" class="territory" d="M2747.5,532.5 L2742.5,537.5 L2742.5,540 L2740,547.5 L2745,555 L2745,560 L2742.5,562.5 L2742.5,570 L2747.5,575 L2750,577.5 L2752.5,582.5 L2757.5,592.5 L2760,597.5 L2762.5,607.5 L2765,615 L2767.5,622.5 L2772.5,630 L2775,635 L2772.5,640 L2767.5,645 L2765,650 L2762.5,655 L2760,660 L2752.5,662.5 L2747.5,667.5 L2755,672.5 L2757.5,675 L2752.5,680 L2750,680 L2745,682.5 L2740,682.5 L2735,680 L2732.5,680 L2730,675 L2730,675 L2722.5,675 L2720,677.5 L2710,677.5 L2702.5,677.5 L2692.5,680 L2685,682.5 L2680,685 L2662.5,685 L2660,685 L2655,682.5 L2645,677.5 L2640,675 L2637.5,672.5 L2637.5,667.5 L2640,662.5 L2640,657.5 L2637.5,652.5 L2637.5,645 L2637.5,640 L2640,637.5 L2642.5,635 L2650,635 L2652.5,630 L2660,625 L2667.5,620 L2672.5,617.5 L2675,612.5 L2680,610 L2685,610 L2690,605 L2687.5,597.5 L2682.5,597.5 L2677.5,597.5 L2667.5,592.5 L2660,595 L2655,595 L2652.5,595 L2645,597.5 L2640,605 L2637.5,607.5 L2635,610 L2635,615 L2640,617.5 L2637.5,620 L2635,622.5 L2627.5,627.5 L2622.5,627.5 L2617.5,630 L2612.5,632.5 L2605,637.5 L2600,640 L2597.5,640 L2592.5,645 L2590,647.5 L2587.5,650 L2587.5,657.5 L2585,662.5 L2585,665 L2587.5,670 L2590,675 L2597.5,680 L2600,680 L2605,685 L2607.5,690 L2602.5,690 L2597.5,692.5 L2595,695 L2597.5,697.5 L2597.5,700 L2590,700 L2587.5,702.5 L2582.5,707.5 L2577.5,707.5 L2577.5,712.5 L2577.5,720 L2577.5,727.5 L2575,732.5 L2572.5,737.5 L2567.5,742.5 L2565,747.5 L2560,745 L2550,745 L2547.5,747.5 L2545,752.5 L2545,755 L2545,757.5 L2542.5,755 L2537.5,755 L2532.5,755 L2530,755 L2530,752.5 L2530,750 L2527.5,747.5 L2525,742.5 L2527.5,740 L2527.5,740 L2525,737.5 L2520,732.5 L2517.5,725 L2515,722.5 L2512.5,715 L2512.5,712.5 L2507.5,710 L2505,705 L2505,700 L2502.5,697.5 L2500,692.5 L2497.5,690 L2497.5,690 L2495,697.5 L2492.5,700 L2487.5,700 L2485,702.5 L2482.5,705 L2470,712.5 L2467.5,712.5 L2460,712.5 L2455,715 L2452.5,715 L2445,715 L2440,710 L2435,705 L2432.5,705 L2435,702.5 L2440,697.5 L2437.5,695 L2435,695 L2432.5,697.5 L2430,697.5 L2425,690 L2430,690 L2432.5,687.5 L2437.5,687.5 L2440,685 L2437.5,682.5 L2432.5,682.5 L2430,682.5 L2430,672.5 L2427.5,672.5 L2427.5,665 L2427.5,657.5 L2427.5,652.5 L2430,652.5 L2435,652.5 L2435,650 L2440,650 L2442.5,647.5 L2447.5,642.5 L2452.5,642.5 L2455,642.5 L2457.5,637.5 L2465,637.5 L2472.5,635 L2477.5,630 L2485,630 L2487.5,625 L2490,625 L2495,617.5 L2500,617.5 L2502.5,617.5 L2512.5,612.5 L2512.5,610 L2510,607.5 L2512.5,605 L2517.5,605 L2520,605 L2520,602.5 L2522.5,600 L2522.5,597.5 L2525,595 L2527.5,592.5 L2530,590 L2532.5,590 L2530,585 L2535,582.5 L2540,580 L2542.5,575 L2547.5,575 L2547.5,570 L2552.5,567.5 L2557.5,562.5 L2565,560 L2570,557.5 L2572.5,557.5 L2575,555 L2575,555 L2572.5,552.5 L2567.5,555 L2562.5,555 L2557.5,555 L2552.5,555 L2547.5,557.5 L2545,557.5 L2547.5,555 L2547.5,552.5 L2555,547.5 L2562.5,545 L2562.5,545 L2565,540 L2570,545 L2567.5,547.5 L2567.5,547.5 L2572.5,547.5 L2575,547.5 L2577.5,547.5 L2582.5,547.5 L2587.5,547.5 L2587.5,545 L2585,542.5 L2582.5,542.5 L2580,540 L2585,537.5 L2590,535 L2592.5,535 L2597.5,535 L2605,532.5 L2605,530 L2615,527.5 L2615,527.5 L2615,530 L2615,532.5 L2617.5,532.5 L2620,532.5 L2622.5,530 L2627.5,532.5 L2630,532.5 L2637.5,530 L2640,530 L2640,527.5 L2637.5,527.5 L2640,525 L2645,525 L2645,525 L2647.5,525 L2652.5,522.5 L2655,520 L2660,520 L2670,517.5 L2672.5,517.5 L2675,517.5 L2677.5,517.5 L2685,515 L2687.5,515 L2690,515 L2695,515 L2695,515 L2690,520 L2690,522.5 L2690,525 L2692.5,525 L2695,520 L2697.5,517.5 L2700,515 L2702.5,515 L2705,515 L2705,517.5 L2705,520 L2710,520 L2712.5,520 L2717.5,515 L2732.5,512.5 L2725,517.5 L2722.5,517.5 L2725,520 L2727.5,525 L2730,517.5 L2732.5,515 L2735,515 L2740,517.5 L2742.5,517.5 L2752.5,520 L2755,522.5 L2757.5,522.5 L2762.5,522.5 L2762.5,525 L2755,527.5 L2755,527.5 L2750,527.5 L2745,527.5 L2742.5,527.5 L2737.5,527.5 L2735,530 L2742.5,530Z"/>
</svg>