<?xml version="1.0" encoding="UTF-8"?>
<svg xmlns="http://www.w3.org/2000/svg" viewBox="3522 1122 301 516" preserveAspectRatio="xMidYMid meet">
  <defs>
    <style>
      .territory {
        fill: #f4d03f;
        stroke: #333;
        stroke-width: 3;
        stroke-linejoin: round;
        stroke-linecap: round;
      }
    </style>
  </defs>
  <path id="siam" class="territory" d="M3750,1287.5 L3750,1280 L3747.5,1270 L3745,1262.5 L3730,1257.5 L3717.5,1257.5 L3697.5,1260 L3690,1262.5 L3682.5,1265 L3677.5,1277.5 L3675,1282.5 L3662.5,1285 L3655,1282.5 L3650,1275 L3647.5,1270 L3645,1262.5 L3640,1255 L3640,1247.5 L3635,1240 L3632.5,1232.5 L3630,1227.5 L3625,1222.5 L3622.5,1215 L3622.5,1207.5 L3625,1200 L3630,1192.5 L3632.5,1182.5 L3630,1170 L3622.5,1165 L3617.5,1165 L3607.5,1170 L3600,1177.5 L3592.5,1185 L3590,1197.5 L3585,1205 L3582.5,1217.5 L3580,1227.5 L3577.5,1237.5 L3575,1245 L3575,1255 L3580,1262.5 L3585,1267.5 L3585,1272.5 L3582.5,1280 L3577.5,1285 L3575,1287.5 L3570,1295 L3565,1300 L3565,1305 L3570,1312.5 L3575,1320 L3580,1327.5 L3585,1340 L3582.5,1350 L3580,1362.5 L3580,1367.5 L3590,1370 L3597.5,1372.5 L3602.5,1367.5 L3607.5,1362.5 L3612.5,1360 L3617.5,1352.5 L3620,1352.5 L3622.5,1360 L3622.5,1367.5 L3627.5,1382.5 L3630,1397.5 L3630,1405 L3632.5,1410 L3637.5,1425 L3637.5,1440 L3637.5,1450 L3632.5,1462.5 L3630,1472.5 L3630,1480 L3635,1487.5 L3640,1492.5 L3645,1500 L3652.5,1512.5 L3657.5,1522.5 L3660,1535 L3660,1547.5 L3665,1555 L3667.5,1567.5 L3670,1570 L3677.5,1580 L3682.5,1587.5 L3687.5,1592.5 L3692.5,1592.5 L3697.5,1595 L3702.5,1595 L3705,1595 L3712.5,1595 L3710,1587.5 L3707.5,1580 L3702.5,1570 L3700,1555 L3700,1545 L3695,1527.5 L3687.5,1522.5 L3682.5,1510 L3672.5,1507.5 L3665,1505 L3662.5,1495 L3660,1487.5 L3655,1475 L3655,1472.5 L3647.5,1467.5 L3645,1462.5 L3647.5,1452.5 L3655,1437.5 L3655,1425 L3657.5,1415 L3660,1407.5 L3665,1412.5 L3665,1415 L3670,1420 L3675,1420 L3682.5,1422.5 L3687.5,1430 L3695,1440 L3697.5,1445 L3700,1450 L3705,1452.5 L3705,1457.5 L3710,1460 L3712.5,1457.5 L3717.5,1462.5 L3717.5,1472.5 L3720,1485 L3722.5,1482.5 L3725,1480 L3732.5,1475 L3737.5,1472.5 L3742.5,1462.5 L3745,1457.5 L3750,1452.5 L3757.5,1450 L3770,1447.5 L3775,1440 L3780,1430 L3780,1415 L3777.5,1405 L3777.5,1395 L3772.5,1385 L3770,1377.5 L3765,1370 L3760,1365 L3750,1350 L3747.5,1347.5 L3742.5,1342.5 L3732.5,1330 L3732.5,1317.5 L3735,1307.5 L3740,1300 L3747.5,1292.5Z"/>
</svg>