<?xml version="1.0" encoding="UTF-8"?>
<svg xmlns="http://www.w3.org/2000/svg" viewBox="3318 363 564 496.5" preserveAspectRatio="xMidYMid meet">
  <defs>
    <style>
      .territory {
        fill: #f4d03f;
        stroke: #333;
        stroke-width: 3;
        stroke-linejoin: round;
        stroke-linecap: round;
      }
    </style>
  </defs>
  <path id="siberia" class="territory" d="M3465,807.5 L3460,802.5 L3457.5,797.5 L3452.5,795 L3455,787.5 L3457.5,785 L3467.5,785 L3475,782.5 L3482.5,780 L3487.5,772.5 L3490,767.5 L3487.5,757.5 L3485,750 L3480,742.5 L3477.5,732.5 L3477.5,730 L3485,730 L3490,730 L3497.5,727.5 L3497.5,722.5 L3495,717.5 L3492.5,710 L3492.5,705 L3492.5,695 L3490,692.5 L3482.5,685 L3477.5,682.5 L3470,682.5 L3462.5,682.5 L3452.5,680 L3447.5,677.5 L3447.5,670 L3450,660 L3455,650 L3455,642.5 L3450,635 L3445,630 L3440,622.5 L3432.5,612.5 L3427.5,605 L3420,590 L3415,577.5 L3412.5,567.5 L3410,560 L3407.5,555 L3400,550 L3392.5,547.5 L3382.5,545 L3380,535 L3382.5,527.5 L3385,520 L3382.5,510 L3372.5,502.5 L3365,500 L3367.5,495 L3377.5,495 L3390,492.5 L3397.5,495 L3402.5,497.5 L3412.5,502.5 L3420,502.5 L3425,502.5 L3430,500 L3427.5,497.5 L3417.5,492.5 L3412.5,495 L3407.5,492.5 L3407.5,490 L3405,485 L3405,480 L3402.5,475 L3410,472.5 L3417.5,472.5 L3422.5,472.5 L3435,472.5 L3447.5,470 L3460,467.5 L3465,472.5 L3477.5,472.5 L3485,467.5 L3482.5,465 L3477.5,462.5 L3477.5,462.5 L3482.5,460 L3485,455 L3490,450 L3497.5,447.5 L3507.5,447.5 L3512.5,447.5 L3522.5,445 L3532.5,440 L3540,440 L3550,440 L3560,437.5 L3570,437.5 L3577.5,435 L3587.5,432.5 L3600,435 L3610,435 L3615,435 L3622.5,435 L3630,435 L3637.5,437.5 L3650,432.5 L3655,427.5 L3662.5,427.5 L3667.5,427.5 L3665,425 L3670,417.5 L3685,415 L3697.5,410 L3707.5,410 L3720,410 L3727.5,412.5 L3735,415 L3730,415 L3727.5,417.5 L3735,420 L3745,420 L3752.5,422.5 L3747.5,425 L3747.5,427.5 L3760,427.5 L3772.5,425 L3782.5,425 L3795,425 L3812.5,427.5 L3820,430 L3827.5,435 L3832.5,435 L3835,440 L3830,442.5 L3832.5,445 L3830,450 L3820,452.5 L3810,457.5 L3802.5,460 L3795,460 L3787.5,462.5 L3782.5,465 L3775,467.5 L3765,470 L3757.5,472.5 L3752.5,475 L3747.5,475 L3742.5,480 L3735,480 L3727.5,480 L3720,485 L3715,490 L3710,495 L3702.5,497.5 L3692.5,500 L3685,505 L3680,505 L3675,510 L3672.5,515 L3667.5,520 L3662.5,527.5 L3660,537.5 L3655,545 L3647.5,550 L3640,552.5 L3640,557.5 L3642.5,565 L3647.5,570 L3655,582.5 L3655,587.5 L3647.5,600 L3642.5,607.5 L3637.5,615 L3630,622.5 L3620,627.5 L3615,632.5 L3605,632.5 L3592.5,635 L3582.5,640 L3577.5,652.5 L3580,660 L3580,670 L3582.5,680 L3585,690 L3587.5,697.5 L3590,702.5 L3590,707.5 L3585,710 L3580,712.5 L3572.5,712.5 L3567.5,712.5 L3562.5,717.5 L3557.5,720 L3550,725 L3545,725 L3537.5,727.5 L3527.5,730 L3525,732.5 L3527.5,740 L3530,755 L3530,762.5 L3527.5,770 L3525,780 L3525,787.5 L3520,797.5 L3515,807.5 L3505,812.5 L3497.5,810 L3490,810 L3477.5,810 L3472.5,807.5Z"/>
</svg>