<?xml version="1.0" encoding="UTF-8"?>
<svg xmlns="http://www.w3.org/2000/svg" viewBox="2416 828.5 348 250.5" preserveAspectRatio="xMidYMid meet">
  <defs>
    <style>
      .territory {
        fill: #f4d03f;
        stroke: #333;
        stroke-width: 3;
        stroke-linejoin: round;
        stroke-linecap: round;
      }
    </style>
  </defs>
  <path id="southern europe" class="territory" d="M2735,920 L2732.5,917.5 L2730,915 L2725,910 L2722.5,905 L2720,900 L2720,895 L2715,890 L2712.5,885 L2707.5,880 L2705,877.5 L2700,877.5 L2695,877.5 L2687.5,877.5 L2680,877.5 L2675,877.5 L2670,877.5 L2667.5,877.5 L2660,877.5 L2657.5,875 L2652.5,870 L2647.5,867.5 L2640,862.5 L2637.5,867.5 L2632.5,870 L2630,870 L2627.5,872.5 L2622.5,875 L2620,877.5 L2612.5,882.5 L2610,882.5 L2605,885 L2600,887.5 L2595,887.5 L2590,890 L2585,890 L2580,890 L2577.5,887.5 L2572.5,887.5 L2570,885 L2570,880 L2570,877.5 L2570,872.5 L2570,867.5 L2567.5,862.5 L2567.5,860 L2565,860 L2560,857.5 L2557.5,860 L2552.5,860 L2547.5,862.5 L2545,862.5 L2540,862.5 L2537.5,865 L2530,865 L2527.5,865 L2525,867.5 L2520,867.5 L2515,870 L2510,872.5 L2510,875 L2505,877.5 L2502.5,880 L2497.5,880 L2492.5,882.5 L2490,882.5 L2485,882.5 L2482.5,882.5 L2475,882.5 L2472.5,882.5 L2467.5,882.5 L2462.5,885 L2457.5,887.5 L2452.5,890 L2447.5,892.5 L2445,897.5 L2447.5,902.5 L2447.5,905 L2450,907.5 L2452.5,910 L2452.5,915 L2452.5,920 L2452.5,922.5 L2455,925 L2457.5,927.5 L2460,932.5 L2460,937.5 L2462.5,937.5 L2465,935 L2465,935 L2467.5,932.5 L2472.5,930 L2475,927.5 L2480,927.5 L2482.5,930 L2487.5,932.5 L2492.5,935 L2495,937.5 L2495,940 L2500,945 L2497.5,947.5 L2497.5,950 L2502.5,952.5 L2502.5,955 L2507.5,957.5 L2507.5,960 L2510,960 L2512.5,962.5 L2517.5,967.5 L2520,970 L2522.5,972.5 L2530,975 L2532.5,977.5 L2535,977.5 L2537.5,975 L2540,977.5 L2542.5,980 L2542.5,982.5 L2547.5,985 L2550,987.5 L2550,987.5 L2552.5,985 L2555,987.5 L2555,990 L2555,992.5 L2560,995 L2562.5,995 L2562.5,995 L2565,997.5 L2567.5,1000 L2567.5,1002.5 L2570,1007.5 L2570,1012.5 L2570,1015 L2570,1017.5 L2567.5,1020 L2565,1022.5 L2562.5,1022.5 L2557.5,1025 L2552.5,1027.5 L2550,1027.5 L2545,1027.5 L2540,1027.5 L2535,1027.5 L2532.5,1025 L2530,1025 L2525,1025 L2522.5,1027.5 L2522.5,1030 L2525,1032.5 L2527.5,1035 L2532.5,1035 L2537.5,1037.5 L2540,1040 L2542.5,1040 L2545,1042.5 L2547.5,1045 L2550,1045 L2552.5,1045 L2555,1045 L2557.5,1045 L2560,1040 L2560,1040 L2557.5,1037.5 L2557.5,1035 L2560,1030 L2562.5,1025 L2562.5,1025 L2567.5,1027.5 L2570,1027.5 L2570,1027.5 L2570,1022.5 L2575,1020 L2575,1020 L2577.5,1015 L2577.5,1015 L2577.5,1012.5 L2580,1012.5 L2582.5,1010 L2582.5,1007.5 L2582.5,1005 L2580,1002.5 L2577.5,1002.5 L2577.5,1000 L2575,1000 L2575,997.5 L2577.5,992.5 L2580,990 L2580,987.5 L2580,987.5 L2585,987.5 L2585,990 L2587.5,990 L2590,990 L2592.5,990 L2595,992.5 L2595,997.5 L2597.5,997.5 L2600,997.5 L2600,995 L2600,990 L2597.5,987.5 L2595,987.5 L2590,982.5 L2585,982.5 L2585,980 L2580,977.5 L2577.5,977.5 L2575,975 L2570,975 L2570,972.5 L2570,972.5 L2570,970 L2570,967.5 L2570,967.5 L2567.5,965 L2562.5,965 L2557.5,965 L2555,965 L2550,962.5 L2547.5,960 L2545,957.5 L2542.5,952.5 L2542.5,950 L2540,947.5 L2540,945 L2540,942.5 L2537.5,940 L2532.5,935 L2527.5,932.5 L2522.5,930 L2522.5,927.5 L2520,925 L2522.5,922.5 L2522.5,920 L2525,917.5 L2522.5,915 L2520,912.5 L2522.5,910 L2525,910 L2527.5,910 L2530,907.5 L2532.5,907.5 L2537.5,907.5 L2537.5,907.5 L2537.5,910 L2537.5,912.5 L2537.5,917.5 L2540,920 L2542.5,920 L2545,917.5 L2547.5,912.5 L2550,915 L2552.5,915 L2555,917.5 L2555,922.5 L2557.5,925 L2560,927.5 L2557.5,930 L2557.5,932.5 L2560,935 L2565,937.5 L2565,937.5 L2567.5,940 L2567.5,942.5 L2572.5,942.5 L2575,942.5 L2580,942.5 L2582.5,945 L2582.5,947.5 L2587.5,950 L2587.5,950 L2590,952.5 L2590,952.5 L2595,952.5 L2597.5,955 L2600,957.5 L2605,960 L2607.5,962.5 L2610,965 L2612.5,967.5 L2615,967.5 L2615,970 L2612.5,975 L2612.5,977.5 L2612.5,980 L2612.5,985 L2612.5,987.5 L2612.5,992.5 L2615,992.5 L2617.5,995 L2620,1000 L2622.5,1005 L2622.5,1005 L2625,1007.5 L2630,1010 L2630,1010 L2632.5,1012.5 L2630,1015 L2630,1015 L2635,1017.5 L2635,1020 L2635,1020 L2637.5,1022.5 L2640,1020 L2645,1022.5 L2642.5,1025 L2640,1025 L2637.5,1027.5 L2635,1030 L2637.5,1032.5 L2642.5,1037.5 L2640,1040 L2642.5,1045 L2645,1047.5 L2647.5,1042.5 L2647.5,1040 L2650,1045 L2650,1050 L2652.5,1050 L2652.5,1050 L2655,1047.5 L2655,1047.5 L2657.5,1050 L2660,1050 L2660,1050 L2660,1045 L2660,1040 L2657.5,1040 L2657.5,1037.5 L2657.5,1035 L2657.5,1032.5 L2660,1037.5 L2660,1037.5 L2662.5,1035 L2665,1035 L2662.5,1032.5 L2662.5,1027.5 L2662.5,1027.5 L2665,1025 L2667.5,1027.5 L2670,1030 L2670,1032.5 L2670,1032.5 L2672.5,1030 L2672.5,1027.5 L2672.5,1025 L2672.5,1022.5 L2670,1020 L2665,1020 L2662.5,1017.5 L2660,1015 L2657.5,1015 L2655,1012.5 L2657.5,1012.5 L2657.5,1010 L2657.5,1007.5 L2660,1005 L2662.5,1010 L2662.5,1010 L2662.5,1007.5 L2660,1002.5 L2660,1002.5 L2655,997.5 L2655,995 L2655,992.5 L2655,987.5 L2657.5,987.5 L2657.5,987.5 L2660,990 L2662.5,992.5 L2665,995 L2667.5,997.5 L2665,995 L2665,992.5 L2665,992.5 L2667.5,992.5 L2670,995 L2670,995 L2672.5,995 L2670,992.5 L2670,992.5 L2670,990 L2672.5,990 L2675,992.5 L2675,990 L2672.5,990 L2670,987.5 L2670,985 L2670,982.5 L2672.5,985 L2675,982.5 L2677.5,982.5 L2680,982.5 L2682.5,982.5 L2682.5,982.5 L2685,982.5 L2685,980 L2687.5,980 L2692.5,982.5 L2697.5,982.5 L2700,977.5 L2702.5,975 L2705,970 L2710,967.5 L2715,962.5 L2717.5,957.5 L2722.5,952.5 L2722.5,952.5 L2722.5,947.5 L2725,945 L2727.5,942.5 L2730,942.5 L2732.5,940 L2732.5,937.5 L2732.5,932.5 L2732.5,930 L2732.5,930 L2735,927.5 L2735,922.5Z"/>
</svg>