<?xml version="1.0" encoding="UTF-8"?>
<svg xmlns="http://www.w3.org/2000/svg" viewBox="2471 1701 460.5 498" preserveAspectRatio="xMidYMid meet">
  <defs>
    <style>
      .territory {
        fill: #f4d03f;
        stroke: #333;
        stroke-width: 3;
        stroke-linejoin: round;
        stroke-linecap: round;
      }
    </style>
  </defs>
  <path id="south africa" class="territory" d="M2885,1817.5 L2880,1817.5 L2875,1817.5 L2867.5,1817.5 L2860,1820 L2852.5,1820 L2847.5,1822.5 L2842.5,1822.5 L2837.5,1825 L2835,1827.5 L2832.5,1832.5 L2830,1840 L2830,1842.5 L2825,1847.5 L2822.5,1850 L2817.5,1850 L2810,1850 L2802.5,1850 L2797.5,1845 L2795,1842.5 L2795,1837.5 L2792.5,1830 L2790,1822.5 L2790,1815 L2790,1807.5 L2790,1800 L2787.5,1795 L2785,1790 L2782.5,1782.5 L2780,1777.5 L2775,1770 L2772.5,1767.5 L2767.5,1765 L2762.5,1765 L2757.5,1765 L2752.5,1762.5 L2752.5,1762.5 L2745,1762.5 L2740,1765 L2735,1767.5 L2732.5,1770 L2727.5,1772.5 L2722.5,1780 L2722.5,1785 L2722.5,1795 L2722.5,1802.5 L2727.5,1807.5 L2730,1815 L2735,1822.5 L2735,1827.5 L2737.5,1830 L2742.5,1835 L2745,1837.5 L2747.5,1840 L2750,1845 L2750,1847.5 L2745,1850 L2737.5,1852.5 L2732.5,1852.5 L2730,1847.5 L2727.5,1842.5 L2720,1837.5 L2715,1832.5 L2710,1827.5 L2702.5,1825 L2695,1822.5 L2682.5,1820 L2675,1820 L2665,1820 L2660,1817.5 L2655,1815 L2652.5,1810 L2650,1802.5 L2647.5,1792.5 L2647.5,1787.5 L2647.5,1780 L2652.5,1775 L2652.5,1770 L2652.5,1765 L2652.5,1762.5 L2647.5,1757.5 L2645,1757.5 L2640,1752.5 L2635,1752.5 L2630,1757.5 L2622.5,1760 L2617.5,1762.5 L2612.5,1765 L2610,1762.5 L2605,1757.5 L2602.5,1750 L2600,1747.5 L2597.5,1747.5 L2595,1745 L2587.5,1745 L2577.5,1745 L2572.5,1745 L2565,1745 L2557.5,1745 L2550,1745 L2545,1742.5 L2540,1742.5 L2535,1745 L2535,1747.5 L2535,1750 L2532.5,1755 L2530,1755 L2530,1762.5 L2532.5,1767.5 L2535,1772.5 L2535,1777.5 L2537.5,1780 L2542.5,1785 L2540,1792.5 L2540,1800 L2537.5,1807.5 L2535,1812.5 L2532.5,1812.5 L2530,1817.5 L2527.5,1820 L2525,1825 L2522.5,1830 L2522.5,1835 L2520,1842.5 L2520,1842.5 L2517.5,1852.5 L2515,1857.5 L2515,1862.5 L2512.5,1865 L2512.5,1872.5 L2512.5,1877.5 L2512.5,1885 L2512.5,1890 L2512.5,1895 L2512.5,1900 L2517.5,1905 L2520,1910 L2522.5,1915 L2525,1917.5 L2527.5,1922.5 L2530,1930 L2532.5,1935 L2535,1940 L2537.5,1947.5 L2540,1950 L2542.5,1955 L2542.5,1957.5 L2545,1960 L2550,1967.5 L2550,1972.5 L2547.5,1975 L2550,1980 L2550,1982.5 L2547.5,1987.5 L2547.5,1992.5 L2550,2000 L2552.5,2005 L2552.5,2010 L2552.5,2017.5 L2555,2025 L2557.5,2032.5 L2560,2042.5 L2562.5,2047.5 L2565,2055 L2567.5,2057.5 L2575,2062.5 L2577.5,2065 L2580,2072.5 L2580,2077.5 L2582.5,2080 L2585,2090 L2587.5,2095 L2590,2100 L2592.5,2102.5 L2595,2107.5 L2597.5,2115 L2600,2120 L2597.5,2122.5 L2595,2125 L2592.5,2127.5 L2592.5,2130 L2595,2132.5 L2597.5,2135 L2600,2137.5 L2600,2140 L2600,2142.5 L2597.5,2145 L2600,2147.5 L2600,2150 L2600,2147.5 L2602.5,2147.5 L2605,2145 L2605,2147.5 L2605,2150 L2610,2150 L2612.5,2155 L2615,2157.5 L2617.5,2157.5 L2620,2157.5 L2625,2155 L2627.5,2155 L2632.5,2152.5 L2635,2150 L2642.5,2150 L2645,2150 L2647.5,2147.5 L2650,2147.5 L2655,2145 L2660,2147.5 L2665,2147.5 L2667.5,2145 L2672.5,2145 L2677.5,2147.5 L2682.5,2147.5 L2685,2147.5 L2687.5,2145 L2692.5,2145 L2695,2145 L2695,2142.5 L2695,2142.5 L2697.5,2140 L2702.5,2140 L2707.5,2140 L2712.5,2140 L2717.5,2135 L2720,2135 L2725,2130 L2730,2127.5 L2732.5,2122.5 L2735,2120 L2740,2115 L2742.5,2110 L2747.5,2107.5 L2755,2102.5 L2757.5,2095 L2760,2087.5 L2762.5,2085 L2765,2080 L2767.5,2072.5 L2770,2070 L2775,2067.5 L2777.5,2062.5 L2780,2060 L2782.5,2057.5 L2785,2052.5 L2785,2050 L2785,2042.5 L2787.5,2035 L2787.5,2032.5 L2787.5,2025 L2787.5,2025 L2785,2025 L2785,2022.5 L2785,2020 L2785,2015 L2787.5,2012.5 L2792.5,2010 L2802.5,2005 L2807.5,2000 L2817.5,1997.5 L2822.5,1992.5 L2822.5,1990 L2820,1987.5 L2820,1982.5 L2822.5,1977.5 L2822.5,1975 L2822.5,1970 L2822.5,1965 L2822.5,1962.5 L2820,1962.5 L2820,1960 L2820,1957.5 L2817.5,1950 L2817.5,1947.5 L2815,1945 L2817.5,1942.5 L2817.5,1942.5 L2812.5,1937.5 L2812.5,1935 L2810,1935 L2810,1932.5 L2812.5,1930 L2812.5,1927.5 L2810,1925 L2812.5,1925 L2815,1925 L2817.5,1922.5 L2820,1920 L2820,1917.5 L2822.5,1915 L2827.5,1912.5 L2830,1910 L2835,1910 L2835,1902.5 L2842.5,1897.5 L2840,1895 L2842.5,1892.5 L2847.5,1890 L2850,1890 L2852.5,1887.5 L2852.5,1887.5 L2855,1885 L2857.5,1885 L2862.5,1882.5 L2865,1880 L2870,1880 L2872.5,1877.5 L2875,1875 L2877.5,1872.5 L2877.5,1870 L2880,1867.5 L2885,1860 L2885,1860 L2887.5,1855 L2887.5,1852.5 L2890,1847.5 L2890,1842.5 L2887.5,1842.5 L2887.5,1842.5 L2887.5,1837.5 L2887.5,1835 L2887.5,1832.5 L2887.5,1827.5 L2887.5,1820Z"/>
</svg>