<?xml version="1.0" encoding="UTF-8"?>
<svg xmlns="http://www.w3.org/2000/svg" viewBox="2584 481.5 477 582" preserveAspectRatio="xMidYMid meet">
  <defs>
    <style>
      .territory {
        fill: #f4d03f;
        stroke: #333;
        stroke-width: 3;
        stroke-linejoin: round;
        stroke-linecap: round;
      }
    </style>
  </defs>
  <path id="ukraine" class="territory" d="M2747.5,532.5 L2742.5,537.5 L2742.5,540 L2740,547.5 L2745,555 L2745,560 L2742.5,562.5 L2742.5,570 L2747.5,575 L2750,577.5 L2752.5,582.5 L2757.5,592.5 L2760,597.5 L2762.5,607.5 L2765,615 L2767.5,622.5 L2772.5,630 L2775,635 L2772.5,640 L2767.5,645 L2765,650 L2762.5,655 L2760,660 L2762.5,660 L2767.5,660 L2770,662.5 L2777.5,665 L2780,667.5 L2787.5,672.5 L2787.5,677.5 L2785,680 L2782.5,682.5 L2777.5,680 L2772.5,680 L2770,685 L2767.5,685 L2765,685 L2757.5,685 L2752.5,685 L2747.5,687.5 L2742.5,687.5 L2737.5,687.5 L2732.5,690 L2730,690 L2725,690 L2722.5,692.5 L2717.5,695 L2712.5,692.5 L2705,692.5 L2702.5,692.5 L2695,692.5 L2690,690 L2685,692.5 L2680,692.5 L2675,695 L2670,695 L2665,700 L2665,702.5 L2665,707.5 L2667.5,710 L2672.5,712.5 L2677.5,710 L2677.5,712.5 L2677.5,717.5 L2675,717.5 L2677.5,722.5 L2677.5,727.5 L2675,730 L2667.5,732.5 L2665,730 L2662.5,730 L2657.5,725 L2655,722.5 L2652.5,722.5 L2647.5,722.5 L2645,722.5 L2642.5,725 L2640,727.5 L2637.5,730 L2637.5,732.5 L2632.5,737.5 L2632.5,740 L2635,745 L2635,750 L2635,752.5 L2637.5,757.5 L2637.5,765 L2640,767.5 L2640,770 L2640,772.5 L2642.5,777.5 L2642.5,782.5 L2645,787.5 L2647.5,790 L2647.5,792.5 L2650,797.5 L2650,800 L2652.5,802.5 L2652.5,805 L2655,807.5 L2657.5,810 L2660,810 L2662.5,815 L2665,817.5 L2665,820 L2662.5,825 L2662.5,827.5 L2660,830 L2657.5,832.5 L2652.5,837.5 L2647.5,840 L2645,842.5 L2642.5,845 L2640,850 L2640,857.5 L2640,862.5 L2647.5,867.5 L2652.5,870 L2657.5,875 L2660,877.5 L2667.5,877.5 L2670,877.5 L2675,877.5 L2680,877.5 L2687.5,877.5 L2695,877.5 L2700,877.5 L2705,877.5 L2707.5,880 L2712.5,885 L2715,890 L2720,895 L2720,900 L2722.5,905 L2725,910 L2730,915 L2732.5,917.5 L2735,920 L2737.5,920 L2740,922.5 L2740,920 L2742.5,920 L2745,920 L2747.5,917.5 L2747.5,915 L2745,910 L2747.5,907.5 L2750,905 L2752.5,905 L2755,902.5 L2760,897.5 L2762.5,895 L2765,892.5 L2770,892.5 L2772.5,895 L2777.5,897.5 L2780,900 L2787.5,902.5 L2792.5,900 L2795,902.5 L2795,905 L2790,907.5 L2787.5,910 L2785,910 L2785,912.5 L2787.5,915 L2790,912.5 L2797.5,915 L2797.5,917.5 L2795,922.5 L2797.5,925 L2797.5,927.5 L2800,927.5 L2805,925 L2810,922.5 L2810,922.5 L2815,920 L2820,920 L2820,917.5 L2822.5,915 L2825,917.5 L2830,917.5 L2832.5,915 L2832.5,912.5 L2830,912.5 L2825,912.5 L2820,912.5 L2817.5,910 L2817.5,907.5 L2815,905 L2815,902.5 L2815,900 L2817.5,897.5 L2820,900 L2822.5,897.5 L2825,892.5 L2830,892.5 L2832.5,892.5 L2835,892.5 L2837.5,892.5 L2840,890 L2842.5,887.5 L2847.5,887.5 L2852.5,887.5 L2857.5,887.5 L2862.5,885 L2867.5,885 L2870,887.5 L2865,887.5 L2862.5,887.5 L2862.5,890 L2860,892.5 L2855,892.5 L2850,892.5 L2852.5,895 L2855,897.5 L2860,900 L2860,902.5 L2855,902.5 L2855,902.5 L2852.5,907.5 L2850,910 L2847.5,912.5 L2845,915 L2840,912.5 L2837.5,912.5 L2837.5,915 L2840,917.5 L2845,920 L2845,922.5 L2847.5,922.5 L2852.5,922.5 L2852.5,922.5 L2855,925 L2855,927.5 L2860,927.5 L2862.5,930 L2865,932.5 L2870,935 L2872.5,937.5 L2877.5,942.5 L2880,945 L2882.5,947.5 L2885,947.5 L2887.5,947.5 L2892.5,950 L2895,955 L2897.5,955 L2900,960 L2902.5,962.5 L2902.5,970 L2905,970 L2910,972.5 L2915,975 L2917.5,980 L2922.5,982.5 L2925,987.5 L2930,992.5 L2935,997.5 L2942.5,997.5 L2950,1000 L2957.5,1002.5 L2967.5,1005 L2972.5,1007.5 L2977.5,1010 L2982.5,1012.5 L2987.5,1012.5 L2992.5,1015 L2995,1010 L3000,1007.5 L3000,1007.5 L3000,1002.5 L3000,997.5 L3002.5,995 L3002.5,992.5 L3005,992.5 L3010,990 L3012.5,992.5 L3012.5,992.5 L3012.5,987.5 L3010,987.5 L3005,985 L3002.5,985 L3000,980 L2997.5,977.5 L2997.5,975 L2995,972.5 L2992.5,967.5 L2990,965 L2987.5,962.5 L2985,960 L2982.5,955 L2980,955 L2980,952.5 L2977.5,950 L2977.5,945 L2977.5,942.5 L2975,937.5 L2975,935 L2975,932.5 L2972.5,930 L2970,927.5 L2967.5,925 L2967.5,922.5 L2970,920 L2967.5,915 L2962.5,910 L2957.5,910 L2955,907.5 L2950,905 L2947.5,902.5 L2945,895 L2945,892.5 L2942.5,887.5 L2940,880 L2940,875 L2940,867.5 L2940,862.5 L2942.5,855 L2947.5,850 L2950,842.5 L2952.5,837.5 L2955,832.5 L2957.5,827.5 L2960,817.5 L2960,817.5 L2962.5,815 L2967.5,812.5 L2970,810 L2977.5,807.5 L2980,805 L2985,802.5 L2987.5,800 L2990,795 L2992.5,790 L2995,790 L2995,785 L2995,782.5 L2992.5,780 L2990,775 L2985,772.5 L2982.5,767.5 L2980,765 L2980,760 L2977.5,755 L2977.5,752.5 L2977.5,745 L2975,737.5 L2977.5,735 L2980,727.5 L2980,720 L2982.5,715 L2985,707.5 L2987.5,702.5 L2990,695 L2992.5,687.5 L2992.5,677.5 L2992.5,670 L2992.5,660 L2990,650 L2985,640 L2980,630 L2975,620 L2972.5,610 L2967.5,602.5 L2962.5,592.5 L2962.5,585 L2962.5,580 L2957.5,580 L2952.5,577.5 L2952.5,575 L2950,572.5 L2945,572.5 L2942.5,570 L2947.5,567.5 L2950,562.5 L2957.5,565 L2960,562.5 L2962.5,562.5 L2962.5,560 L2960,557.5 L2950,552.5 L2945,552.5 L2937.5,552.5 L2930,552.5 L2927.5,552.5 L2925,550 L2922.5,550 L2922.5,552.5 L2930,555 L2937.5,560 L2935,560 L2932.5,562.5 L2932.5,567.5 L2927.5,572.5 L2927.5,572.5 L2932.5,572.5 L2937.5,577.5 L2937.5,580 L2935,582.5 L2932.5,585 L2932.5,590 L2930,590 L2925,587.5 L2922.5,587.5 L2915,587.5 L2912.5,585 L2910,582.5 L2905,585 L2902.5,590 L2897.5,592.5 L2892.5,592.5 L2887.5,595 L2880,597.5 L2877.5,600 L2880,607.5 L2885,612.5 L2882.5,615 L2875,612.5 L2870,612.5 L2862.5,612.5 L2857.5,612.5 L2852.5,612.5 L2850,607.5 L2845,607.5 L2840,605 L2835,607.5 L2835,610 L2840,617.5 L2845,617.5 L2850,617.5 L2852.5,617.5 L2852.5,622.5 L2850,625 L2845,625 L2840,625 L2837.5,622.5 L2830,622.5 L2827.5,620 L2822.5,617.5 L2817.5,617.5 L2812.5,612.5 L2812.5,610 L2810,607.5 L2807.5,602.5 L2810,600 L2810,597.5 L2812.5,595 L2807.5,592.5 L2800,587.5 L2797.5,587.5 L2795,585 L2790,582.5 L2785,580 L2782.5,577.5 L2777.5,575 L2775,572.5 L2782.5,575 L2787.5,577.5 L2792.5,577.5 L2797.5,582.5 L2802.5,582.5 L2805,582.5 L2815,582.5 L2820,585 L2825,585 L2832.5,587.5 L2840,587.5 L2845,587.5 L2850,590 L2857.5,590 L2862.5,590 L2877.5,587.5 L2882.5,585 L2887.5,585 L2892.5,582.5 L2897.5,577.5 L2897.5,572.5 L2895,572.5 L2892.5,570 L2892.5,565 L2885,562.5 L2880,562.5 L2877.5,560 L2872.5,560 L2867.5,557.5 L2862.5,555 L2857.5,555 L2852.5,552.5 L2850,550 L2845,547.5 L2840,547.5 L2830,545 L2825,545 L2817.5,542.5 L2812.5,542.5 L2807.5,540 L2802.5,540 L2800,542.5 L2795,542.5 L2792.5,542.5 L2797.5,540 L2792.5,537.5 L2790,537.5 L2785,537.5 L2780,537.5 L2777.5,535 L2780,535 L2785,535 L2787.5,535 L2787.5,532.5 L2782.5,532.5 L2782.5,530 L2780,530 L2775,530 L2772.5,532.5 L2770,532.5 L2765,535 L2765,535 L2762.5,532.5 L2760,532.5 L2757.5,532.5 L2755,532.5 L2755,532.5Z"/>
</svg>