<?xml version="1.0" encoding="UTF-8"?>
<svg xmlns="http://www.w3.org/2000/svg" viewBox="2909 431.5 642 459.5" preserveAspectRatio="xMidYMid meet">
  <defs>
    <style>
      .territory {
        fill: #f4d03f;
        stroke: #333;
        stroke-width: 3;
        stroke-linejoin: round;
        stroke-linecap: round;
      }
    </style>
  </defs>
  <path id="ural" class="territory" d="M2962.5,580 L2962.5,585 L2962.5,592.5 L2967.5,602.5 L2972.5,610 L2975,620 L2980,630 L2985,640 L2990,650 L2992.5,660 L2992.5,670 L2992.5,677.5 L2992.5,687.5 L2990,695 L2987.5,702.5 L2985,707.5 L2982.5,715 L2980,720 L2980,727.5 L2977.5,735 L2975,737.5 L2977.5,745 L2977.5,752.5 L2977.5,755 L2980,760 L2980,765 L2985,762.5 L2987.5,760 L2995,755 L3002.5,752.5 L3012.5,750 L3020,750 L3032.5,747.5 L3037.5,745 L3047.5,740 L3055,735 L3060,730 L3067.5,722.5 L3075,717.5 L3077.5,710 L3080,702.5 L3082.5,695 L3090,690 L3095,687.5 L3105,687.5 L3115,687.5 L3122.5,687.5 L3135,692.5 L3145,695 L3157.5,700 L3162.5,702.5 L3175,705 L3187.5,705 L3195,705 L3205,705 L3215,705 L3220,707.5 L3227.5,707.5 L3237.5,707.5 L3245,707.5 L3250,705 L3252.5,707.5 L3255,707.5 L3260,712.5 L3262.5,720 L3267.5,725 L3272.5,727.5 L3280,732.5 L3287.5,737.5 L3295,742.5 L3305,747.5 L3315,752.5 L3322.5,755 L3340,757.5 L3350,760 L3355,760 L3365,770 L3367.5,772.5 L3375,777.5 L3387.5,782.5 L3392.5,785 L3397.5,792.5 L3405,797.5 L3410,800 L3415,802.5 L3422.5,810 L3427.5,812.5 L3432.5,815 L3435,817.5 L3442.5,827.5 L3447.5,832.5 L3455,837.5 L3462.5,835 L3465,830 L3470,825 L3467.5,820 L3467.5,812.5 L3465,807.5 L3460,802.5 L3457.5,797.5 L3452.5,795 L3455,787.5 L3457.5,785 L3467.5,785 L3475,782.5 L3482.5,780 L3487.5,772.5 L3490,767.5 L3487.5,757.5 L3485,750 L3480,742.5 L3477.5,732.5 L3477.5,730 L3485,730 L3490,730 L3497.5,727.5 L3497.5,722.5 L3495,717.5 L3492.5,710 L3492.5,705 L3492.5,695 L3490,692.5 L3482.5,685 L3477.5,682.5 L3470,682.5 L3462.5,682.5 L3452.5,680 L3447.5,677.5 L3447.5,670 L3450,660 L3455,650 L3455,642.5 L3450,635 L3445,630 L3440,622.5 L3432.5,612.5 L3427.5,605 L3420,590 L3415,577.5 L3412.5,567.5 L3410,560 L3407.5,555 L3400,550 L3392.5,547.5 L3382.5,545 L3380,535 L3382.5,527.5 L3385,520 L3382.5,510 L3372.5,502.5 L3365,500 L3352.5,500 L3347.5,500 L3352.5,507.5 L3357.5,510 L3365,510 L3375,510 L3375,512.5 L3375,515 L3370,515 L3365,512.5 L3362.5,512.5 L3355,512.5 L3350,512.5 L3345,510 L3337.5,510 L3340,507.5 L3342.5,505 L3337.5,502.5 L3340,500 L3340,492.5 L3337.5,485 L3330,485 L3332.5,492.5 L3332.5,497.5 L3327.5,500 L3322.5,500 L3317.5,500 L3312.5,505 L3310,507.5 L3315,510 L3320,512.5 L3322.5,517.5 L3320,522.5 L3315,532.5 L3315,537.5 L3317.5,542.5 L3327.5,542.5 L3337.5,542.5 L3347.5,542.5 L3352.5,542.5 L3360,545 L3365,547.5 L3370,552.5 L3372.5,555 L3370,557.5 L3365,562.5 L3365,567.5 L3362.5,562.5 L3360,557.5 L3355,550 L3352.5,547.5 L3345,547.5 L3340,547.5 L3332.5,547.5 L3325,550 L3325,557.5 L3327.5,565 L3320,570 L3310,577.5 L3302.5,582.5 L3297.5,587.5 L3290,587.5 L3287.5,587.5 L3280,587.5 L3267.5,587.5 L3262.5,585 L3257.5,582.5 L3267.5,580 L3272.5,580 L3277.5,582.5 L3282.5,582.5 L3292.5,572.5 L3297.5,570 L3302.5,567.5 L3307.5,562.5 L3310,557.5 L3310,555 L3312.5,550 L3310,547.5 L3305,547.5 L3302.5,542.5 L3302.5,532.5 L3302.5,525 L3302.5,520 L3300,512.5 L3295,510 L3292.5,507.5 L3297.5,502.5 L3300,500 L3302.5,495 L3302.5,490 L3300,487.5 L3292.5,485 L3275,485 L3265,485 L3262.5,485 L3250,497.5 L3247.5,502.5 L3242.5,507.5 L3235,507.5 L3225,512.5 L3225,517.5 L3232.5,522.5 L3232.5,527.5 L3227.5,532.5 L3225,537.5 L3230,537.5 L3237.5,535 L3242.5,540 L3250,545 L3252.5,550 L3252.5,555 L3247.5,557.5 L3240,555 L3232.5,550 L3227.5,547.5 L3220,545 L3210,542.5 L3202.5,540 L3195,537.5 L3182.5,537.5 L3175,535 L3165,532.5 L3162.5,532.5 L3157.5,532.5 L3152.5,532.5 L3142.5,532.5 L3135,527.5 L3135,527.5 L3130,525 L3127.5,525 L3122.5,522.5 L3117.5,527.5 L3122.5,530 L3127.5,532.5 L3137.5,535 L3140,537.5 L3145,540 L3150,542.5 L3145,547.5 L3142.5,550 L3135,550 L3137.5,552.5 L3135,555 L3130,552.5 L3127.5,552.5 L3127.5,550 L3122.5,545 L3117.5,545 L3112.5,545 L3112.5,547.5 L3107.5,547.5 L3102.5,550 L3092.5,550 L3085,550 L3080,552.5 L3070,555 L3065,557.5 L3060,557.5 L3052.5,555 L3060,552.5 L3062.5,547.5 L3065,545 L3057.5,545 L3050,547.5 L3042.5,547.5 L3040,547.5 L3045,552.5 L3040,555 L3032.5,555 L3022.5,555 L3015,557.5 L3010,560 L3002.5,562.5 L2995,565 L2995,562.5 L2990,562.5 L2982.5,567.5 L2980,570 L2975,577.5 L2965,580Z"/>
</svg>