<?xml version="1.0" encoding="UTF-8"?>
<svg xmlns="http://www.w3.org/2000/svg" viewBox="1290.25 1387.75 447 304.5" preserveAspectRatio="xMidYMid meet">
  <defs>
    <style>
      .territory {
        fill: #f4d03f;
        stroke: #333;
        stroke-width: 3;
        stroke-linejoin: round;
        stroke-linecap: round;
      }
    </style>
  </defs>
  <path id="venezuela" class="territory" d="M1347.5,1472.5 L1352.5,1475 L1357.5,1480 L1362.5,1487.5 L1365,1495 L1367.5,1492.5 L1367.5,1487.5 L1367.5,1485 L1375,1477.5 L1377.5,1472.5 L1382.5,1470 L1382.5,1467.5 L1382.5,1467.5 L1385,1452.5 L1387.5,1450 L1392.5,1445 L1397.5,1447.5 L1397.5,1450 L1397.5,1450 L1400,1447.5 L1400,1445 L1405,1440 L1405,1442.5 L1412.5,1442.5 L1427.5,1432.5 L1427.5,1427.5 L1430,1427.5 L1430,1427.5 L1435,1425 L1440,1425 L1440,1427.5 L1437.5,1432.5 L1435,1435 L1432.5,1437.5 L1430,1437.5 L1432.5,1440 L1432.5,1445 L1435,1447.5 L1432.5,1450 L1435,1452.5 L1435,1455 L1427.5,1462.5 L1430,1467.5 L1432.5,1470 L1432.5,1475 L1437.5,1477.5 L1440,1472.5 L1442.5,1465 L1440,1462.5 L1437.5,1457.5 L1437.5,1452.5 L1437.5,1450 L1437.5,1447.5 L1445,1442.5 L1452.5,1440 L1455,1440 L1457.5,1437.5 L1457.5,1437.5 L1455,1437.5 L1452.5,1435 L1452.5,1430 L1455,1430 L1455,1427.5 L1457.5,1432.5 L1457.5,1435 L1457.5,1437.5 L1460,1437.5 L1465,1437.5 L1472.5,1442.5 L1477.5,1445 L1477.5,1450 L1477.5,1452.5 L1480,1455 L1482.5,1455 L1492.5,1452.5 L1505,1452.5 L1507.5,1455 L1507.5,1457.5 L1517.5,1460 L1522.5,1460 L1527.5,1457.5 L1527.5,1457.5 L1530,1455 L1535,1455 L1535,1455 L1530,1452.5 L1530,1452.5 L1540,1452.5 L1540,1450 L1547.5,1452.5 L1550,1450 L1560,1450 L1555,1452.5 L1555,1452.5 L1547.5,1452.5 L1547.5,1455 L1547.5,1457.5 L1550,1455 L1550,1457.5 L1550,1460 L1552.5,1460 L1555,1465 L1557.5,1465 L1557.5,1465 L1557.5,1462.5 L1560,1462.5 L1562.5,1465 L1565,1465 L1567.5,1467.5 L1570,1467.5 L1572.5,1470 L1575,1472.5 L1572.5,1475 L1570,1475 L1570,1480 L1567.5,1482.5 L1565,1482.5 L1567.5,1485 L1570,1485 L1570,1485 L1572.5,1482.5 L1575,1485 L1577.5,1485 L1582.5,1482.5 L1585,1485 L1587.5,1485 L1587.5,1487.5 L1590,1487.5 L1595,1490 L1600,1497.5 L1605,1502.5 L1605,1507.5 L1602.5,1510 L1602.5,1515 L1605,1510 L1607.5,1510 L1610,1510 L1612.5,1515 L1617.5,1517.5 L1617.5,1520 L1620,1520 L1622.5,1522.5 L1622.5,1527.5 L1625,1525 L1627.5,1525 L1632.5,1525 L1640,1527.5 L1637.5,1525 L1645,1525 L1647.5,1525 L1647.5,1525 L1652.5,1525 L1660,1525 L1662.5,1530 L1665,1527.5 L1667.5,1530 L1677.5,1532.5 L1680,1535 L1685,1542.5 L1685,1542.5 L1687.5,1542.5 L1690,1547.5 L1692.5,1545 L1692.5,1550 L1692.5,1555 L1695,1552.5 L1695,1550 L1697.5,1552.5 L1700,1562.5 L1695,1577.5 L1690,1590 L1682.5,1602.5 L1675,1607.5 L1665,1610 L1657.5,1610 L1642.5,1607.5 L1637.5,1605 L1630,1605 L1625,1607.5 L1617.5,1605 L1607.5,1602.5 L1597.5,1602.5 L1587.5,1605 L1580,1607.5 L1572.5,1605 L1567.5,1605 L1565,1600 L1565,1592.5 L1562.5,1580 L1565,1572.5 L1567.5,1562.5 L1570,1555 L1567.5,1550 L1565,1547.5 L1557.5,1545 L1545,1547.5 L1537.5,1550 L1530,1552.5 L1522.5,1550 L1515,1545 L1510,1545 L1507.5,1552.5 L1507.5,1557.5 L1510,1565 L1512.5,1572.5 L1510,1577.5 L1505,1580 L1497.5,1585 L1492.5,1587.5 L1485,1587.5 L1480,1585 L1477.5,1575 L1475,1570 L1470,1565 L1465,1565 L1460,1567.5 L1455,1570 L1450,1567.5 L1447.5,1565 L1442.5,1565 L1437.5,1565 L1435,1570 L1435,1575 L1437.5,1582.5 L1435,1587.5 L1432.5,1592.5 L1430,1597.5 L1432.5,1602.5 L1435,1607.5 L1440,1615 L1445,1620 L1447.5,1625 L1450,1632.5 L1450,1640 L1447.5,1647.5 L1447.5,1652.5 L1445,1655 L1440,1652.5 L1440,1650 L1437.5,1645 L1432.5,1637.5 L1425,1632.5 L1417.5,1637.5 L1412.5,1637.5 L1405,1637.5 L1397.5,1632.5 L1392.5,1622.5 L1387.5,1620 L1377.5,1612.5 L1375,1610 L1367.5,1607.5 L1362.5,1607.5 L1357.5,1610 L1350,1610 L1340,1607.5 L1335,1607.5 L1332.5,1605 L1327.5,1605 L1332.5,1602.5 L1335,1600 L1340,1600 L1342.5,1595 L1340,1592.5 L1340,1592.5 L1340,1590 L1340,1590 L1345,1587.5 L1345,1587.5 L1345,1585 L1342.5,1582.5 L1345,1580 L1347.5,1580 L1352.5,1577.5 L1355,1575 L1355,1572.5 L1355,1570 L1357.5,1567.5 L1360,1565 L1360,1562.5 L1362.5,1560 L1362.5,1560 L1365,1557.5 L1362.5,1557.5 L1362.5,1555 L1360,1555 L1360,1555 L1360,1552.5 L1362.5,1552.5 L1360,1550 L1360,1542.5 L1360,1535 L1360,1532.5 L1357.5,1532.5 L1357.5,1532.5 L1360,1530 L1362.5,1530 L1362.5,1525 L1360,1522.5 L1360,1520 L1360,1517.5 L1360,1515 L1357.5,1512.5 L1357.5,1512.5 L1355,1510 L1355,1505 L1352.5,1505 L1350,1500 L1347.5,1497.5 L1347.5,1495 L1347.5,1492.5 L1347.5,1490 L1350,1487.5 L1350,1487.5 L1352.5,1490 L1352.5,1490 L1352.5,1487.5 L1352.5,1485 L1350,1485 L1350,1487.5 L1347.5,1487.5 L1347.5,1485 L1345,1482.5 L1345,1482.5 L1342.5,1480 L1345,1477.5Z"/>
</svg>