<?xml version="1.0" encoding="UTF-8"?>
<svg xmlns="http://www.w3.org/2000/svg" viewBox="714.5 849.5 426 291" preserveAspectRatio="xMidYMid meet">
  <defs>
    <style>
      .territory {
        fill: #f4d03f;
        stroke: #333;
        stroke-width: 3;
        stroke-linejoin: round;
        stroke-linecap: round;
      }
    </style>
  </defs>
  <path id="western united states" class="territory" d="M1072.5,887.5 L1067.5,885 L1062.5,885 L1052.5,887.5 L1047.5,887.5 L1037.5,887.5 L1030,885 L1022.5,885 L1015,885 L1012.5,885 L1005,887.5 L1000,885 L995,887.5 L987.5,887.5 L982.5,887.5 L972.5,887.5 L970,887.5 L960,887.5 L952.5,887.5 L945,887.5 L940,887.5 L927.5,885 L925,885 L915,885 L910,885 L905,887.5 L895,887.5 L890,887.5 L877.5,885 L872.5,885 L867.5,885 L857.5,885 L850,887.5 L845,887.5 L835,887.5 L832.5,885 L827.5,885 L822.5,885 L817.5,887.5 L812.5,887.5 L807.5,887.5 L802.5,885 L795,885 L790,887.5 L782.5,887.5 L780,887.5 L775,887.5 L772.5,887.5 L770,887.5 L765,887.5 L760,885 L757.5,887.5 L755,890 L757.5,892.5 L760,892.5 L757.5,895 L757.5,897.5 L757.5,897.5 L760,900 L757.5,902.5 L757.5,905 L757.5,910 L757.5,910 L757.5,915 L757.5,917.5 L755,922.5 L755,925 L755,930 L755,937.5 L755,940 L752.5,945 L752.5,947.5 L750,950 L750,952.5 L750,955 L750,962.5 L752.5,962.5 L752.5,965 L755,970 L755,975 L755,977.5 L755,982.5 L752.5,985 L752.5,987.5 L752.5,992.5 L755,995 L757.5,997.5 L760,1002.5 L760,1005 L757.5,1010 L760,1012.5 L762.5,1017.5 L765,1017.5 L767.5,1020 L770,1025 L770,1027.5 L777.5,1030 L777.5,1025 L777.5,1025 L780,1030 L780,1032.5 L780,1035 L777.5,1032.5 L775,1037.5 L777.5,1040 L777.5,1040 L782.5,1042.5 L782.5,1042.5 L785,1045 L785,1047.5 L785,1047.5 L782.5,1050 L785,1055 L785,1057.5 L787.5,1060 L792.5,1062.5 L792.5,1065 L797.5,1067.5 L797.5,1070 L800,1072.5 L800,1077.5 L800,1082.5 L802.5,1082.5 L807.5,1082.5 L810,1085 L812.5,1082.5 L815,1082.5 L817.5,1085 L820,1087.5 L822.5,1087.5 L827.5,1090 L830,1090 L830,1090 L830,1092.5 L832.5,1095 L835,1095 L837.5,1097.5 L842.5,1100 L845,1097.5 L847.5,1097.5 L852.5,1097.5 L855,1097.5 L860,1097.5 L865,1097.5 L867.5,1097.5 L867.5,1097.5 L872.5,1100 L877.5,1100 L880,1100 L885,1102.5 L890,1102.5 L905,1105 L907.5,1105 L912.5,1105 L920,1105 L922.5,1105 L930,1105 L937.5,1105 L940,1105 L945,1105 L955,1105 L957.5,1105 L965,1105 L970,1105 L975,1105 L980,1105 L982.5,1105 L985,1102.5 L985,1102.5 L987.5,1100 L987.5,1095 L987.5,1090 L987.5,1082.5 L990,1075 L992.5,1067.5 L995,1060 L997.5,1055 L1000,1050 L1002.5,1047.5 L1002.5,1045 L1012.5,1045 L1022.5,1045 L1032.5,1042.5 L1045,1042.5 L1050,1042.5 L1057.5,1042.5 L1070,1042.5 L1077.5,1042.5 L1087.5,1042.5 L1090,1042.5 L1100,1040 L1102.5,1027.5 L1105,1022.5 L1105,1012.5 L1102.5,1007.5 L1100,1000 L1095,997.5 L1090,992.5 L1085,985 L1082.5,982.5 L1082.5,980 L1080,977.5 L1077.5,975 L1075,970 L1072.5,965 L1072.5,957.5 L1075,952.5 L1075,947.5 L1077.5,942.5 L1077.5,940 L1080,932.5 L1080,930 L1080,920 L1080,915 L1080,910 L1077.5,902.5 L1075,897.5 L1075,892.5Z"/>
</svg>