<?xml version="1.0" encoding="UTF-8"?>
<svg xmlns="http://www.w3.org/2000/svg" viewBox="2216.25 801.25 267.5 285" preserveAspectRatio="xMidYMid meet">
  <defs>
    <style>
      .territory {
        fill: #f4d03f;
        stroke: #333;
        stroke-width: 3;
        stroke-linejoin: round;
        stroke-linecap: round;
      }
    </style>
  </defs>
  <path id="western europe" class="territory" d="M2390,825 L2387.5,825 L2385,825 L2382.5,827.5 L2382.5,832.5 L2382.5,837.5 L2380,840 L2372.5,842.5 L2370,845 L2367.5,845 L2365,845 L2365,847.5 L2365,850 L2355,850 L2350,850 L2347.5,850 L2345,847.5 L2345,845 L2342.5,845 L2337.5,845 L2337.5,847.5 L2340,850 L2342.5,852.5 L2342.5,857.5 L2342.5,860 L2340,862.5 L2340,862.5 L2337.5,860 L2337.5,862.5 L2335,862.5 L2332.5,862.5 L2330,862.5 L2327.5,862.5 L2327.5,862.5 L2322.5,862.5 L2322.5,860 L2317.5,860 L2312.5,860 L2312.5,860 L2307.5,860 L2302.5,862.5 L2300,862.5 L2300,865 L2307.5,865 L2305,867.5 L2307.5,870 L2305,870 L2302.5,870 L2302.5,872.5 L2302.5,872.5 L2307.5,875 L2307.5,872.5 L2310,875 L2312.5,875 L2315,875 L2315,875 L2317.5,875 L2320,875 L2322.5,877.5 L2325,877.5 L2330,880 L2330,882.5 L2332.5,882.5 L2335,885 L2335,887.5 L2337.5,890 L2335,890 L2337.5,892.5 L2340,895 L2342.5,897.5 L2345,900 L2347.5,905 L2347.5,907.5 L2347.5,910 L2347.5,915 L2347.5,922.5 L2345,927.5 L2345,930 L2345,935 L2342.5,940 L2340,942.5 L2337.5,942.5 L2335,945 L2332.5,945 L2327.5,945 L2325,942.5 L2317.5,942.5 L2315,942.5 L2307.5,942.5 L2305,945 L2300,942.5 L2297.5,942.5 L2287.5,942.5 L2285,942.5 L2282.5,940 L2277.5,940 L2272.5,940 L2270,940 L2267.5,940 L2265,937.5 L2262.5,937.5 L2257.5,937.5 L2255,940 L2255,942.5 L2252.5,945 L2247.5,945 L2242.5,947.5 L2242.5,952.5 L2247.5,955 L2247.5,960 L2247.5,962.5 L2247.5,967.5 L2247.5,970 L2247.5,972.5 L2247.5,980 L2250,982.5 L2247.5,987.5 L2245,992.5 L2245,1000 L2242.5,1005 L2240,1010 L2240,1012.5 L2240,1015 L2242.5,1015 L2242.5,1015 L2245,1017.5 L2245,1020 L2247.5,1020 L2250,1022.5 L2247.5,1025 L2247.5,1030 L2247.5,1035 L2247.5,1040 L2245,1042.5 L2247.5,1042.5 L2247.5,1040 L2255,1042.5 L2257.5,1042.5 L2260,1042.5 L2262.5,1042.5 L2262.5,1040 L2267.5,1040 L2270,1040 L2275,1040 L2277.5,1042.5 L2277.5,1045 L2280,1047.5 L2280,1047.5 L2280,1047.5 L2280,1052.5 L2282.5,1055 L2285,1062.5 L2292.5,1062.5 L2292.5,1057.5 L2295,1052.5 L2297.5,1050 L2300,1050 L2302.5,1047.5 L2310,1045 L2315,1045 L2322.5,1045 L2327.5,1047.5 L2335,1045 L2335,1045 L2337.5,1042.5 L2340,1037.5 L2345,1035 L2347.5,1032.5 L2352.5,1032.5 L2352.5,1027.5 L2355,1025 L2355,1022.5 L2360,1017.5 L2362.5,1015 L2365,1015 L2362.5,1012.5 L2360,1012.5 L2360,1010 L2357.5,1007.5 L2357.5,1002.5 L2360,997.5 L2362.5,995 L2367.5,990 L2367.5,990 L2370,987.5 L2370,985 L2372.5,985 L2372.5,985 L2375,985 L2372.5,982.5 L2372.5,980 L2375,977.5 L2382.5,977.5 L2385,975 L2387.5,975 L2397.5,970 L2400,970 L2402.5,967.5 L2405,965 L2405,962.5 L2405,957.5 L2402.5,952.5 L2402.5,950 L2402.5,947.5 L2410,942.5 L2415,942.5 L2417.5,942.5 L2422.5,942.5 L2422.5,942.5 L2427.5,942.5 L2430,942.5 L2432.5,945 L2437.5,947.5 L2440,947.5 L2442.5,947.5 L2447.5,947.5 L2450,945 L2450,942.5 L2452.5,940 L2455,937.5 L2457.5,937.5 L2460,937.5 L2460,932.5 L2457.5,927.5 L2455,925 L2452.5,922.5 L2452.5,920 L2452.5,915 L2452.5,910 L2450,907.5 L2447.5,905 L2447.5,902.5 L2445,897.5 L2447.5,892.5 L2450,885 L2450,880 L2452.5,875 L2455,872.5 L2455,867.5 L2455,865 L2455,860 L2455,857.5 L2452.5,855 L2450,852.5 L2447.5,852.5 L2442.5,852.5 L2435,852.5 L2432.5,850 L2427.5,850 L2422.5,847.5 L2417.5,845 L2415,840 L2410,837.5 L2405,835 L2400,832.5 L2397.5,827.5 L2392.5,825Z"/>
</svg>