<?xml version="1.0" encoding="UTF-8"?>
<svg xmlns="http://www.w3.org/2000/svg" viewBox="3867.25 1942.25 513 495.5" preserveAspectRatio="xMidYMid meet">
  <defs>
    <style>
      .territory {
        fill: #f4d03f;
        stroke: #333;
        stroke-width: 3;
        stroke-linejoin: round;
        stroke-linecap: round;
      }
    </style>
  </defs>
  <path id="western australia" class="territory" d="M4165,2015 L4145,2067.5 L4107.5,2152.5 L4102.5,2160 L4102.5,2165 L4107.5,2167.5 L4327.5,2167.5 L4335,2170 L4337.5,2175 L4335,2182.5 L4320,2212.5 L4320,2220 L4307.5,2250 L4307.5,2257.5 L4290,2297.5 L4290,2307.5 L4277.5,2347.5 L4272.5,2365 L4267.5,2375 L4265,2380 L4260,2372.5 L4255,2365 L4255,2362.5 L4250,2357.5 L4245,2357.5 L4242.5,2350 L4245,2347.5 L4242.5,2345 L4240,2345 L4240,2342.5 L4235,2337.5 L4230,2340 L4217.5,2335 L4215,2337.5 L4202.5,2327.5 L4192.5,2327.5 L4187.5,2327.5 L4175,2327.5 L4162.5,2327.5 L4147.5,2335 L4132.5,2340 L4117.5,2340 L4107.5,2345 L4095,2350 L4085,2352.5 L4075,2372.5 L4060,2370 L4055,2372.5 L4047.5,2370 L4037.5,2370 L4027.5,2372.5 L4017.5,2370 L4010,2377.5 L4010,2382.5 L4005,2382.5 L4002.5,2380 L3997.5,2387.5 L3987.5,2392.5 L3977.5,2395 L3967.5,2392.5 L3962.5,2395 L3960,2390 L3952.5,2387.5 L3947.5,2380 L3937.5,2377.5 L3937.5,2365 L3945,2367.5 L3947.5,2362.5 L3950,2355 L3947.5,2350 L3950,2345 L3950,2332.5 L3942.5,2312.5 L3937.5,2300 L3937.5,2285 L3932.5,2275 L3930,2270 L3925,2260 L3922.5,2245 L3915,2235 L3910,2227.5 L3912.5,2222.5 L3917.5,2230 L3920,2230 L3920,2227.5 L3917.5,2225 L3912.5,2217.5 L3915,2212.5 L3920,2220 L3920,2222.5 L3925,2227.5 L3925,2222.5 L3925,2217.5 L3915,2195 L3912.5,2190 L3915,2177.5 L3917.5,2170 L3917.5,2157.5 L3917.5,2155 L3922.5,2142.5 L3925,2150 L3927.5,2152.5 L3932.5,2142.5 L3937.5,2137.5 L3945,2135 L3957.5,2122.5 L3967.5,2117.5 L3970,2120 L3982.5,2117.5 L3987.5,2112.5 L3997.5,2112.5 L4002.5,2105 L4012.5,2107.5 L4035,2097.5 L4042.5,2087.5 L4042.5,2080 L4055,2072.5 L4052.5,2060 L4052.5,2052.5 L4060,2045 L4062.5,2045 L4065,2037.5 L4075,2057.5 L4075,2050 L4077.5,2050 L4080,2045 L4077.5,2045 L4072.5,2040 L4075,2037.5 L4075,2035 L4077.5,2032.5 L4080,2037.5 L4082.5,2035 L4095,2037.5 L4090,2035 L4092.5,2027.5 L4090,2027.5 L4087.5,2022.5 L4095,2017.5 L4097.5,2012.5 L4100,2010 L4105,2012.5 L4102.5,2007.5 L4102.5,2000 L4107.5,2002.5 L4107.5,1997.5 L4112.5,2002.5 L4115,1997.5 L4115,1992.5 L4115,1990 L4117.5,1992.5 L4120,1990 L4125,1992.5 L4127.5,1987.5 L4130,1985 L4132.5,1987.5 L4137.5,1990 L4142.5,1995 L4147.5,2002.5 L4147.5,2015 L4150,2017.5 L4150,2012.5 L4152.5,2010 L4152.5,2007.5 L4162.5,2010Z"/>
</svg>