<?xml version="1.0" encoding="UTF-8"?>
<svg xmlns="http://www.w3.org/2000/svg" viewBox="3619.75 412.25 633 305.5" preserveAspectRatio="xMidYMid meet">
  <defs>
    <style>
      .territory {
        fill: #f4d03f;
        stroke: #333;
        stroke-width: 3;
        stroke-linejoin: round;
        stroke-linecap: round;
      }
    </style>
  </defs>
  <path id="yakutsk" class="territory" d="M3727.5,480 L3720,485 L3715,490 L3710,495 L3702.5,497.5 L3692.5,500 L3685,505 L3680,505 L3675,510 L3672.5,515 L3672.5,515 L3672.5,520 L3672.5,525 L3680,532.5 L3682.5,537.5 L3687.5,542.5 L3690,552.5 L3692.5,557.5 L3692.5,567.5 L3695,580 L3697.5,587.5 L3697.5,595 L3705,597.5 L3715,600 L3725,600 L3735,597.5 L3742.5,590 L3750,587.5 L3760,592.5 L3765,597.5 L3775,597.5 L3780,602.5 L3787.5,612.5 L3792.5,622.5 L3800,630 L3810,632.5 L3827.5,637.5 L3837.5,637.5 L3855,637.5 L3867.5,637.5 L3875,637.5 L3890,640 L3900,645 L3912.5,647.5 L3922.5,652.5 L3932.5,655 L3947.5,657.5 L3957.5,657.5 L3967.5,657.5 L3977.5,660 L3987.5,662.5 L3995,660 L4002.5,662.5 L4012.5,662.5 L4017.5,665 L4025,665 L4032.5,657.5 L4040,652.5 L4052.5,647.5 L4060,642.5 L4072.5,642.5 L4082.5,645 L4090,642.5 L4097.5,637.5 L4095,625 L4092.5,620 L4092.5,610 L4097.5,602.5 L4102.5,597.5 L4107.5,595 L4117.5,595 L4127.5,595 L4135,590 L4132.5,582.5 L4135,575 L4140,565 L4145,562.5 L4150,557.5 L4160,555 L4165,552.5 L4172.5,555 L4182.5,552.5 L4182.5,550 L4182.5,545 L4182.5,537.5 L4187.5,530 L4190,530 L4195,525 L4200,522.5 L4197.5,517.5 L4195,512.5 L4190,507.5 L4182.5,502.5 L4175,497.5 L4175,492.5 L4167.5,492.5 L4165,495 L4162.5,495 L4167.5,500 L4170,502.5 L4172.5,505 L4167.5,507.5 L4160,505 L4157.5,505 L4150,505 L4147.5,507.5 L4147.5,510 L4147.5,510 L4137.5,507.5 L4132.5,505 L4127.5,502.5 L4120,502.5 L4112.5,502.5 L4105,507.5 L4105,507.5 L4100,505 L4092.5,505 L4085,502.5 L4077.5,500 L4072.5,505 L4067.5,510 L4062.5,515 L4052.5,515 L4042.5,512.5 L4040,507.5 L4035,502.5 L4030,500 L4022.5,497.5 L4030,495 L4035,495 L4037.5,492.5 L4032.5,490 L4022.5,490 L4022.5,487.5 L4027.5,482.5 L4030,482.5 L4025,480 L4017.5,477.5 L4012.5,475 L4002.5,475 L4000,477.5 L3995,475 L3990,472.5 L3985,475 L3977.5,470 L3972.5,467.5 L3967.5,470 L3960,472.5 L3957.5,475 L3960,480 L3965,480 L3960,480 L3955,482.5 L3947.5,482.5 L3930,482.5 L3922.5,482.5 L3915,482.5 L3905,482.5 L3895,480 L3897.5,477.5 L3900,477.5 L3897.5,472.5 L3887.5,470 L3880,472.5 L3875,472.5 L3870,470 L3860,470 L3850,472.5 L3842.5,472.5 L3837.5,472.5 L3832.5,475 L3827.5,475 L3827.5,470 L3822.5,467.5 L3820,472.5 L3817.5,472.5 L3810,470 L3805,470 L3805,467.5 L3807.5,465 L3805,465 L3795,465 L3790,467.5 L3785,470 L3780,472.5 L3785,472.5 L3785,477.5 L3782.5,477.5 L3777.5,477.5 L3770,475 L3765,480 L3762.5,480 L3752.5,480 L3747.5,480 L3742.5,480 L3737.5,482.5 L3732.5,485 L3727.5,487.5 L3730,482.5 L3735,480Z"/>
</svg>